{
.appVersion = "895";
DisplayStrings = (
".,0123456789"
);
copyright = "Copyright (c)2015, HK Grotesk Latin by Alfredo Marco Pradil (ammpradil@gmail.com) and HK Grotesk Cyrillic by Stefan Peev (http://www.contextbg.net/). HK Grotesk is a trademark of Alfredo Marco Pradil.";
customParameters = (
{
name = description;
value = "Copyright (c)2015, HK Grotesk Latin by Alfredo Marco Pradil (ammpradil@gmail.com) and HK Grotesk Cyrillic by Stefan Peev (http://www.contextbg.net/). HK Grotesk is a trademark of Alfredo Marco Pradil.";
},
{
name = license;
value = "Copyright (c) 2015, Alfredo Marco Pradil (<http://behance.net/pradil | ammpradil@gmail.com>),\012with Reserved Font Name HK Grotesk.\012\012This Font Software is licensed under the SIL Open Font License, Version 1.1.\012This license is copied below, and is also available with a FAQ at:\012http://scripts.sil.org/OFL";
},
{
name = licenseURL;
value = "http://scripts.sil.org/OFL";
},
{
name = vendorID;
value = AMSP;
},
{
name = panose;
value = (
0,
0,
4,
0,
0,
0,
0,
0,
0,
0
);
},
{
name = unicodeRanges;
value = (
0,
1,
2,
9
);
},
{
name = codePageRanges;
value = (
1252,
1250,
1251,
1254,
1257
);
},
{
name = glyphOrder;
value = (
.notdef,
uni0000,
uni000D,
space,
exclam,
quotedbl,
numbersign,
dollar,
percent,
ampersand,
quotesingle,
parenleft,
parenright,
asterisk,
plus,
comma,
hyphen,
period,
slash,
zero,
one,
two,
three,
four,
five,
six,
seven,
eight,
nine,
colon,
semicolon,
less,
equal,
greater,
question,
at,
A,
B,
C,
D,
E,
F,
G,
H,
I,
J,
K,
L,
M,
N,
O,
P,
Q,
R,
S,
T,
U,
V,
W,
X,
Y,
Z,
bracketleft,
backslash,
bracketright,
asciicircum,
underscore,
grave,
a,
b,
c,
d,
e,
f,
g,
h,
i,
j,
k,
l,
m,
n,
o,
p,
q,
r,
s,
t,
u,
v,
w,
x,
y,
z,
braceleft,
bar,
braceright,
asciitilde,
uni00A0,
exclamdown,
cent,
sterling,
currency,
yen,
brokenbar,
section,
dieresis,
copyright,
ordfeminine,
guillemotleft,
logicalnot,
uni00AD,
registered,
macron,
degree,
plusminus,
acute,
uni00B5,
paragraph,
periodcentered,
cedilla,
ordmasculine,

glyphs = (
{
glyphname = .notdef;
lastChange = "2017-12-10 12:53:03 +0000";
layers = (
{
layerId = "BF2BE0AA-9B99-4172-A7AC-368BFC5C7956";
paths = (
{
closed = 1;
nodes = (
"993 954 LINE",
"174 954 LINE",
"174 0 LINE",
"993 0 LINE"
);
},
{
closed = 1;
nodes = (
"891 852 LINE",
"891 102 LINE",
"276 102 LINE",
"276 852 LINE"
);
}
);
width = 1167;
}
);
note = .notdef;
rightKerningGroup = .notdef;
},
{
glyphname = exclam;
lastChange = "2017-12-10 12:53:03 +0000";
layers = (
{
layerId = "BF2BE0AA-9B99-4172-A7AC-368BFC5C7956";
paths = (
{
closed = 1;
nodes = (
"391 1436 LINE",
"238 1436 LINE",
"266 369 LINE",
"362 369 LINE"
);
},
{
closed = 1;
nodes = (
"403 176 LINE",
"225 176 LINE",
"225 0 LINE",
"403 0 LINE"
);
}
);
width = 629;
}
);
leftKerningGroup = exclam;
note = exclam;
unicode = 0021;
},
{
glyphname = quotedbl;
lastChange = "2017-12-10 12:53:03 +0000";
layers = (
{
layerId = "BF2BE0AA-9B99-4172-A7AC-368BFC5C7956";
paths = (
{
closed = 1;
nodes = (
"360 1413 LINE",
"244 1413 LINE",
"244 1014 LINE",
"360 1014 LINE"
);
},
{
closed = 1;
nodes = (
"651 1413 LINE",
"532 1413 LINE",
"532 1014 LINE",
"651 1014 LINE"
);
}
);
width = 895;
}
);
leftKerningGroup = quotedbl;
note = quotedbl;
rightKerningGroup = quotedbl;
unicode = 0022;
},
{
glyphname = numbersign;
lastChange = "2017-12-10 12:53:03 +0000";
layers = (
{
layerId = "BF2BE0AA-9B99-4172-A7AC-368BFC5C7956";
paths = (
{
closed = 1;
nodes = (
"459 436 LINE",
"797 436 LINE",
"705 0 LINE",
"807 0 LINE",
"899 451 LINE",
"1169 451 LINE",
"1169 543 LINE",
"920 543 LINE",
"991 893 LINE",
"1251 893 LINE",
"1251 989 LINE",
"1010 989 LINE",
"1102 1434 LINE",
"999 1434 LINE",
"907 997 LINE",
"569 997 LINE",
"664 1434 LINE",
"561 1434 LINE",
"467 985 LINE",
"197 985 LINE",
"197 893 LINE",
"446 893 LINE",
"377 543 LINE",
"115 543 LINE",
"115 444 LINE",
"356 444 LINE",
"266 0 LINE",
"369 0 LINE"
);
},
{
closed = 1;
nodes = (
"887 893 LINE",
"817 543 LINE",
"479 543 LINE",
"551 893 LINE"
);
}
);
width = 1364;
}
);
leftKerningGroup = numbersign;
note = numbersign;
rightKerningGroup = numbersign;
unicode = 0023;
},
{
glyphname = dollar;
lastChange = "2017-12-10 12:53:03 +0000";
layers = (
{
layerId = "BF2BE0AA-9B99-4172-A7AC-368BFC5C7956";
paths = (
{
closed = 1;
nodes = (
"596 -14 LINE",
"832 -7 OFFCURVE",
"1001 153 OFFCURVE",
"1001 389 CURVE SMOOTH",
"1001 510 OFFCURVE",
"946 605 OFFCURVE",
"866 662 CURVE SMOOTH",
"786 719 OFFCURVE",
"685 766 OFFCURVE",
"589 808 CURVE SMOOTH",
"541 829 OFFCURVE",
"497 851 OFFCURVE",
"457 875 CURVE SMOOTH",
"377 923 OFFCURVE",
"322 997 OFFCURVE",
"322 1094 CURVE SMOOTH",
"322 1225 OFFCURVE",
"431 1313 OFFCURVE",
"559 1313 CURVE SMOOTH",
"675 1313 OFFCURVE",
"780 1254 OFFCURVE",
"840 1141 CURVE",
"942 1212 LINE",
"869 1347 OFFCURVE",
"754 1420 OFFCURVE",
"596 1432 CURVE",
"596 1659 LINE",
"512 1659 LINE",
"512 1430 LINE",
"323 1409 OFFCURVE",
"186 1272 OFFCURVE",
"186 1077 CURVE SMOOTH",
"186 1032 OFFCURVE",
"194 992 OFFCURVE",
"210 956 CURVE SMOOTH",
"241 883 OFFCURVE",
"294 836 OFFCURVE",
"362 794 CURVE SMOOTH",
"430 752 OFFCURVE",
"507 720 OFFCURVE",
"583 687 CURVE SMOOTH",
"658 654 OFFCURVE",
"728 616 OFFCURVE",
"780 570 CURVE SMOOTH",
"832 524 OFFCURVE",
"866 457 OFFCURVE",
"866 377 CURVE SMOOTH",
"866 204 OFFCURVE",
"748 113 OFFCURVE",
"571 113 CURVE SMOOTH",
"387 113 OFFCURVE",
"241 216 OFFCURVE",
"221 401 CURVE",
"92 362 LINE",
"125 143 OFFCURVE",
"297 7 OFFCURVE",
"512 -12 CURVE",
"512 -246 LINE",
"596 -246 LINE"
);
}
);
width = 1110;
}
);
note = dollar;
rightKerningGroup = dollar;
unicode = 0024;
},
{
glyphname = percent;
lastChange = "2017-12-10 12:53:03 +0000";
layers = (
{
layerId = "BF2BE0AA-9B99-4172-A7AC-368BFC5C7956";
paths = (
{
closed = 1;
nodes = (
"434 813 OFFCURVE",
"477 829 OFFCURVE",
"514 860 CURVE SMOOTH",
"586 922 OFFCURVE",
"616 1017 OFFCURVE",
"616 1122 CURVE SMOOTH",
"616 1176 OFFCURVE",
"608 1226 OFFCURVE",
"592 1272 CURVE SMOOTH",
"559 1364 OFFCURVE",
"481 1436 OFFCURVE",
"377 1436 CURVE SMOOTH",
"343 1436 OFFCURVE",
"312 1429 OFFCURVE",
"285 1416 CURVE SMOOTH",
"230 1389 OFFCURVE",
"198 1346 OFFCURVE",
"175 1290 CURVE SMOOTH",
"151 1234 OFFCURVE",
"143 1178 OFFCURVE",
"143 1122 CURVE SMOOTH",
"143 1053 OFFCURVE",
"159 984 OFFCURVE",
"194 920 CURVE SMOOTH",
"229 856 OFFCURVE",
"296 813 OFFCURVE",
"383 813 CURVE SMOOTH"
);
},
{
closed = 1;
nodes = (
"1214 1395 LINE",
"1102 1395 LINE",
"358 8 LINE",
"471 8 LINE"
);
},
{
closed = 1;
nodes = (
"346 895 OFFCURVE",
"317 907 OFFCURVE",
"294 932 CURVE",
"246 980 OFFCURVE",
"231 1047 OFFCURVE",
"231 1122 CURVE SMOOTH",
"231 1178 OFFCURVE",
"242 1231 OFFCURVE",
"264 1276 CURVE SMOOTH",
"286 1321 OFFCURVE",
"326 1352 OFFCURVE",
"377 1352 CURVE SMOOTH",
"410 1352 OFFCURVE",
"438 1340 OFFCURVE",
"461 1316 CURVE SMOOTH",
"506 1267 OFFCURVE",
"522 1199 OFFCURVE",
"522 1124 CURVE SMOOTH",
"522 1087 OFFCURVE",
"518 1053 OFFCURVE",
"509 1020 CURVE SMOOTH",
"492 954 OFFCURVE",
"446 895 OFFCURVE",
"381 895 CURVE SMOOTH"
);
},
{
closed = 1;
nodes = (
"1261 6 OFFCURVE",
"1304 21 OFFCURVE",
"1341 52 CURVE SMOOTH",
"1414 112 OFFCURVE",
"1444 206 OFFCURVE",
"1444 311 CURVE SMOOTH",
"1444 479 OFFCURVE",
"1356 623 OFFCURVE",
"1204 623 CURVE SMOOTH",
"1170 623 OFFCURVE",
"1139 616 OFFCURVE",
"1112 603 CURVE SMOOTH",
"1057 576 OFFCURVE",
"1026 534 OFFCURVE",
"1003 479 CURVE SMOOTH",
"979 423 OFFCURVE",
"971 369 OFFCURVE",
"971 313 CURVE SMOOTH",
"971 242 OFFCURVE",
"987 174 OFFCURVE",
"1022 111 CURVE SMOOTH",
"1057 48 OFFCURVE",
"1123 6 OFFCURVE",
"1210 6 CURVE SMOOTH"
);
},
{
closed = 1;
nodes = (
"1108 88 OFFCURVE",
"1059 196 OFFCURVE",
"1059 313 CURVE SMOOTH",
"1059 350 OFFCURVE",
"1064 385 OFFCURVE",
"1073 418 CURVE SMOOTH",
"1091 483 OFFCURVE",
"1137 539 OFFCURVE",
"1204 539 CURVE SMOOTH",
"1238 539 OFFCURVE",
"1267 527 OFFCURVE",
"1290 503 CURVE SMOOTH",
"1337 455 OFFCURVE",
"1352 388 OFFCURVE",
"1352 313 CURVE SMOOTH",
"1352 262 OFFCURVE",
"1341 210 OFFCURVE",
"1320 165 CURVE SMOOTH",
"1299 120 OFFCURVE",
"1257 88 OFFCURVE",
"1208 88 CURVE SMOOTH"
);
}
);
width = 1585;
}
);
leftKerningGroup = percent;
note = percent;
rightKerningGroup = percent;
unicode = 0025;
},
{
glyphname = ampersand;
lastChange = "2017-12-10 12:53:03 +0000";
layers = (
{
layerId = "BF2BE0AA-9B99-4172-A7AC-368BFC5C7956";
paths = (
{
closed = 1;
nodes = (
"1098 390 OFFCURVE",
"1136 523 OFFCURVE",
"1151 678 CURVE",
"1044 690 LINE",
"1030 562 OFFCURVE",
"1003 454 OFFCURVE",
"962 367 CURVE",
"643 743 LINE",
"731 802 OFFCURVE",
"783 843 OFFCURVE",
"843 908 CURVE SMOOTH",
"903 972 OFFCURVE",
"932 1045 OFFCURVE",
"932 1128 CURVE SMOOTH",
"932 1301 OFFCURVE",
"800 1430 OFFCURVE",
"629 1430 CURVE SMOOTH",
"444 1430 OFFCURVE",
"299 1312 OFFCURVE",
"299 1128 CURVE SMOOTH",
"299 1069 OFFCURVE",
"323 1003 OFFCURVE",
"369 933 CURVE SMOOTH",
"415 863 OFFCURVE",
"440 828 OFFCURVE",
"493 764 CURVE",
"451 737 OFFCURVE",
"416 713 OFFCURVE",
"388 692 CURVE SMOOTH",
"331 651 OFFCURVE",
"252 582 OFFCURVE",
"212 523 CURVE SMOOTH",
"171 463 OFFCURVE",
"139 380 OFFCURVE",
"139 295 CURVE SMOOTH",
"139 91 OFFCURVE",
"301 -20 OFFCURVE",
"528 -20 CURVE SMOOTH",
"715 -20 OFFCURVE",
"864 50 OFFCURVE",
"975 189 CURVE",
"1176 -49 LINE",
"1255 20 LINE",
"1036 279 LINE"
);
},
{
closed = 1;
nodes = (
"403 1249 OFFCURVE",
"510 1323 OFFCURVE",
"631 1323 CURVE SMOOTH",
"739 1323 OFFCURVE",
"836 1240 OFFCURVE",
"836 1128 CURVE SMOOTH",
"836 1067 OFFCURVE",
"810 1010 OFFCURVE",
"758 958 CURVE SMOOTH",
"705 905 OFFCURVE",
"658 871 OFFCURVE",
"577 818 CURVE",
"461 949 OFFCURVE",
"403 1052 OFFCURVE",
"403 1126 CURVE SMOOTH"
);
},
{
closed = 1;
nodes = (
"481 94 OFFCURVE",
"435 100 OFFCURVE",
"394 113 CURVE SMOOTH",
"311 137 OFFCURVE",
"244 203 OFFCURVE",
"244 299 CURVE SMOOTH",
"244 382 OFFCURVE",
"275 454 OFFCURVE",
"342 520 CURVE SMOOTH",
"409 586 OFFCURVE",
"457 621 OFFCURVE",
"556 685 CURVE",
"905 271 LINE",
"818 153 OFFCURVE",
"694 94 OFFCURVE",
"532 94 CURVE SMOOTH"
);
}
);
width = 1374;
}
);
leftKerningGroup = ampersand;
note = ampersand;
rightKerningGroup = ampersand;
unicode = 0026;
},
{
glyphname = quotesingle;
lastChange = "2017-12-10 12:53:03 +0000";
layers = (
{
layerId = "BF2BE0AA-9B99-4172-A7AC-368BFC5C7956";
paths = (
{
closed = 1;
nodes = (
"360 1442 LINE",
"244 1442 LINE",
"244 1042 LINE",
"360 1042 LINE"
);
}
);
width = 604;
}
);
leftKerningGroup = quotedbl;
note = quotesingle;
rightKerningGroup = quotedbl;
unicode = 0027;
},
{
glyphname = parenleft;
lastChange = "2017-12-10 12:53:03 +0000";
layers = (
{
layerId = "BF2BE0AA-9B99-4172-A7AC-368BFC5C7956";
paths = (
{
closed = 1;
nodes = (
"322 191 OFFCURVE",
"240 458 OFFCURVE",
"240 702 CURVE SMOOTH",
"240 955 OFFCURVE",
"325 1215 OFFCURVE",
"477 1419 CURVE",
"371 1419 LINE",
"214 1227 OFFCURVE",
"135 942 OFFCURVE",
"135 705 CURVE SMOOTH",
"135 477 OFFCURVE",
"230 151 OFFCURVE",
"373 -8 CURVE",
"475 -8 LINE"
);
}
);
width = 557;
}
);
leftKerningGroup = parenleft;
note = parenleft;
rightKerningGroup = parenleft;
unicode = 0028;
},
{
glyphname = parenright;
lastChange = "2017-12-10 12:53:03 +0000";
layers = (
{
layerId = "BF2BE0AA-9B99-4172-A7AC-368BFC5C7956";
paths = (
{
closed = 1;
nodes = (
"325 145 OFFCURVE",
"422 472 OFFCURVE",
"422 707 CURVE SMOOTH",
"422 956 OFFCURVE",
"343 1232 OFFCURVE",
"184 1419 CURVE",
"80 1419 LINE",
"223 1223 OFFCURVE",
"317 941 OFFCURVE",
"317 705 CURVE SMOOTH",
"317 469 OFFCURVE",
"231 191 OFFCURVE",
"82 -8 CURVE",
"184 -8 LINE"
);
}
);
width = 557;
}
);
leftKerningGroup = parenright;
note = parenright;
unicode = 0029;
},
{
glyphname = asterisk;
lastChange = "2017-12-10 12:53:03 +0000";
layers = (
{
layerId = "BF2BE0AA-9B99-4172-A7AC-368BFC5C7956";
paths = (
{
closed = 1;
nodes = (
"555 854 LINE",
"633 913 LINE",
"455 1120 LINE",
"711 1163 LINE",
"680 1262 LINE",
"444 1157 LINE",
"475 1413 LINE",
"383 1413 LINE",
"414 1157 LINE",
"178 1262 LINE",
"150 1163 LINE",
"403 1120 LINE",
"227 913 LINE",
"303 854 LINE",
"428 1092 LINE"
);
}
);
width = 860;
}
);
leftKerningGroup = asterisk;
note = asterisk;
rightKerningGroup = asterisk;
unicode = 002A;
},
{
glyphname = plus;
lastChange = "2017-12-10 12:53:03 +0000";
layers = (
{
layerId = "BF2BE0AA-9B99-4172-A7AC-368BFC5C7956";
paths = (
{
closed = 1;
nodes = (
"682 578 LINE",
"1139 578 LINE",
"1139 674 LINE",
"682 674 LINE",
"682 1143 LINE",
"586 1143 LINE",
"586 674 LINE",
"129 674 LINE",
"129 578 LINE",
"586 578 LINE",
"586 106 LINE",
"682 106 LINE"
);
}
);
width = 1268;
}
);
leftKerningGroup = plus;
note = plus;
rightKerningGroup = plus;
unicode = 002B;
},
{
glyphname = comma;
lastChange = "2017-12-10 12:59:48 +0000";
layers = (
{
layerId = "BF2BE0AA-9B99-4172-A7AC-368BFC5C7956";
paths = (
{
closed = 1;
nodes = (
"467 264 LINE",
"295 264 LINE",
"150 -332 LINE",
"225 -332 LINE"
);
}
);
width = 618;
}
);
note = comma;
unicode = 002C;
},
{
glyphname = hyphen;
lastChange = "2017-12-10 12:53:03 +0000";
layers = (
{
layerId = "BF2BE0AA-9B99-4172-A7AC-368BFC5C7956";
paths = (
{
closed = 1;
nodes = (
"662 692 LINE",
"166 692 LINE",
"166 596 LINE",
"662 596 LINE"
);
}
);
width = 827;
}
);
leftKerningGroup = hyphen;
note = hyphen;
rightKerningGroup = hyphen;
unicode = 002D;
},
{
glyphname = period;
lastChange = "2017-12-10 12:59:43 +0000";
layers = (
{
layerId = "BF2BE0AA-9B99-4172-A7AC-368BFC5C7956";
paths = (
{
closed = 1;
nodes = (
"426 176 LINE",
"240 176 LINE",
"240 0 LINE",
"426 0 LINE"
);
}
);
width = 666;
}
);
note = period;
unicode = 002E;
},
{
glyphname = slash;
lastChange = "2017-12-10 12:53:03 +0000";
layers = (
{
layerId = "BF2BE0AA-9B99-4172-A7AC-368BFC5C7956";
paths = (
{
closed = 1;
nodes = (
"903 1516 LINE",
"770 1516 LINE",
"23 -430 LINE",
"158 -430 LINE"
);
}
);
width = 926;
}
);
leftKerningGroup = slash;
note = slash;
rightKerningGroup = slash;
unicode = 002F;
},
{
glyphname = zero;
lastChange = "2017-12-10 12:54:47 +0000";
layers = (
{
layerId = "BF2BE0AA-9B99-4172-A7AC-368BFC5C7956";
paths = (
{
closed = 1;
nodes = (
"743 -20 OFFCURVE",
"875 67 OFFCURVE",
"956 203 CURVE SMOOTH",
"1036 339 OFFCURVE",
"1081 515 OFFCURVE",
"1081 702 CURVE SMOOTH",
"1081 891 OFFCURVE",
"1036 1069 OFFCURVE",
"953 1208 CURVE SMOOTH",
"870 1347 OFFCURVE",
"733 1436 OFFCURVE",
"569 1436 CURVE SMOOTH",
"518 1436 OFFCURVE",
"470 1428 OFFCURVE",
"425 1413 CURVE SMOOTH",
"336 1381 OFFCURVE",
"272 1326 OFFCURVE",
"218 1251 CURVE SMOOTH",
"164 1175 OFFCURVE",
"129 1089 OFFCURVE",
"105 993 CURVE SMOOTH",
"80 896 OFFCURVE",
"70 802 OFFCURVE",
"70 707 CURVE SMOOTH",
"70 596 OFFCURVE",
"86 488 OFFCURVE",
"118 377 CURVE SMOOTH",
"150 266 OFFCURVE",
"207 171 OFFCURVE",
"280 98 CURVE SMOOTH",
"353 25 OFFCURVE",
"460 -20 OFFCURVE",
"584 -20 CURVE SMOOTH"
);
},
{
closed = 1;
nodes = (
"522 100 OFFCURVE",
"472 113 OFFCURVE",
"428 140 CURVE SMOOTH",
"339 192 OFFCURVE",
"287 276 OFFCURVE",
"251 385 CURVE SMOOTH",
"214 494 OFFCURVE",
"201 599 OFFCURVE",
"201 707 CURVE SMOOTH",
"201 761 OFFCURVE",
"205 815 OFFCURVE",
"212 868 CURVE SMOOTH",
"227 974 OFFCURVE",
"264 1091 OFFCURVE",
"318 1172 CURVE SMOOTH",
"372 1253 OFFCURVE",
"461 1311 OFFCURVE",
"569 1311 CURVE SMOOTH",
"660 1311 OFFCURVE",
"738 1274 OFFCURVE",
"791 1211 CURVE SMOOTH",
"843 1148 OFFCURVE",
"884 1070 OFFCURVE",
"906 978 CURVE SMOOTH",
"928 885 OFFCURVE",
"938 798 OFFCURVE",
"938 709 CURVE SMOOTH",
"938 657 OFFCURVE",
"935 605 OFFCURVE",
"928 552 CURVE SMOOTH",
"914 446 OFFCURVE",
"877 328 OFFCURVE",
"825 244 CURVE SMOOTH",
"772 160 OFFCURVE",
"683 100 OFFCURVE",
"578 100 CURVE SMOOTH"
);
}
);
width = 1147;
}
);
note = zero;
unicode = 0030;
},
{
glyphname = one;
lastChange = "2017-12-10 12:55:14 +0000";
layers = (
{
layerId = "BF2BE0AA-9B99-4172-A7AC-368BFC5C7956";
paths = (
{
closed = 1;
nodes = (
"723 1413 LINE",
"602 1413 LINE",
"602 1389 LINE SMOOTH",
"602 1284 OFFCURVE",
"535 1208 OFFCURVE",
"422 1208 CURVE SMOOTH",
"209 1208 LINE",
"209 1100 LINE",
"588 1100 LINE",
"588 0 LINE",
"723 0 LINE"
);
}
);
width = 1147;
}
);
note = one;
unicode = 0031;
},
{
glyphname = two;
lastChange = "2017-12-10 12:55:32 +0000";
layers = (
{
layerId = "BF2BE0AA-9B99-4172-A7AC-368BFC5C7956";
paths = (
{
closed = 1;
nodes = (
"1040 111 LINE",
"256 111 LINE",
"258 112 OFFCURVE",
"270 120 OFFCURVE",
"291 134 CURVE SMOOTH",
"334 162 OFFCURVE",
"334 162 OFFCURVE",
"375 191 CURVE SMOOTH",
"416 220 OFFCURVE",
"439 240 OFFCURVE",
"484 279 CURVE SMOOTH",
"529 318 OFFCURVE",
"577 364 OFFCURVE",
"633 420 CURVE SMOOTH",
"868 656 OFFCURVE",
"971 827 OFFCURVE",
"971 1032 CURVE SMOOTH",
"971 1276 OFFCURVE",
"818 1432 OFFCURVE",
"565 1432 CURVE SMOOTH",
"306 1432 OFFCURVE",
"143 1273 OFFCURVE",
"143 977 CURVE",
"276 963 LINE",
"289 1183 OFFCURVE",
"399 1313 OFFCURVE",
"571 1313 CURVE SMOOTH",
"724 1313 OFFCURVE",
"827 1214 OFFCURVE",
"827 1030 CURVE SMOOTH",
"827 853 OFFCURVE",
"736 707 OFFCURVE",
"549 504 CURVE SMOOTH",
"508 461 OFFCURVE",
"476 427 OFFCURVE",
"452 403 CURVE SMOOTH",
"403 354 OFFCURVE",
"259 235 OFFCURVE",
"88 127 CURVE",
"88 0 LINE",
"1040 0 LINE"
);
}
);
width = 1147;
}
);
note = two;
rightKerningGroup = two;
unicode = 0032;
},
{
glyphname = three;
lastChange = "2017-12-10 12:56:58 +0000";
layers = (
{
layerId = "BF2BE0AA-9B99-4172-A7AC-368BFC5C7956";
paths = (
{
closed = 1;
nodes = (
"822 -20 OFFCURVE",
"1014 132 OFFCURVE",
"1014 397 CURVE",
"1010 573 OFFCURVE",
"926 709 OFFCURVE",
"762 760 CURVE",
"877 824 OFFCURVE",
"938 938 OFFCURVE",
"938 1073 CURVE SMOOTH",
"938 1293 OFFCURVE",
"770 1434 OFFCURVE",
"547 1434 CURVE SMOOTH",
"319 1434 OFFCURVE",
"154 1296 OFFCURVE",
"154 1075 CURVE",
"272 1059 LINE",
"273 1214 OFFCURVE",
"394 1317 OFFCURVE",
"547 1317 CURVE SMOOTH",
"695 1317 OFFCURVE",
"815 1217 OFFCURVE",
"815 1057 CURVE SMOOTH",
"815 901 OFFCURVE",
"717 809 OFFCURVE",
"569 809 CURVE SMOOTH",
"485 809 LINE",
"485 690 LINE",
"569 690 LINE SMOOTH",
"752 690 OFFCURVE",
"893 587 OFFCURVE",
"893 399 CURVE SMOOTH",
"893 302 OFFCURVE",
"850 219 OFFCURVE",
"786 170 CURVE SMOOTH",
"721 121 OFFCURVE",
"638 94 OFFCURVE",
"551 94 CURVE SMOOTH",
"490 94 OFFCURVE",
"434 106 OFFCURVE",
"383 129 CURVE SMOOTH",
"280 175 OFFCURVE",
"207 274 OFFCURVE",
"207 401 CURVE",
"86 387 LINE",
"86 299 OFFCURVE",
"107 224 OFFCURVE",
"149 162 CURVE SMOOTH",
"233 37 OFFCURVE",
"375 -20 OFFCURVE",
"551 -20 CURVE SMOOTH"
);
}
);
width = 1147;
}
);
note = three;
unicode = 0033;
},
{
glyphname = four;
lastChange = "2017-12-10 12:56:08 +0000";
layers = (
{
layerId = "BF2BE0AA-9B99-4172-A7AC-368BFC5C7956";
paths = (
{
closed = 1;
nodes = (
"836 393 LINE",
"1061 393 LINE",
"1061 504 LINE",
"836 504 LINE",
"836 1413 LINE",
"713 1413 LINE",
"53 469 LINE",
"53 393 LINE",
"705 393 LINE",
"705 0 LINE",
"836 0 LINE"
);
},
{
closed = 1;
nodes = (
"705 504 LINE",
"205 504 LINE",
"705 1210 LINE"
);
}
);
width = 1147;
}
);
note = four;
unicode = 0034;
},
{
glyphname = five;
lastChange = "2017-12-10 12:56:14 +0000";
layers = (
{
layerId = "BF2BE0AA-9B99-4172-A7AC-368BFC5C7956";
paths = (
{
closed = 1;
nodes = (
"660 -20 OFFCURVE",
"740 2 OFFCURVE",
"811 46 CURVE SMOOTH",
"953 133 OFFCURVE",
"1032 285 OFFCURVE",
"1032 457 CURVE SMOOTH",
"1032 538 OFFCURVE",
"1015 613 OFFCURVE",
"981 682 CURVE SMOOTH",
"912 819 OFFCURVE",
"772 911 OFFCURVE",
"600 911 CURVE SMOOTH",
"477 911 OFFCURVE",
"380 872 OFFCURVE",
"311 795 CURVE",
"393 1298 LINE",
"969 1298 LINE",
"969 1413 LINE",
"293 1413 LINE",
"172 709 LINE",
"285 643 LINE",
"348 744 OFFCURVE",
"459 805 OFFCURVE",
"584 805 CURVE SMOOTH",
"685 805 OFFCURVE",
"768 764 OFFCURVE",
"817 698 CURVE SMOOTH",
"866 632 OFFCURVE",
"893 548 OFFCURVE",
"893 457 CURVE SMOOTH",
"893 365 OFFCURVE",
"867 278 OFFCURVE",
"816 207 CURVE SMOOTH",
"764 136 OFFCURVE",
"675 90 OFFCURVE",
"567 90 CURVE SMOOTH",
"463 90 OFFCURVE",
"380 131 OFFCURVE",
"331 196 CURVE SMOOTH",
"282 261 OFFCURVE",
"256 326 OFFCURVE",
"240 406 CURVE",
"123 362 LINE",
"172 138 OFFCURVE",
"340 -20 OFFCURVE",
"571 -20 CURVE SMOOTH"
);
}
);
width = 1147;
}
);
note = five;
unicode = 0035;
},
{
glyphname = six;
lastChange = "2017-12-10 12:56:20 +0000";
layers = (
{
layerId = "BF2BE0AA-9B99-4172-A7AC-368BFC5C7956";
paths = (
{
closed = 1;
nodes = (
"666 -20 OFFCURVE",
"744 2 OFFCURVE",
"815 45 CURVE SMOOTH",
"955 132 OFFCURVE",
"1034 282 OFFCURVE",
"1034 446 CURVE SMOOTH",
"1034 701 OFFCURVE",
"836 889 OFFCURVE",
"580 889 CURVE SMOOTH",
"529 889 OFFCURVE",
"479 883 OFFCURVE",
"430 872 CURVE",
"743 1413 LINE",
"600 1413 LINE",
"190 688 LINE SMOOTH",
"147 612 OFFCURVE",
"125 531 OFFCURVE",
"125 444 CURVE SMOOTH",
"125 360 OFFCURVE",
"145 282 OFFCURVE",
"186 211 CURVE SMOOTH",
"266 68 OFFCURVE",
"413 -20 OFFCURVE",
"580 -20 CURVE SMOOTH"
);
},
{
closed = 1;
nodes = (
"284 268 OFFCURVE",
"252 349 OFFCURVE",
"252 444 CURVE SMOOTH",
"252 636 OFFCURVE",
"397 791 OFFCURVE",
"580 791 CURVE SMOOTH",
"761 791 OFFCURVE",
"907 636 OFFCURVE",
"907 444 CURVE SMOOTH",
"907 255 OFFCURVE",
"761 98 OFFCURVE",
"580 98 CURVE SMOOTH",
"489 98 OFFCURVE",
"412 132 OFFCURVE",
"348 200 CURVE SMOOTH"
);
}
);
width = 1147;
}
);
note = six;
unicode = 0036;
},
{
glyphname = seven;
lastChange = "2017-12-10 12:56:35 +0000";
layers = (
{
layerId = "BF2BE0AA-9B99-4172-A7AC-368BFC5C7956";
paths = (
{
closed = 1;
nodes = (
"1028 1348 LINE",
"1028 1413 LINE",
"109 1413 LINE",
"109 1298 LINE",
"877 1298 LINE",
"276 0 LINE",
"424 0 LINE"
);
}
);
width = 1147;
}
);
note = seven;
unicode = 0037;
},
{
glyphname = eight;
lastChange = "2017-12-10 12:56:32 +0000";
layers = (
{
layerId = "BF2BE0AA-9B99-4172-A7AC-368BFC5C7956";
paths = (
{
closed = 1;
nodes = (
"659 -20 OFFCURVE",
"736 -5 OFFCURVE",
"805 24 CURVE SMOOTH",
"942 82 OFFCURVE",
"1036 210 OFFCURVE",
"1036 385 CURVE SMOOTH",
"1036 561 OFFCURVE",
"943 698 OFFCURVE",
"780 762 CURVE",
"899 825 OFFCURVE",
"965 939 OFFCURVE",
"965 1075 CURVE SMOOTH",
"965 1149 OFFCURVE",
"947 1214 OFFCURVE",
"912 1269 CURVE SMOOTH",
"840 1379 OFFCURVE",
"719 1434 OFFCURVE",
"575 1434 CURVE SMOOTH",
"502 1434 OFFCURVE",
"437 1420 OFFCURVE",
"378 1393 CURVE SMOOTH",
"261 1337 OFFCURVE",
"182 1223 OFFCURVE",
"182 1075 CURVE SMOOTH",
"182 940 OFFCURVE",
"252 823 OFFCURVE",
"371 762 CURVE",
"203 694 OFFCURVE",
"111 561 OFFCURVE",
"111 385 CURVE SMOOTH",
"111 254 OFFCURVE",
"163 146 OFFCURVE",
"248 81 CURVE SMOOTH",
"333 16 OFFCURVE",
"446 -20 OFFCURVE",
"573 -20 CURVE SMOOTH"
);
},
{
closed = 1;
nodes = (
"421 799 OFFCURVE",
"313 908 OFFCURVE",
"313 1071 CURVE SMOOTH",
"313 1224 OFFCURVE",
"438 1321 OFFCURVE",
"578 1321 CURVE SMOOTH",
"726 1321 OFFCURVE",
"842 1221 OFFCURVE",
"842 1057 CURVE SMOOTH",
"842 902 OFFCURVE",
"727 799 OFFCURVE",
"580 799 CURVE SMOOTH"
);
},
{
closed = 1;
nodes = (
"412 121 OFFCURVE",
"376 140 OFFCURVE",
"345 165 CURVE SMOOTH",
"281 215 OFFCURVE",
"240 297 OFFCURVE",
"240 397 CURVE SMOOTH",
"240 588 OFFCURVE",
"386 705 OFFCURVE",
"573 705 CURVE SMOOTH",
"757 705 OFFCURVE",
"903 588 OFFCURVE",
"903 397 CURVE SMOOTH",
"903 297 OFFCURVE",
"864 215 OFFCURVE",
"801 165 CURVE SMOOTH",
"738 115 OFFCURVE",
"658 88 OFFCURVE",
"573 88 CURVE SMOOTH",
"530 88 OFFCURVE",
"490 95 OFFCURVE",
"451 108 CURVE SMOOTH"
);
}
);
width = 1147;
}
);
note = eight;
unicode = 0038;
},
{
glyphname = nine;
lastChange = "2017-12-10 12:56:43 +0000";
layers = (
{
layerId = "BF2BE0AA-9B99-4172-A7AC-368BFC5C7956";
paths = (
{
closed = 1;
nodes = (
"958 725 LINE SMOOTH",
"1001 802 OFFCURVE",
"1022 883 OFFCURVE",
"1022 969 CURVE SMOOTH",
"1022 1053 OFFCURVE",
"1002 1131 OFFCURVE",
"962 1202 CURVE SMOOTH",
"882 1345 OFFCURVE",
"734 1434 OFFCURVE",
"569 1434 CURVE SMOOTH",
"482 1434 OFFCURVE",
"404 1412 OFFCURVE",
"333 1369 CURVE SMOOTH",
"192 1281 OFFCURVE",
"113 1131 OFFCURVE",
"113 967 CURVE SMOOTH",
"113 715 OFFCURVE",
"311 524 OFFCURVE",
"567 524 CURVE SMOOTH",
"620 524 OFFCURVE",
"670 530 OFFCURVE",
"717 541 CURVE",
"408 0 LINE",
"547 0 LINE"
);
},
{
closed = 1;
nodes = (
"386 623 OFFCURVE",
"240 777 OFFCURVE",
"240 969 CURVE SMOOTH",
"240 1158 OFFCURVE",
"386 1315 OFFCURVE",
"567 1315 CURVE SMOOTH",
"748 1315 OFFCURVE",
"895 1158 OFFCURVE",
"895 969 CURVE SMOOTH",
"895 777 OFFCURVE",
"750 623 OFFCURVE",
"567 623 CURVE SMOOTH"
);
}
);
width = 1147;
}
);
note = nine;
unicode = 0039;
},
{
glyphname = colon;
lastChange = "2017-12-10 12:53:03 +0000";
layers = (
{
layerId = "BF2BE0AA-9B99-4172-A7AC-368BFC5C7956";
paths = (
{
closed = 1;
nodes = (
"424 954 LINE",
"246 954 LINE",
"246 778 LINE",
"424 778 LINE"
);
},
{
closed = 1;
nodes = (
"424 176 LINE",
"246 176 LINE",
"246 0 LINE",
"424 0 LINE"
);
}
);
width = 670;
}
);
leftKerningGroup = colon;
note = colon;
rightKerningGroup = colon;
unicode = 003A;
},
{
glyphname = semicolon;
lastChange = "2017-12-10 12:53:03 +0000";
layers = (
{
layerId = "BF2BE0AA-9B99-4172-A7AC-368BFC5C7956";
paths = (
{
closed = 1;
nodes = (
"438 954 LINE",
"260 954 LINE",
"260 778 LINE",
"438 778 LINE"
);
},
{
closed = 1;
nodes = (
"449 264 LINE",
"277 264 LINE",
"132 -332 LINE",
"207 -332 LINE"
);
}
);
width = 649;
}
);
leftKerningGroup = colon;
note = semicolon;
rightKerningGroup = colon;
unicode = 003B;
},
{
glyphname = less;
lastChange = "2017-12-10 12:53:03 +0000";
layers = (
{
layerId = "BF2BE0AA-9B99-4172-A7AC-368BFC5C7956";
paths = (
{
closed = 1;
nodes = (
"330 674 LINE",
"1053 1071 LINE",
"993 1174 LINE",
"117 674 LINE",
"993 174 LINE",
"1053 276 LINE"
);
}
);
width = 1204;
}
);
leftKerningGroup = less;
note = less;
rightKerningGroup = less;
unicode = 003C;
},
{
glyphname = equal;
lastChange = "2017-12-10 12:53:03 +0000";
layers = (
{
layerId = "BF2BE0AA-9B99-4172-A7AC-368BFC5C7956";
paths = (
{
closed = 1;
nodes = (
"1001 899 LINE",
"260 899 LINE",
"260 780 LINE",
"1001 780 LINE"
);
},
{
closed = 1;
nodes = (
"1001 563 LINE",
"260 563 LINE",
"260 444 LINE",
"1001 444 LINE"
);
}
);
width = 1262;
}
);
leftKerningGroup = equal;
note = equal;
rightKerningGroup = equal;
unicode = 003D;
},
{
glyphname = greater;
lastChange = "2017-12-10 12:53:03 +0000";
layers = (
{
layerId = "BF2BE0AA-9B99-4172-A7AC-368BFC5C7956";
paths = (
{
closed = 1;
nodes = (
"211 1174 LINE",
"152 1071 LINE",
"874 674 LINE",
"152 276 LINE",
"211 174 LINE",
"1087 674 LINE"
);
}
);
width = 1204;
}
);
leftKerningGroup = greater;
note = greater;
rightKerningGroup = greater;
unicode = 003E;
},
{
glyphname = question;
lastChange = "2017-12-10 12:53:03 +0000";
layers = (
{
layerId = "BF2BE0AA-9B99-4172-A7AC-368BFC5C7956";
paths = (
{
closed = 1;
nodes = (
"565 612 LINE SMOOTH",
"565 639 OFFCURVE",
"571 664 OFFCURVE",
"584 685 CURVE SMOOTH",
"609 727 OFFCURVE",
"650 752 OFFCURVE",
"699 778 CURVE SMOOTH",
"747 804 OFFCURVE",
"798 836 OFFCURVE",
"838 877 CURVE SMOOTH",
"877 918 OFFCURVE",
"905 990 OFFCURVE",
"905 1079 CURVE SMOOTH",
"905 1154 OFFCURVE",
"886 1218 OFFCURVE",
"849 1273 CURVE SMOOTH",
"774 1382 OFFCURVE",
"650 1434 OFFCURVE",
"498 1434 CURVE SMOOTH",
"429 1434 OFFCURVE",
"364 1420 OFFCURVE",
"305 1392 CURVE SMOOTH",
"186 1335 OFFCURVE",
"105 1220 OFFCURVE",
"104 1079 CURVE",
"231 1079 LINE",
"232 1227 OFFCURVE",
"359 1319 OFFCURVE",
"506 1319 CURVE SMOOTH",
"666 1319 OFFCURVE",
"780 1237 OFFCURVE",
"780 1081 CURVE SMOOTH",
"780 1002 OFFCURVE",
"753 945 OFFCURVE",
"714 911 CURVE SMOOTH",
"674 877 OFFCURVE",
"625 851 OFFCURVE",
"578 824 CURVE SMOOTH",
"554 811 OFFCURVE",
"532 796 OFFCURVE",
"513 779 CURVE",
"473 746 OFFCURVE",
"446 690 OFFCURVE",
"446 614 CURVE SMOOTH",
"446 365 LINE",
"565 365 LINE"
);
},
{
closed = 1;
nodes = (
"598 176 LINE",
"420 176 LINE",
"420 0 LINE",
"598 0 LINE"
);
}
);
width = 1026;
}
);
leftKerningGroup = question;
note = question;
rightKerningGroup = question;
unicode = 003F;
},
{
glyphname = at;
lastChange = "2017-12-10 12:53:03 +0000";
layers = (
{
layerId = "BF2BE0AA-9B99-4172-A7AC-368BFC5C7956";
paths = (
{
closed = 1;
nodes = (
"1136 -348 OFFCURVE",
"1236 -331 OFFCURVE",
"1333 -297 CURVE",
"1284 -172 LINE",
"1203 -198 OFFCURVE",
"1119 -211 OFFCURVE",
"1034 -211 CURVE SMOOTH",
"831 -211 OFFCURVE",
"648 -144 OFFCURVE",
"513 -24 CURVE SMOOTH",
"377 96 OFFCURVE",
"293 289 OFFCURVE",
"293 518 CURVE SMOOTH",
"293 665 OFFCURVE",
"324 799 OFFCURVE",
"386 918 CURVE SMOOTH",
"509 1156 OFFCURVE",
"752 1305 OFFCURVE",
"1053 1305 CURVE SMOOTH",
"1270 1305 OFFCURVE",
"1460 1226 OFFCURVE",
"1588 1095 CURVE SMOOTH",
"1715 964 OFFCURVE",
"1790 776 OFFCURVE",
"1790 565 CURVE SMOOTH",
"1790 493 OFFCURVE",
"1782 425 OFFCURVE",
"1763 353 CURVE SMOOTH",
"1744 280 OFFCURVE",
"1710 219 OFFCURVE",
"1665 171 CURVE SMOOTH",
"1620 123 OFFCURVE",
"1551 94 OFFCURVE",
"1470 94 CURVE SMOOTH",
"1371 94 OFFCURVE",
"1335 135 OFFCURVE",
"1335 246 CURVE SMOOTH",
"1335 359 OFFCURVE",
"1377 553 OFFCURVE",
"1430 766 CURVE SMOOTH",
"1457 872 OFFCURVE",
"1474 944 OFFCURVE",
"1481 983 CURVE",
"1343 983 LINE",
"1313 829 LINE",
"1292 952 OFFCURVE",
"1183 1032 OFFCURVE",
"1042 1032 CURVE SMOOTH",
"987 1032 OFFCURVE",
"935 1020 OFFCURVE",
"886 996 CURVE SMOOTH",
"787 947 OFFCURVE",
"718 864 OFFCURVE",
"666 762 CURVE SMOOTH",
"613 660 OFFCURVE",
"586 545 OFFCURVE",
"586 440 CURVE SMOOTH",
"586 229 OFFCURVE",
"696 72 OFFCURVE",
"893 72 CURVE SMOOTH",
"1018 72 OFFCURVE",
"1141 133 OFFCURVE",
"1217 236 CURVE",
"1188 63 OFFCURVE",
"1292 -47 OFFCURVE",
"1479 -47 CURVE SMOOTH",
"1539 -47 OFFCURVE",
"1594 -35 OFFCURVE",
"1644 -12 CURVE SMOOTH",
"1744 34 OFFCURVE",
"1809 113 OFFCURVE",
"1855 218 CURVE SMOOTH",
"1901 322 OFFCURVE",
"1921 439 OFFCURVE",
"1921 563 CURVE SMOOTH",
"1921 810 OFFCURVE",
"1832 1031 OFFCURVE",
"1681 1185 CURVE SMOOTH",
"1530 1339 OFFCURVE",
"1306 1432 OFFCURVE",
"1053 1432 CURVE SMOOTH",
"878 1432 OFFCURVE",
"723 1392 OFFCURVE",
"587 1311 CURVE SMOOTH",
"314 1149 OFFCURVE",
"162 858 OFFCURVE",
"162 514 CURVE SMOOTH",
"162 249 OFFCURVE",
"260 22 OFFCURVE",
"419 -122 CURVE SMOOTH",
"578 -266 OFFCURVE",
"793 -348 OFFCURVE",
"1032 -348 CURVE SMOOTH"
);
},
{
closed = 1;
nodes = (
"776 209 OFFCURVE",
"711 295 OFFCURVE",
"711 438 CURVE SMOOTH",
"711 477 OFFCURVE",
"716 518 OFFCURVE",
"725 559 CURVE SMOOTH",
"744 642 OFFCURVE",
"785 726 OFFCURVE",
"839 790 CURVE SMOOTH",
"893 853 OFFCURVE",
"975 895 OFFCURVE",
"1067 895 CURVE SMOOTH",
"1202 895 OFFCURVE",
"1266 811 OFFCURVE",
"1266 668 CURVE SMOOTH",
"1266 569 OFFCURVE",
"1235 460 OFFCURVE",
"1179 368 CURVE SMOOTH",
"1122 275 OFFCURVE",
"1024 209 OFFCURVE",
"911 209 CURVE SMOOTH"
);
}
);
width = 2079;
}
);
leftKerningGroup = at;
note = at;
rightKerningGroup = at;
unicode = 0040;
},
{
glyphname = A;
lastChange = "2017-12-10 12:53:03 +0000";
layers = (
{
layerId = "BF2BE0AA-9B99-4172-A7AC-368BFC5C7956";
paths = (
{
closed = 1;
nodes = (
"330 307 LINE",
"969 307 LINE",
"1077 0 LINE",
"1221 0 LINE",
"702 1413 LINE",
"598 1413 LINE",
"76 0 LINE",
"223 0 LINE"
);
},
{
closed = 1;
nodes = (
"924 434 LINE",
"375 434 LINE",
"651 1214 LINE"
);
}
);
width = 1296;
}
);
leftKerningGroup = A;
note = A;
rightKerningGroup = A;
unicode = 0041;
},
{
glyphname = B;
lastChange = "2017-12-10 12:53:03 +0000";
layers = (
{
layerId = "BF2BE0AA-9B99-4172-A7AC-368BFC5C7956";
paths = (
{
closed = 1;
nodes = (
"708 0 OFFCURVE",
"752 4 OFFCURVE",
"793 11 CURVE SMOOTH",
"875 25 OFFCURVE",
"958 60 OFFCURVE",
"1015 115 CURVE SMOOTH",
"1071 170 OFFCURVE",
"1108 258 OFFCURVE",
"1108 369 CURVE SMOOTH",
"1108 472 OFFCURVE",
"1083 553 OFFCURVE",
"1035 612 CURVE SMOOTH",
"986 671 OFFCURVE",
"930 709 OFFCURVE",
"850 745 CURVE",
"970 817 OFFCURVE",
"1038 915 OFFCURVE",
"1038 1071 CURVE SMOOTH",
"1038 1191 OFFCURVE",
"984 1284 OFFCURVE",
"897 1336 CURVE SMOOTH",
"810 1388 OFFCURVE",
"706 1413 OFFCURVE",
"586 1413 CURVE SMOOTH",
"219 1413 LINE",
"219 0 LINE",
"662 0 LINE SMOOTH"
);
},
{
closed = 1;
nodes = (
"588 1292 LINE SMOOTH",
"623 1292 OFFCURVE",
"654 1290 OFFCURVE",
"682 1286 CURVE SMOOTH",
"738 1278 OFFCURVE",
"795 1257 OFFCURVE",
"831 1222 CURVE SMOOTH",
"867 1186 OFFCURVE",
"891 1126 OFFCURVE",
"891 1049 CURVE SMOOTH",
"891 870 OFFCURVE",
"764 778 OFFCURVE",
"580 778 CURVE SMOOTH",
"350 778 LINE",
"350 1292 LINE"
);
},
{
closed = 1;
nodes = (
"672 655 LINE SMOOTH",
"874 655 OFFCURVE",
"975 561 OFFCURVE",
"975 373 CURVE SMOOTH",
"975 206 OFFCURVE",
"872 123 OFFCURVE",
"666 123 CURVE SMOOTH",
"350 123 LINE",
"350 655 LINE"
);
}
);
width = 1235;
}
);
leftKerningGroup = B;
note = B;
rightKerningGroup = B;
unicode = 0042;
},
{
glyphname = C;
lastChange = "2017-12-10 12:53:03 +0000";
layers = (
{
layerId = "BF2BE0AA-9B99-4172-A7AC-368BFC5C7956";
paths = (
{
closed = 1;
nodes = (
"1019 -20 OFFCURVE",
"1216 113 OFFCURVE",
"1321 350 CURVE",
"1198 406 LINE",
"1172 333 OFFCURVE",
"1136 273 OFFCURVE",
"1089 227 CURVE SMOOTH",
"996 134 OFFCURVE",
"892 102 OFFCURVE",
"764 102 CURVE SMOOTH",
"695 102 OFFCURVE",
"632 113 OFFCURVE",
"576 135 CURVE SMOOTH",
"464 179 OFFCURVE",
"392 254 OFFCURVE",
"341 359 CURVE SMOOTH",
"289 463 OFFCURVE",
"268 579 OFFCURVE",
"268 711 CURVE SMOOTH",
"268 776 OFFCURVE",
"274 837 OFFCURVE",
"285 895 CURVE SMOOTH",
"307 1010 OFFCURVE",
"357 1117 OFFCURVE",
"432 1192 CURVE SMOOTH",
"507 1267 OFFCURVE",
"621 1313 OFFCURVE",
"760 1313 CURVE SMOOTH",
"855 1313 OFFCURVE",
"940 1293 OFFCURVE",
"1021 1249 CURVE SMOOTH",
"1102 1205 OFFCURVE",
"1167 1121 OFFCURVE",
"1196 1012 CURVE",
"1319 1067 LINE",
"1228 1313 OFFCURVE",
"1045 1436 OFFCURVE",
"768 1436 CURVE SMOOTH",
"681 1436 OFFCURVE",
"603 1423 OFFCURVE",
"532 1398 CURVE SMOOTH",
"390 1347 OFFCURVE",
"296 1258 OFFCURVE",
"230 1135 CURVE SMOOTH",
"164 1012 OFFCURVE",
"135 871 OFFCURVE",
"135 711 CURVE SMOOTH",
"135 630 OFFCURVE",
"143 553 OFFCURVE",
"159 481 CURVE SMOOTH",
"190 336 OFFCURVE",
"257 210 OFFCURVE",
"353 122 CURVE SMOOTH",
"449 33 OFFCURVE",
"588 -20 OFFCURVE",
"752 -20 CURVE SMOOTH"
);
}
);
width = 1417;
}
);
leftKerningGroup = C;
note = C;
rightKerningGroup = C;
unicode = 0043;
},
{
glyphname = D;
lastChange = "2017-12-10 12:53:03 +0000";
layers = (
{
layerId = "BF2BE0AA-9B99-4172-A7AC-368BFC5C7956";
paths = (
{
closed = 1;
nodes = (
"1017 0 OFFCURVE",
"1274 251 OFFCURVE",
"1274 696 CURVE SMOOTH",
"1274 1160 OFFCURVE",
"1022 1413 OFFCURVE",
"567 1413 CURVE SMOOTH",
"219 1413 LINE",
"219 0 LINE",
"565 0 LINE SMOOTH"
);
},
{
closed = 1;
nodes = (
"563 1294 LINE SMOOTH",
"939 1294 OFFCURVE",
"1139 1083 OFFCURVE",
"1139 707 CURVE SMOOTH",
"1139 514 OFFCURVE",
"1073 358 OFFCURVE",
"965 265 CURVE SMOOTH",
"856 172 OFFCURVE",
"710 123 OFFCURVE",
"541 123 CURVE SMOOTH",
"354 123 LINE",
"354 1294 LINE"
);
}
);
width = 1405;
}
);
leftKerningGroup = B;
note = D;
rightKerningGroup = D;
unicode = 0044;
},
{
glyphname = E;
lastChange = "2017-12-10 12:53:03 +0000";
layers = (
{
layerId = "BF2BE0AA-9B99-4172-A7AC-368BFC5C7956";
paths = (
{
closed = 1;
nodes = (
"1128 121 LINE",
"354 121 LINE",
"354 653 LINE",
"1016 653 LINE",
"1016 762 LINE",
"354 762 LINE",
"354 1300 LINE",
"1128 1300 LINE",
"1128 1413 LINE",
"219 1413 LINE",
"219 0 LINE",
"1128 0 LINE"
);
}
);
width = 1237;
}
);
leftKerningGroup = B;
note = E;
rightKerningGroup = E;
unicode = 0045;
},
{
glyphname = F;
lastChange = "2017-12-10 12:53:03 +0000";
layers = (
{
layerId = "BF2BE0AA-9B99-4172-A7AC-368BFC5C7956";
paths = (
{
closed = 1;
nodes = (
"354 653 LINE",
"1014 653 LINE",
"1014 762 LINE",
"354 762 LINE",
"354 1300 LINE",
"1102 1300 LINE",
"1102 1413 LINE",
"219 1413 LINE",
"219 0 LINE",
"354 0 LINE"
);
}
);
width = 1186;
}
);
leftKerningGroup = B;
note = F;
rightKerningGroup = F;
unicode = 0046;
},
{
glyphname = G;
lastChange = "2017-12-10 12:53:03 +0000";
layers = (
{
layerId = "BF2BE0AA-9B99-4172-A7AC-368BFC5C7956";
paths = (
{
closed = 1;
nodes = (
"995 -20 OFFCURVE",
"1174 112 OFFCURVE",
"1231 272 CURVE",
"1227 0 LINE",
"1341 0 LINE",
"1341 702 LINE",
"893 702 LINE",
"893 598 LINE",
"1217 598 LINE",
"1217 443 OFFCURVE",
"1165 314 OFFCURVE",
"1081 234 CURVE SMOOTH",
"997 153 OFFCURVE",
"885 109 OFFCURVE",
"758 109 CURVE SMOOTH",
"590 109 OFFCURVE",
"458 178 OFFCURVE",
"382 292 CURVE SMOOTH",
"306 406 OFFCURVE",
"268 549 OFFCURVE",
"268 717 CURVE SMOOTH",
"268 877 OFFCURVE",
"306 1016 OFFCURVE",
"382 1127 CURVE SMOOTH",
"457 1238 OFFCURVE",
"587 1305 OFFCURVE",
"754 1305 CURVE SMOOTH",
"953 1305 OFFCURVE",
"1099 1207 OFFCURVE",
"1194 1012 CURVE",
"1319 1067 LINE",
"1212 1307 OFFCURVE",
"1017 1436 OFFCURVE",
"756 1436 CURVE SMOOTH",
"552 1436 OFFCURVE",
"387 1354 OFFCURVE",
"287 1219 CURVE SMOOTH",
"187 1084 OFFCURVE",
"135 908 OFFCURVE",
"135 707 CURVE SMOOTH",
"135 504 OFFCURVE",
"186 330 OFFCURVE",
"286 196 CURVE SMOOTH",
"385 62 OFFCURVE",
"550 -20 OFFCURVE",
"758 -20 CURVE SMOOTH"
);
}
);
width = 1503;
}
);
leftKerningGroup = C;
note = G;
rightKerningGroup = G;
unicode = 0047;
},
{
glyphname = H;
lastChange = "2017-12-10 12:53:03 +0000";
layers = (
{
layerId = "BF2BE0AA-9B99-4172-A7AC-368BFC5C7956";
paths = (
{
closed = 1;
nodes = (
"354 653 LINE",
"1092 653 LINE",
"1092 0 LINE",
"1227 0 LINE",
"1227 1413 LINE",
"1092 1413 LINE",
"1092 762 LINE",
"354 762 LINE",
"354 1413 LINE",
"219 1413 LINE",
"219 0 LINE",
"354 0 LINE"
);
}
);
width = 1446;
}
);
leftKerningGroup = B;
note = H;
rightKerningGroup = H;
unicode = 0048;
},
{
glyphname = I;
lastChange = "2017-12-10 12:53:03 +0000";
layers = (
{
layerId = "BF2BE0AA-9B99-4172-A7AC-368BFC5C7956";
paths = (
{
closed = 1;
nodes = (
"354 1413 LINE",
"219 1413 LINE",
"219 0 LINE",
"354 0 LINE"
);
}
);
width = 573;
}
);
leftKerningGroup = B;
note = I;
rightKerningGroup = H;
unicode = 0049;
},
{
glyphname = J;
lastChange = "2017-12-10 12:53:03 +0000";
layers = (
{
layerId = "BF2BE0AA-9B99-4172-A7AC-368BFC5C7956";
paths = (
{
closed = 1;
nodes = (
"777 -20 OFFCURVE",
"918 153 OFFCURVE",
"918 500 CURVE SMOOTH",
"918 1413 LINE",
"250 1413 LINE",
"250 1300 LINE",
"782 1300 LINE",
"782 479 LINE SMOOTH",
"782 434 OFFCURVE",
"780 395 OFFCURVE",
"776 360 CURVE SMOOTH",
"767 290 OFFCURVE",
"741 216 OFFCURVE",
"700 171 CURVE SMOOTH",
"659 126 OFFCURVE",
"589 96 OFFCURVE",
"496 96 CURVE SMOOTH",
"404 96 OFFCURVE",
"329 134 OFFCURVE",
"286 194 CURVE SMOOTH",
"242 254 OFFCURVE",
"218 324 OFFCURVE",
"213 403 CURVE",
"82 385 LINE",
"99 150 OFFCURVE",
"253 -20 OFFCURVE",
"496 -20 CURVE SMOOTH"
);
}
);
width = 1114;
}
);
leftKerningGroup = J;
note = J;
rightKerningGroup = J;
unicode = 004A;
},
{
glyphname = K;
lastChange = "2017-12-10 12:53:03 +0000";
layers = (
{
layerId = "BF2BE0AA-9B99-4172-A7AC-368BFC5C7956";
paths = (
{
closed = 1;
nodes = (
"354 395 LINE",
"715 768 LINE",
"1208 0 LINE",
"1368 0 LINE",
"803 862 LINE",
"1329 1413 LINE",
"1159 1413 LINE",
"354 561 LINE",
"354 1413 LINE",
"219 1413 LINE",
"219 0 LINE",
"354 0 LINE"
);
}
);
width = 1442;
}
);
leftKerningGroup = B;
note = K;
rightKerningGroup = K;
unicode = 004B;
},
{
glyphname = L;
lastChange = "2017-12-10 12:53:03 +0000";
layers = (
{
layerId = "BF2BE0AA-9B99-4172-A7AC-368BFC5C7956";
paths = (
{
closed = 1;
nodes = (
"958 121 LINE",
"354 121 LINE",
"354 1413 LINE",
"219 1413 LINE",
"219 0 LINE",
"958 0 LINE"
);
}
);
width = 1030;
}
);
leftKerningGroup = B;
note = L;
rightKerningGroup = L;
unicode = 004C;
},
{
glyphname = M;
lastChange = "2017-12-10 12:53:03 +0000";
layers = (
{
layerId = "BF2BE0AA-9B99-4172-A7AC-368BFC5C7956";
paths = (
{
closed = 1;
nodes = (
"356 1331 LINE",
"799 123 LINE",
"954 123 LINE",
"1399 1331 LINE",
"1399 0 LINE",
"1534 0 LINE",
"1534 1413 LINE",
"1296 1413 LINE",
"872 246 LINE",
"457 1413 LINE",
"219 1413 LINE",
"219 0 LINE",
"356 0 LINE"
);
}
);
width = 1753;
}
);
leftKerningGroup = B;
note = M;
rightKerningGroup = H;
unicode = 004D;
},
{
glyphname = N;
lastChange = "2017-12-10 12:53:03 +0000";
layers = (
{
layerId = "BF2BE0AA-9B99-4172-A7AC-368BFC5C7956";
paths = (
{
closed = 1;
nodes = (
"356 1311 LINE",
"963 0 LINE",
"1190 0 LINE",
"1190 1413 LINE",
"1055 1413 LINE",
"1055 104 LINE",
"442 1413 LINE",
"219 1413 LINE",
"219 0 LINE",
"356 0 LINE"
);
}
);
width = 1409;
}
);
leftKerningGroup = B;
note = N;
rightKerningGroup = H;
unicode = 004E;
},
{
glyphname = O;
lastChange = "2017-12-10 12:53:03 +0000";
layers = (
{
layerId = "BF2BE0AA-9B99-4172-A7AC-368BFC5C7956";
paths = (
{
closed = 1;
nodes = (
"837 -20 OFFCURVE",
"913 -7 OFFCURVE",
"982 18 CURVE SMOOTH",
"1120 69 OFFCURVE",
"1213 158 OFFCURVE",
"1280 281 CURVE SMOOTH",
"1347 404 OFFCURVE",
"1378 547 OFFCURVE",
"1378 707 CURVE SMOOTH",
"1378 786 OFFCURVE",
"1370 862 OFFCURVE",
"1354 934 CURVE SMOOTH",
"1322 1077 OFFCURVE",
"1254 1203 OFFCURVE",
"1158 1292 CURVE SMOOTH",
"1061 1380 OFFCURVE",
"919 1434 OFFCURVE",
"754 1434 CURVE SMOOTH",
"672 1434 OFFCURVE",
"597 1421 OFFCURVE",
"529 1396 CURVE SMOOTH",
"392 1345 OFFCURVE",
"298 1255 OFFCURVE",
"231 1133 CURVE SMOOTH",
"164 1011 OFFCURVE",
"133 866 OFFCURVE",
"133 707 CURVE SMOOTH",
"133 507 OFFCURVE",
"185 331 OFFCURVE",
"285 197 CURVE SMOOTH",
"385 63 OFFCURVE",
"550 -20 OFFCURVE",
"754 -20 CURVE SMOOTH"
);
},
{
closed = 1;
nodes = (
"687 106 OFFCURVE",
"625 117 OFFCURVE",
"570 139 CURVE SMOOTH",
"458 182 OFFCURVE",
"386 258 OFFCURVE",
"334 361 CURVE SMOOTH",
"282 464 OFFCURVE",
"260 579 OFFCURVE",
"260 707 CURVE SMOOTH",
"260 770 OFFCURVE",
"266 831 OFFCURVE",
"278 889 CURVE SMOOTH",
"301 1004 OFFCURVE",
"354 1110 OFFCURVE",
"430 1186 CURVE SMOOTH",
"505 1261 OFFCURVE",
"619 1307 OFFCURVE",
"754 1307 CURVE SMOOTH",
"823 1307 OFFCURVE",
"885 1296 OFFCURVE",
"942 1275 CURVE SMOOTH",
"1054 1231 OFFCURVE",
"1127 1155 OFFCURVE",
"1179 1052 CURVE SMOOTH",
"1231 949 OFFCURVE",
"1253 835 OFFCURVE",
"1253 707 CURVE SMOOTH",
"1253 546 OFFCURVE",
"1214 405 OFFCURVE",
"1137 291 CURVE SMOOTH",
"1060 177 OFFCURVE",
"925 106 OFFCURVE",
"754 106 CURVE SMOOTH"
);
}
);
width = 1511;
}
);
leftKerningGroup = C;
note = O;
rightKerningGroup = D;
unicode = 004F;
},
{
glyphname = P;
lastChange = "2017-12-10 12:53:03 +0000";
layers = (
{
layerId = "BF2BE0AA-9B99-4172-A7AC-368BFC5C7956";
paths = (
{
closed = 1;
nodes = (
"354 651 LINE",
"604 651 LINE SMOOTH",
"877 651 OFFCURVE",
"1044 787 OFFCURVE",
"1044 1030 CURVE SMOOTH",
"1044 1267 OFFCURVE",
"875 1413 OFFCURVE",
"604 1413 CURVE SMOOTH",
"219 1413 LINE",
"219 0 LINE",
"354 0 LINE"
);
},
{
closed = 1;
nodes = (
"604 1296 LINE SMOOTH",
"797 1296 OFFCURVE",
"911 1198 OFFCURVE",
"911 1030 CURVE SMOOTH",
"911 857 OFFCURVE",
"800 768 OFFCURVE",
"604 768 CURVE SMOOTH",
"354 768 LINE",
"354 1296 LINE"
);
}
);
width = 1143;
}
);
leftKerningGroup = B;
note = P;
rightKerningGroup = P;
unicode = 0050;
},
{
glyphname = Q;
lastChange = "2017-12-10 12:53:03 +0000";
layers = (
{
layerId = "BF2BE0AA-9B99-4172-A7AC-368BFC5C7956";
paths = (
{
closed = 1;
nodes = (
"1219 188 LINE",
"1325 317 OFFCURVE",
"1378 490 OFFCURVE",
"1378 707 CURVE SMOOTH",
"1378 787 OFFCURVE",
"1370 863 OFFCURVE",
"1354 935 CURVE SMOOTH",
"1322 1078 OFFCURVE",
"1254 1203 OFFCURVE",
"1158 1292 CURVE SMOOTH",
"1061 1381 OFFCURVE",
"919 1434 OFFCURVE",
"754 1434 CURVE SMOOTH",
"672 1434 OFFCURVE",
"597 1421 OFFCURVE",
"529 1396 CURVE SMOOTH",
"392 1345 OFFCURVE",
"298 1255 OFFCURVE",
"231 1133 CURVE SMOOTH",
"164 1011 OFFCURVE",
"133 866 OFFCURVE",
"133 707 CURVE SMOOTH",
"133 507 OFFCURVE",
"185 331 OFFCURVE",
"285 197 CURVE SMOOTH",
"385 63 OFFCURVE",
"550 -20 OFFCURVE",
"754 -20 CURVE SMOOTH",
"916 -20 OFFCURVE",
"1046 22 OFFCURVE",
"1143 106 CURVE",
"1333 -92 LINE",
"1411 -10 LINE"
);
},
{
closed = 1;
nodes = (
"687 100 OFFCURVE",
"626 111 OFFCURVE",
"571 134 CURVE SMOOTH",
"461 178 OFFCURVE",
"390 255 OFFCURVE",
"340 359 CURVE SMOOTH",
"290 463 OFFCURVE",
"268 579 OFFCURVE",
"268 707 CURVE SMOOTH",
"268 771 OFFCURVE",
"274 832 OFFCURVE",
"285 890 CURVE SMOOTH",
"308 1005 OFFCURVE",
"359 1114 OFFCURVE",
"433 1190 CURVE SMOOTH",
"507 1265 OFFCURVE",
"619 1313 OFFCURVE",
"754 1313 CURVE SMOOTH",
"823 1313 OFFCURVE",
"885 1302 OFFCURVE",
"941 1280 CURVE SMOOTH",
"1052 1235 OFFCURVE",
"1123 1159 OFFCURVE",
"1173 1055 CURVE SMOOTH",
"1223 950 OFFCURVE",
"1243 835 OFFCURVE",
"1243 707 CURVE SMOOTH",
"1243 530 OFFCURVE",
"1205 386 OFFCURVE",
"1128 276 CURVE",
"924 487 LINE",
"850 403 LINE",
"1051 193 LINE",
"971 131 OFFCURVE",
"872 100 OFFCURVE",
"754 100 CURVE SMOOTH"
);
}
);
width = 1538;
}
);
leftKerningGroup = C;
note = Q;
rightKerningGroup = Q;
unicode = 0051;
},
{
glyphname = R;
lastChange = "2017-12-10 12:53:03 +0000";
layers = (
{
layerId = "BF2BE0AA-9B99-4172-A7AC-368BFC5C7956";
paths = (
{
closed = 1;
nodes = (
"354 639 LINE",
"602 639 LINE",
"956 -2 LINE",
"1116 -2 LINE",
"735 659 LINE",
"923 692 OFFCURVE",
"1042 832 OFFCURVE",
"1042 1024 CURVE SMOOTH",
"1042 1260 OFFCURVE",
"861 1411 OFFCURVE",
"610 1411 CURVE SMOOTH",
"219 1411 LINE",
"219 -2 LINE",
"354 -2 LINE"
);
},
{
closed = 1;
nodes = (
"612 1292 LINE SMOOTH",
"789 1292 OFFCURVE",
"911 1194 OFFCURVE",
"911 1026 CURVE SMOOTH",
"911 869 OFFCURVE",
"801 778 OFFCURVE",
"637 770 CURVE",
"356 770 LINE",
"356 1292 LINE"
);
}
);
width = 1208;
}
);
leftKerningGroup = B;
note = R;
rightKerningGroup = R;
unicode = 0052;
},
{
glyphname = S;
lastChange = "2017-12-10 12:53:03 +0000";
layers = (
{
layerId = "BF2BE0AA-9B99-4172-A7AC-368BFC5C7956";
paths = (
{
closed = 1;
nodes = (
"816 -16 OFFCURVE",
"995 144 OFFCURVE",
"995 385 CURVE SMOOTH",
"995 508 OFFCURVE",
"940 606 OFFCURVE",
"860 667 CURVE SMOOTH",
"780 728 OFFCURVE",
"679 778 OFFCURVE",
"583 822 CURVE SMOOTH",
"534 844 OFFCURVE",
"490 867 OFFCURVE",
"450 891 CURVE SMOOTH",
"370 939 OFFCURVE",
"315 1009 OFFCURVE",
"315 1098 CURVE SMOOTH",
"315 1231 OFFCURVE",
"426 1319 OFFCURVE",
"555 1319 CURVE SMOOTH",
"678 1319 OFFCURVE",
"785 1264 OFFCURVE",
"842 1153 CURVE",
"938 1221 LINE",
"854 1363 OFFCURVE",
"726 1434 OFFCURVE",
"555 1434 CURVE SMOOTH",
"348 1434 OFFCURVE",
"186 1288 OFFCURVE",
"186 1083 CURVE SMOOTH",
"186 1038 OFFCURVE",
"194 998 OFFCURVE",
"210 961 CURVE SMOOTH",
"241 888 OFFCURVE",
"294 841 OFFCURVE",
"362 798 CURVE SMOOTH",
"430 755 OFFCURVE",
"507 724 OFFCURVE",
"583 690 CURVE SMOOTH",
"658 656 OFFCURVE",
"728 617 OFFCURVE",
"780 571 CURVE SMOOTH",
"832 525 OFFCURVE",
"866 456 OFFCURVE",
"866 375 CURVE SMOOTH",
"866 194 OFFCURVE",
"750 104 OFFCURVE",
"567 104 CURVE SMOOTH",
"384 104 OFFCURVE",
"235 206 OFFCURVE",
"215 391 CURVE",
"92 352 LINE",
"129 117 OFFCURVE",
"328 -16 OFFCURVE",
"567 -16 CURVE SMOOTH"
);
}
);
width = 1104;
}
);
leftKerningGroup = S;
note = S;
rightKerningGroup = S;
unicode = 0053;
},
{
glyphname = T;
lastChange = "2017-12-10 12:53:03 +0000";
layers = (
{
layerId = "BF2BE0AA-9B99-4172-A7AC-368BFC5C7956";
paths = (
{
closed = 1;
nodes = (
"692 1307 LINE",
"1178 1307 LINE",
"1178 1413 LINE",
"70 1413 LINE",
"70 1307 LINE",
"555 1307 LINE",
"555 0 LINE",
"692 0 LINE"
);
}
);
width = 1247;
}
);
leftKerningGroup = T;
note = T;
rightKerningGroup = T;
unicode = 0054;
},
{
glyphname = U;
lastChange = "2017-12-10 12:53:03 +0000";
layers = (
{
layerId = "BF2BE0AA-9B99-4172-A7AC-368BFC5C7956";
paths = (
{
closed = 1;
nodes = (
"739 -20 OFFCURVE",
"799 -10 OFFCURVE",
"854 10 CURVE SMOOTH",
"963 49 OFFCURVE",
"1034 117 OFFCURVE",
"1084 210 CURVE SMOOTH",
"1134 302 OFFCURVE",
"1155 405 OFFCURVE",
"1155 520 CURVE SMOOTH",
"1155 1413 LINE",
"1020 1413 LINE",
"1020 559 LINE SMOOTH",
"1020 508 OFFCURVE",
"1017 460 OFFCURVE",
"1010 417 CURVE SMOOTH",
"996 329 OFFCURVE",
"961 248 OFFCURVE",
"909 194 CURVE SMOOTH",
"857 140 OFFCURVE",
"775 106 OFFCURVE",
"672 106 CURVE SMOOTH",
"443 106 OFFCURVE",
"328 257 OFFCURVE",
"328 559 CURVE SMOOTH",
"328 1413 LINE",
"193 1413 LINE",
"193 510 LINE SMOOTH",
"193 371 OFFCURVE",
"230 246 OFFCURVE",
"303 145 CURVE SMOOTH",
"376 44 OFFCURVE",
"507 -20 OFFCURVE",
"672 -20 CURVE SMOOTH"
);
}
);
width = 1346;
}
);
leftKerningGroup = U;
note = U;
rightKerningGroup = J;
unicode = 0055;
},
{
glyphname = V;
lastChange = "2017-12-10 12:53:03 +0000";
layers = (
{
layerId = "BF2BE0AA-9B99-4172-A7AC-368BFC5C7956";
paths = (
{
closed = 1;
nodes = (
"1243 1413 LINE",
"1110 1413 LINE",
"662 160 LINE",
"213 1413 LINE",
"76 1413 LINE",
"600 0 LINE",
"723 0 LINE"
);
}
);
width = 1319;
}
);
leftKerningGroup = V;
note = V;
rightKerningGroup = V;
unicode = 0056;
},
{
glyphname = W;
lastChange = "2017-12-10 12:53:03 +0000";
layers = (
{
layerId = "BF2BE0AA-9B99-4172-A7AC-368BFC5C7956";
paths = (
{
closed = 1;
nodes = (
"987 1112 LINE",
"1333 0 LINE",
"1489 0 LINE",
"1880 1413 LINE",
"1743 1413 LINE",
"1401 150 LINE",
"1038 1331 LINE",
"928 1331 LINE",
"567 150 LINE",
"223 1413 LINE",
"86 1413 LINE",
"477 0 LINE",
"633 0 LINE"
);
}
);
width = 1966;
}
);
leftKerningGroup = W;
note = W;
rightKerningGroup = W;
unicode = 0057;
},
{
glyphname = X;
lastChange = "2017-12-10 12:53:03 +0000";
layers = (
{
layerId = "BF2BE0AA-9B99-4172-A7AC-368BFC5C7956";
paths = (
{
closed = 1;
nodes = (
"618 586 LINE",
"999 0 LINE",
"1155 0 LINE",
"692 707 LINE",
"1153 1413 LINE",
"997 1413 LINE",
"621 817 LINE",
"246 1413 LINE",
"86 1413 LINE",
"551 707 LINE",
"84 0 LINE",
"244 0 LINE"
);
}
);
width = 1239;
}
);
leftKerningGroup = X;
note = X;
rightKerningGroup = X;
unicode = 0058;
},
{
glyphname = Y;
lastChange = "2017-12-10 12:53:03 +0000";
layers = (
{
layerId = "BF2BE0AA-9B99-4172-A7AC-368BFC5C7956";
paths = (
{
closed = 1;
nodes = (
"723 553 LINE",
"1249 1413 LINE",
"1096 1413 LINE",
"657 694 LINE",
"221 1413 LINE",
"66 1413 LINE",
"594 553 LINE",
"594 0 LINE",
"723 0 LINE"
);
}
);
width = 1315;
}
);
leftKerningGroup = Y;
note = Y;
rightKerningGroup = Y;
unicode = 0059;
},
{
glyphname = Z;
lastChange = "2017-12-10 12:53:03 +0000";
layers = (
{
layerId = "BF2BE0AA-9B99-4172-A7AC-368BFC5C7956";
paths = (
{
closed = 1;
nodes = (
"1169 123 LINE",
"252 123 LINE",
"1169 1296 LINE",
"1169 1413 LINE",
"139 1413 LINE",
"139 1300 LINE",
"1016 1300 LINE",
"94 111 LINE",
"94 0 LINE",
"1169 0 LINE"
);
}
);
width = 1274;
}
);
leftKerningGroup = Z;
note = Z;
rightKerningGroup = Z;
unicode = 005A;
},
{
glyphname = bracketleft;
lastChange = "2017-12-10 12:53:03 +0000";
layers = (
{
layerId = "BF2BE0AA-9B99-4172-A7AC-368BFC5C7956";
paths = (
{
closed = 1;
nodes = (
"555 0 LINE",
"319 0 LINE",
"319 1413 LINE",
"555 1413 LINE",
"555 1487 LINE",
"211 1487 LINE",
"211 -76 LINE",
"555 -76 LINE"
);
}
);
width = 631;
}
);
leftKerningGroup = bracketleft;
note = bracketleft;
rightKerningGroup = bracketleft;
unicode = 005B;
},
{
glyphname = backslash;
lastChange = "2017-12-10 12:53:03 +0000";
layers = (
{
layerId = "BF2BE0AA-9B99-4172-A7AC-368BFC5C7956";
paths = (
{
closed = 1;
nodes = (
"158 1516 LINE",
"23 1516 LINE",
"770 -430 LINE",
"903 -430 LINE"
);
}
);
width = 926;
}
);
leftKerningGroup = backslash;
note = backslash;
rightKerningGroup = backslash;
unicode = 005C;
},
{
glyphname = bracketright;
lastChange = "2017-12-10 12:53:03 +0000";
layers = (
{
layerId = "BF2BE0AA-9B99-4172-A7AC-368BFC5C7956";
paths = (
{
closed = 1;
nodes = (
"420 1487 LINE",
"76 1487 LINE",
"76 1413 LINE",
"311 1413 LINE",
"311 0 LINE",
"76 0 LINE",
"76 -76 LINE",
"420 -76 LINE"
);
}
);
width = 631;
}
);
leftKerningGroup = bracketright;
note = bracketright;
unicode = 005D;
},
{
glyphname = asciicircum;
lastChange = "2017-12-10 12:53:03 +0000";
layers = (
{
layerId = "BF2BE0AA-9B99-4172-A7AC-368BFC5C7956";
paths = (
{
closed = 1;
nodes = (
"485 1190 LINE",
"698 848 LINE",
"836 848 LINE",
"485 1411 LINE",
"139 848 LINE",
"276 848 LINE"
);
}
);
width = 973;
}
);
leftKerningGroup = asciicircum;
note = asciicircum;
rightKerningGroup = asciicircum;
unicode = 005E;
},
{
glyphname = underscore;
lastChange = "2017-12-10 12:53:03 +0000";
layers = (
{
layerId = "BF2BE0AA-9B99-4172-A7AC-368BFC5C7956";
paths = (
{
closed = 1;
nodes = (
"997 0 LINE",
"236 0 LINE",
"236 -96 LINE",
"997 -96 LINE"
);
}
);
width = 1233;
}
);
leftKerningGroup = underscore;
note = underscore;
rightKerningGroup = underscore;
unicode = 005F;
},
{
glyphname = grave;
lastChange = "2017-12-10 12:53:03 +0000";
layers = (
{
layerId = "BF2BE0AA-9B99-4172-A7AC-368BFC5C7956";
paths = (
{
closed = 1;
nodes = (
"242 1413 LINE",
"66 1413 LINE",
"311 1126 LINE",
"457 1126 LINE"
);
}
);
width = 537;
}
);
note = grave;
unicode = 0060;
},
{
glyphname = a;
lastChange = "2017-12-10 12:53:03 +0000";
layers = (
{
layerId = "BF2BE0AA-9B99-4172-A7AC-368BFC5C7956";
paths = (
{
closed = 1;
nodes = (
"553 -20 OFFCURVE",
"691 56 OFFCURVE",
"758 205 CURVE",
"758 0 LINE",
"866 0 LINE",
"866 614 LINE SMOOTH",
"866 863 OFFCURVE",
"730 1020 OFFCURVE",
"485 1020 CURVE SMOOTH",
"332 1020 OFFCURVE",
"210 956 OFFCURVE",
"119 829 CURVE",
"209 758 LINE",
"284 860 OFFCURVE",
"379 911 OFFCURVE",
"496 911 CURVE SMOOTH",
"668 911 OFFCURVE",
"754 796 OFFCURVE",
"754 565 CURVE",
"532 565 LINE SMOOTH",
"232 565 OFFCURVE",
"82 467 OFFCURVE",
"82 270 CURVE SMOOTH",
"82 91 OFFCURVE",
"210 -20 OFFCURVE",
"397 -20 CURVE SMOOTH"
);
},
{
closed = 1;
nodes = (
"293 86 OFFCURVE",
"213 143 OFFCURVE",
"213 268 CURVE SMOOTH",
"213 413 OFFCURVE",
"319 467 OFFCURVE",
"547 467 CURVE SMOOTH",
"754 467 LINE",
"754 380 OFFCURVE",
"721 288 OFFCURVE",
"665 213 CURVE SMOOTH",
"609 138 OFFCURVE",
"515 86 OFFCURVE",
"410 86 CURVE SMOOTH"
);
}
);
width = 1016;
}
);
leftKerningGroup = a;
note = a;
rightKerningGroup = a;
unicode = 0061;
},
{
glyphname = b;
lastChange = "2017-12-10 12:53:03 +0000";
layers = (
{
layerId = "BF2BE0AA-9B99-4172-A7AC-368BFC5C7956";
paths = (
{
closed = 1;
nodes = (
"699 -20 OFFCURVE",
"771 4 OFFCURVE",
"832 51 CURVE SMOOTH",
"954 146 OFFCURVE",
"1012 305 OFFCURVE",
"1012 500 CURVE SMOOTH",
"1012 597 OFFCURVE",
"997 684 OFFCURVE",
"968 762 CURVE SMOOTH",
"908 917 OFFCURVE",
"781 1020 OFFCURVE",
"616 1020 CURVE SMOOTH",
"479 1020 OFFCURVE",
"373 965 OFFCURVE",
"299 854 CURVE",
"299 1413 LINE",
"176 1413 LINE",
"176 0 LINE",
"299 0 LINE",
"299 145 LINE",
"371 35 OFFCURVE",
"477 -20 OFFCURVE",
"616 -20 CURVE SMOOTH"
);
},
{
closed = 1;
nodes = (
"517 82 OFFCURVE",
"461 103 OFFCURVE",
"416 144 CURVE SMOOTH",
"324 226 OFFCURVE",
"289 351 OFFCURVE",
"289 500 CURVE SMOOTH",
"289 609 OFFCURVE",
"312 708 OFFCURVE",
"358 788 CURVE SMOOTH",
"404 868 OFFCURVE",
"484 918 OFFCURVE",
"584 918 CURVE SMOOTH",
"685 918 OFFCURVE",
"767 867 OFFCURVE",
"815 788 CURVE SMOOTH",
"862 708 OFFCURVE",
"887 608 OFFCURVE",
"887 500 CURVE SMOOTH",
"887 391 OFFCURVE",
"862 291 OFFCURVE",
"815 212 CURVE SMOOTH",
"767 132 OFFCURVE",
"685 82 OFFCURVE",
"584 82 CURVE SMOOTH"
);
}
);
width = 1116;
}
);
leftKerningGroup = b;
note = b;
rightKerningGroup = b;
unicode = 0062;
},
{
glyphname = c;
lastChange = "2017-12-10 12:53:03 +0000";
layers = (
{
layerId = "BF2BE0AA-9B99-4172-A7AC-368BFC5C7956";
paths = (
{
closed = 1;
nodes = (
"697 -20 OFFCURVE",
"828 75 OFFCURVE",
"887 238 CURVE",
"780 287 LINE",
"751 163 OFFCURVE",
"648 82 OFFCURVE",
"520 82 CURVE SMOOTH",
"416 82 OFFCURVE",
"335 136 OFFCURVE",
"292 220 CURVE SMOOTH",
"249 303 OFFCURVE",
"229 397 OFFCURVE",
"229 498 CURVE SMOOTH",
"229 598 OFFCURVE",
"249 693 OFFCURVE",
"293 778 CURVE SMOOTH",
"336 862 OFFCURVE",
"416 918 OFFCURVE",
"520 918 CURVE SMOOTH",
"645 918 OFFCURVE",
"751 836 OFFCURVE",
"780 709 CURVE",
"899 762 LINE",
"827 922 OFFCURVE",
"692 1020 OFFCURVE",
"520 1020 CURVE SMOOTH",
"385 1020 OFFCURVE",
"273 957 OFFCURVE",
"205 860 CURVE SMOOTH",
"137 763 OFFCURVE",
"100 635 OFFCURVE",
"100 498 CURVE SMOOTH",
"100 405 OFFCURVE",
"116 320 OFFCURVE",
"147 243 CURVE SMOOTH",
"209 89 OFFCURVE",
"343 -20 OFFCURVE",
"522 -20 CURVE SMOOTH"
);
}
);
width = 967;
}
);
leftKerningGroup = c;
note = c;
rightKerningGroup = c;
unicode = 0063;
},
{
glyphname = d;
lastChange = "2017-12-10 12:53:03 +0000";
layers = (
{
layerId = "BF2BE0AA-9B99-4172-A7AC-368BFC5C7956";
paths = (
{
closed = 1;
nodes = (
"744 965 OFFCURVE",
"637 1020 OFFCURVE",
"498 1020 CURVE SMOOTH",
"417 1020 OFFCURVE",
"347 997 OFFCURVE",
"286 950 CURVE SMOOTH",
"165 856 OFFCURVE",
"104 693 OFFCURVE",
"104 500 CURVE SMOOTH",
"104 403 OFFCURVE",
"119 316 OFFCURVE",
"150 238 CURVE SMOOTH",
"210 82 OFFCURVE",
"337 -20 OFFCURVE",
"498 -20 CURVE SMOOTH",
"649 -20 OFFCURVE",
"744 42 OFFCURVE",
"817 146 CURVE",
"817 0 LINE",
"942 0 LINE",
"942 1413 LINE",
"817 1413 LINE",
"817 854 LINE"
);
},
{
closed = 1;
nodes = (
"430 82 OFFCURVE",
"350 132 OFFCURVE",
"303 212 CURVE SMOOTH",
"256 291 OFFCURVE",
"233 391 OFFCURVE",
"233 500 CURVE SMOOTH",
"233 609 OFFCURVE",
"256 708 OFFCURVE",
"303 788 CURVE SMOOTH",
"350 868 OFFCURVE",
"430 918 OFFCURVE",
"530 918 CURVE SMOOTH",
"633 918 OFFCURVE",
"714 868 OFFCURVE",
"759 788 CURVE SMOOTH",
"804 707 OFFCURVE",
"827 609 OFFCURVE",
"827 500 CURVE SMOOTH",
"827 389 OFFCURVE",
"804 292 OFFCURVE",
"759 212 CURVE SMOOTH",
"714 132 OFFCURVE",
"633 82 OFFCURVE",
"530 82 CURVE SMOOTH"
);
}
);
width = 1118;
}
);
leftKerningGroup = c;
note = d;
rightKerningGroup = d;
unicode = 0064;
},
{
glyphname = e;
lastChange = "2017-12-10 12:53:03 +0000";
layers = (
{
layerId = "BF2BE0AA-9B99-4172-A7AC-368BFC5C7956";
paths = (
{
closed = 1;
nodes = (
"694 -12 OFFCURVE",
"803 32 OFFCURVE",
"911 137 CURVE",
"825 203 LINE",
"749 123 OFFCURVE",
"663 96 OFFCURVE",
"535 96 CURVE SMOOTH",
"339 96 OFFCURVE",
"224 256 OFFCURVE",
"231 457 CURVE",
"930 457 LINE",
"933 481 OFFCURVE",
"934 505 OFFCURVE",
"934 528 CURVE SMOOTH",
"934 577 OFFCURVE",
"930 623 OFFCURVE",
"922 668 CURVE SMOOTH",
"906 756 OFFCURVE",
"864 847 OFFCURVE",
"804 909 CURVE SMOOTH",
"743 971 OFFCURVE",
"643 1012 OFFCURVE",
"520 1012 CURVE SMOOTH",
"466 1012 OFFCURVE",
"416 1003 OFFCURVE",
"370 984 CURVE SMOOTH",
"278 947 OFFCURVE",
"215 881 OFFCURVE",
"168 793 CURVE SMOOTH",
"121 705 OFFCURVE",
"100 603 OFFCURVE",
"100 494 CURVE SMOOTH",
"100 355 OFFCURVE",
"138 232 OFFCURVE",
"208 139 CURVE SMOOTH",
"278 46 OFFCURVE",
"394 -12 OFFCURVE",
"537 -12 CURVE SMOOTH"
);
},
{
closed = 1;
nodes = (
"234 657 OFFCURVE",
"258 740 OFFCURVE",
"305 805 CURVE SMOOTH",
"352 869 OFFCURVE",
"427 909 OFFCURVE",
"520 909 CURVE SMOOTH",
"628 909 OFFCURVE",
"709 866 OFFCURVE",
"753 798 CURVE SMOOTH",
"796 730 OFFCURVE",
"815 653 OFFCURVE",
"815 565 CURVE",
"231 565 LINE"
);
}
);
width = 1030;
}
);
leftKerningGroup = c;
note = e;
rightKerningGroup = e;
unicode = 0065;
},
{
glyphname = f;
lastChange = "2017-12-10 12:53:03 +0000";
layers = (
{
layerId = "BF2BE0AA-9B99-4172-A7AC-368BFC5C7956";
paths = (
{
closed = 1;
nodes = (
"340 897 LINE",
"641 897 LINE",
"641 999 LINE",
"340 999 LINE",
"340 1171 LINE SMOOTH",
"340 1276 OFFCURVE",
"395 1331 OFFCURVE",
"483 1331 CURVE SMOOTH",
"520 1331 OFFCURVE",
"563 1320 OFFCURVE",
"610 1298 CURVE",
"635 1397 LINE",
"584 1422 OFFCURVE",
"531 1434 OFFCURVE",
"475 1434 CURVE SMOOTH",
"326 1434 OFFCURVE",
"217 1344 OFFCURVE",
"217 1176 CURVE SMOOTH",
"217 999 LINE",
"35 999 LINE",
"35 897 LINE",
"217 897 LINE",
"217 0 LINE",
"340 0 LINE"
);
}
);
width = 676;
}
);
leftKerningGroup = f;
note = f;
rightKerningGroup = f;
unicode = 0066;
},
{
glyphname = g;
lastChange = "2017-12-10 12:53:03 +0000";
layers = (
{
layerId = "BF2BE0AA-9B99-4172-A7AC-368BFC5C7956";
paths = (
{
closed = 1;
nodes = (
"435 132 OFFCURVE",
"382 146 OFFCURVE",
"330 171 CURVE SMOOTH",
"278 195 OFFCURVE",
"250 235 OFFCURVE",
"250 287 CURVE SMOOTH",
"250 318 OFFCURVE",
"265 345 OFFCURVE",
"296 370 CURVE",
"352 342 OFFCURVE",
"414 328 OFFCURVE",
"483 328 CURVE SMOOTH",
"694 328 OFFCURVE",
"844 458 OFFCURVE",
"844 666 CURVE SMOOTH",
"844 723 OFFCURVE",
"832 776 OFFCURVE",
"808 826 CURVE",
"973 954 LINE",
"899 1049 LINE",
"748 910 LINE",
"680 978 OFFCURVE",
"592 1012 OFFCURVE",
"485 1012 CURVE SMOOTH",
"276 1012 OFFCURVE",
"121 874 OFFCURVE",
"121 666 CURVE SMOOTH",
"121 575 OFFCURVE",
"149 499 OFFCURVE",
"205 439 CURVE",
"160 400 OFFCURVE",
"137 348 OFFCURVE",
"137 283 CURVE SMOOTH",
"137 192 OFFCURVE",
"182 123 OFFCURVE",
"271 76 CURVE",
"117 -82 LINE",
"116 -91 OFFCURVE",
"115 -104 OFFCURVE",
"115 -119 CURVE SMOOTH",
"115 -308 OFFCURVE",
"289 -455 OFFCURVE",
"537 -455 CURVE SMOOTH",
"606 -455 OFFCURVE",
"670 -444 OFFCURVE",
"727 -423 CURVE SMOOTH",
"842 -381 OFFCURVE",
"926 -286 OFFCURVE",
"926 -158 CURVE SMOOTH",
"926 -137 OFFCURVE",
"924 -118 OFFCURVE",
"921 -100 CURVE SMOOTH",
"889 64 OFFCURVE",
"743 90 OFFCURVE",
"508 123 CURVE SMOOTH"
);
},
{
closed = 1;
nodes = (
"621 911 OFFCURVE",
"717 805 OFFCURVE",
"717 670 CURVE SMOOTH",
"717 526 OFFCURVE",
"624 432 OFFCURVE",
"481 432 CURVE SMOOTH",
"340 432 OFFCURVE",
"248 526 OFFCURVE",
"248 670 CURVE SMOOTH",
"248 802 OFFCURVE",
"342 911 OFFCURVE",
"481 911 CURVE SMOOTH"
);
},
{
closed = 1;
nodes = (
"356 -338 OFFCURVE",
"233 -232 OFFCURVE",
"236 -121 CURVE",
"371 36 LINE",
"403 27 OFFCURVE",
"438 19 OFFCURVE",
"475 12 CURVE SMOOTH",
"504 7 OFFCURVE",
"573 -4 OFFCURVE",
"603 -8 CURVE SMOOTH",
"633 -13 OFFCURVE",
"687 -24 OFFCURVE",
"712 -34 CURVE SMOOTH",
"737 -44 OFFCURVE",
"773 -62 OFFCURVE",
"789 -81 CURVE",
"804 -101 OFFCURVE",
"817 -129 OFFCURVE",
"817 -164 CURVE SMOOTH",
"817 -276 OFFCURVE",
"696 -338 OFFCURVE",
"551 -338 CURVE SMOOTH"
);
}
);
width = 1018;
}
);
leftKerningGroup = c;
note = g;
rightKerningGroup = g;
unicode = 0067;
},
{
glyphname = h;
lastChange = "2017-12-10 12:53:03 +0000";
layers = (
{
layerId = "BF2BE0AA-9B99-4172-A7AC-368BFC5C7956";
paths = (
{
closed = 1;
nodes = (
"299 547 LINE SMOOTH",
"299 738 OFFCURVE",
"437 897 OFFCURVE",
"614 897 CURVE SMOOTH",
"699 897 OFFCURVE",
"761 859 OFFCURVE",
"792 799 CURVE SMOOTH",
"823 738 OFFCURVE",
"834 674 OFFCURVE",
"834 598 CURVE SMOOTH",
"834 0 LINE",
"961 0 LINE",
"961 621 LINE SMOOTH",
"961 730 OFFCURVE",
"936 825 OFFCURVE",
"885 898 CURVE SMOOTH",
"834 971 OFFCURVE",
"746 1016 OFFCURVE",
"633 1016 CURVE SMOOTH",
"497 1016 OFFCURVE",
"363 936 OFFCURVE",
"299 823 CURVE",
"299 1413 LINE",
"176 1413 LINE",
"176 0 LINE",
"299 0 LINE"
);
}
);
width = 1112;
}
);
leftKerningGroup = b;
note = h;
rightKerningGroup = h;
unicode = 0068;
},
{
glyphname = i;
lastChange = "2017-12-10 12:53:03 +0000";
layers = (
{
layerId = "BF2BE0AA-9B99-4172-A7AC-368BFC5C7956";
paths = (
{
closed = 1;
nodes = (
"313 1413 LINE",
"164 1413 LINE",
"164 1229 LINE",
"313 1229 LINE"
);
},
{
closed = 1;
nodes = (
"301 999 LINE",
"176 999 LINE",
"176 0 LINE",
"301 0 LINE"
);
}
);
width = 477;
}
);
leftKerningGroup = i;
note = i;
rightKerningGroup = i;
unicode = 0069;
},
{
glyphname = j;
lastChange = "2017-12-10 12:53:03 +0000";
layers = (
{
layerId = "BF2BE0AA-9B99-4172-A7AC-368BFC5C7956";
paths = (
{
closed = 1;
nodes = (
"315 1413 LINE",
"166 1413 LINE",
"166 1237 LINE",
"315 1237 LINE"
);
},
{
closed = 1;
nodes = (
"226 -438 OFFCURVE",
"305 -336 OFFCURVE",
"305 -168 CURVE SMOOTH",
"305 999 LINE",
"176 999 LINE",
"176 -190 LINE SMOOTH",
"176 -271 OFFCURVE",
"143 -336 OFFCURVE",
"59 -336 CURVE SMOOTH",
"13 -336 OFFCURVE",
"-28 -330 OFFCURVE",
"-63 -319 CURVE",
"-88 -408 LINE",
"-34 -428 OFFCURVE",
"14 -438 OFFCURVE",
"57 -438 CURVE SMOOTH"
);
}
);
width = 481;
}
);
leftKerningGroup = j;
note = j;
rightKerningGroup = j;
unicode = 006A;
},
{
glyphname = k;
lastChange = "2017-12-10 12:53:03 +0000";
layers = (
{
layerId = "BF2BE0AA-9B99-4172-A7AC-368BFC5C7956";
paths = (
{
closed = 1;
nodes = (
"303 293 LINE",
"532 547 LINE",
"842 0 LINE",
"991 0 LINE",
"606 637 LINE",
"920 999 LINE",
"766 999 LINE",
"303 430 LINE",
"303 1413 LINE",
"176 1413 LINE",
"176 0 LINE",
"303 0 LINE"
);
}
);
width = 1030;
}
);
leftKerningGroup = b;
note = k;
rightKerningGroup = k;
unicode = 006B;
},
{
glyphname = l;
lastChange = "2017-12-10 12:53:03 +0000";
layers = (
{
layerId = "BF2BE0AA-9B99-4172-A7AC-368BFC5C7956";
paths = (
{
closed = 1;
nodes = (
"369 -20 OFFCURVE",
"409 -13 OFFCURVE",
"444 0 CURVE",
"444 98 LINE",
"411 91 OFFCURVE",
"376 88 OFFCURVE",
"340 88 CURVE SMOOTH",
"335 88 OFFCURVE",
"331 89 OFFCURVE",
"327 90 CURVE",
"308 96 OFFCURVE",
"299 113 OFFCURVE",
"299 141 CURVE SMOOTH",
"299 1413 LINE",
"172 1413 LINE",
"172 203 LINE SMOOTH",
"172 199 OFFCURVE",
"172 193 OFFCURVE",
"172 185 CURVE SMOOTH",
"172 164 OFFCURVE",
"172 150 OFFCURVE",
"172 141 CURVE SMOOTH",
"172 124 OFFCURVE",
"176 78 OFFCURVE",
"184 61 CURVE",
"191 44 OFFCURVE",
"205 14 OFFCURVE",
"226 3 CURVE",
"247 -9 OFFCURVE",
"279 -20 OFFCURVE",
"322 -20 CURVE SMOOTH"
);
}
);
width = 504;
}
);
leftKerningGroup = b;
note = l;
rightKerningGroup = d;
unicode = 006C;
},
{
glyphname = m;
lastChange = "2017-12-10 12:53:03 +0000";
layers = (
{
layerId = "BF2BE0AA-9B99-4172-A7AC-368BFC5C7956";
paths = (
{
closed = 1;
nodes = (
"301 514 LINE SMOOTH",
"301 613 OFFCURVE",
"325 711 OFFCURVE",
"369 789 CURVE SMOOTH",
"412 867 OFFCURVE",
"483 918 OFFCURVE",
"567 918 CURVE SMOOTH",
"654 918 OFFCURVE",
"717 877 OFFCURVE",
"748 812 CURVE SMOOTH",
"779 747 OFFCURVE",
"791 681 OFFCURVE",
"791 602 CURVE SMOOTH",
"791 0 LINE",
"918 0 LINE",
"918 555 LINE SMOOTH",
"918 614 OFFCURVE",
"928 671 OFFCURVE",
"947 726 CURVE SMOOTH",
"986 834 OFFCURVE",
"1073 918 OFFCURVE",
"1182 918 CURVE SMOOTH",
"1217 918 OFFCURVE",
"1249 911 OFFCURVE",
"1276 898 CURVE SMOOTH",
"1331 870 OFFCURVE",
"1361 829 OFFCURVE",
"1382 771 CURVE SMOOTH",
"1403 713 OFFCURVE",
"1409 658 OFFCURVE",
"1409 598 CURVE SMOOTH",
"1409 0 LINE",
"1536 0 LINE",
"1536 608 LINE SMOOTH",
"1536 725 OFFCURVE",
"1510 822 OFFCURVE",
"1458 899 CURVE SMOOTH",
"1405 975 OFFCURVE",
"1313 1020 OFFCURVE",
"1194 1020 CURVE SMOOTH",
"1053 1020 OFFCURVE",
"949 943 OFFCURVE",
"889 803 CURVE",
"845 947 OFFCURVE",
"729 1020 OFFCURVE",
"578 1020 CURVE SMOOTH",
"450 1020 OFFCURVE",
"338 935 OFFCURVE",
"301 831 CURVE",
"301 999 LINE",
"174 999 LINE",
"174 0 LINE",
"301 0 LINE"
);
}
);
width = 1688;
}
);
leftKerningGroup = m;
note = m;
rightKerningGroup = h;
unicode = 006D;
},
{
glyphname = n;
lastChange = "2017-12-10 12:53:03 +0000";
layers = (
{
layerId = "BF2BE0AA-9B99-4172-A7AC-368BFC5C7956";
paths = (
{
closed = 1;
nodes = (
"299 512 LINE SMOOTH",
"299 767 OFFCURVE",
"425 913 OFFCURVE",
"596 913 CURVE SMOOTH",
"685 913 OFFCURVE",
"752 871 OFFCURVE",
"785 807 CURVE SMOOTH",
"817 742 OFFCURVE",
"831 674 OFFCURVE",
"831 598 CURVE SMOOTH",
"831 0 LINE",
"956 0 LINE",
"956 608 LINE SMOOTH",
"956 685 OFFCURVE",
"945 754 OFFCURVE",
"924 814 CURVE SMOOTH",
"880 933 OFFCURVE",
"777 1016 OFFCURVE",
"629 1016 CURVE SMOOTH",
"477 1016 OFFCURVE",
"366 938 OFFCURVE",
"299 811 CURVE",
"299 999 LINE",
"174 999 LINE",
"174 0 LINE",
"299 0 LINE"
);
}
);
width = 1108;
}
);
leftKerningGroup = m;
note = n;
rightKerningGroup = h;
unicode = 006E;
},
{
glyphname = o;
lastChange = "2017-12-10 12:53:03 +0000";
layers = (
{
layerId = "BF2BE0AA-9B99-4172-A7AC-368BFC5C7956";
paths = (
{
closed = 1;
nodes = (
"940 146 OFFCURVE",
"1022 313 OFFCURVE",
"1022 502 CURVE SMOOTH",
"1022 596 OFFCURVE",
"1002 683 OFFCURVE",
"963 762 CURVE SMOOTH",
"884 920 OFFCURVE",
"734 1020 OFFCURVE",
"555 1020 CURVE SMOOTH",
"466 1020 OFFCURVE",
"386 997 OFFCURVE",
"315 950 CURVE SMOOTH",
"174 857 OFFCURVE",
"94 691 OFFCURVE",
"94 502 CURVE SMOOTH",
"94 407 OFFCURVE",
"113 320 OFFCURVE",
"152 241 CURVE SMOOTH",
"228 82 OFFCURVE",
"376 -20 OFFCURVE",
"555 -20 CURVE SMOOTH",
"644 -20 OFFCURVE",
"725 4 OFFCURVE",
"797 51 CURVE SMOOTH"
);
},
{
closed = 1;
nodes = (
"446 82 OFFCURVE",
"356 133 OFFCURVE",
"302 213 CURVE SMOOTH",
"248 293 OFFCURVE",
"219 394 OFFCURVE",
"219 502 CURVE SMOOTH",
"219 609 OFFCURVE",
"248 709 OFFCURVE",
"302 788 CURVE SMOOTH",
"356 867 OFFCURVE",
"447 918 OFFCURVE",
"559 918 CURVE SMOOTH",
"633 918 OFFCURVE",
"696 898 OFFCURVE",
"749 857 CURVE SMOOTH",
"853 775 OFFCURVE",
"897 647 OFFCURVE",
"897 502 CURVE SMOOTH",
"897 395 OFFCURVE",
"868 295 OFFCURVE",
"815 215 CURVE SMOOTH",
"762 134 OFFCURVE",
"669 82 OFFCURVE",
"557 82 CURVE SMOOTH"
);
}
);
width = 1116;
}
);
leftKerningGroup = c;
note = o;
rightKerningGroup = b;
unicode = 006F;
},
{
glyphname = p;
lastChange = "2017-12-10 12:53:03 +0000";
layers = (
{
layerId = "BF2BE0AA-9B99-4172-A7AC-368BFC5C7956";
paths = (
{
closed = 1;
nodes = (
"301 145 LINE",
"370 40 OFFCURVE",
"479 -20 OFFCURVE",
"612 -20 CURVE SMOOTH",
"698 -20 OFFCURVE",
"772 4 OFFCURVE",
"834 52 CURVE SMOOTH",
"957 147 OFFCURVE",
"1014 305 OFFCURVE",
"1014 500 CURVE SMOOTH",
"1014 598 OFFCURVE",
"999 686 OFFCURVE",
"970 763 CURVE SMOOTH",
"910 918 OFFCURVE",
"783 1020 OFFCURVE",
"612 1020 CURVE SMOOTH",
"476 1020 OFFCURVE",
"368 957 OFFCURVE",
"301 854 CURVE",
"301 999 LINE",
"176 999 LINE",
"176 -438 LINE",
"301 -438 LINE"
);
},
{
closed = 1;
nodes = (
"521 82 OFFCURVE",
"464 103 OFFCURVE",
"418 144 CURVE SMOOTH",
"325 226 OFFCURVE",
"289 351 OFFCURVE",
"289 500 CURVE SMOOTH",
"289 574 OFFCURVE",
"299 642 OFFCURVE",
"319 703 CURVE SMOOTH",
"358 825 OFFCURVE",
"453 918 OFFCURVE",
"588 918 CURVE SMOOTH",
"689 918 OFFCURVE",
"770 868 OFFCURVE",
"818 788 CURVE SMOOTH",
"865 708 OFFCURVE",
"889 609 OFFCURVE",
"889 500 CURVE SMOOTH",
"889 391 OFFCURVE",
"865 291 OFFCURVE",
"818 212 CURVE SMOOTH",
"770 132 OFFCURVE",
"689 82 OFFCURVE",
"588 82 CURVE SMOOTH"
);
}
);
width = 1118;
}
);
leftKerningGroup = m;
note = p;
rightKerningGroup = b;
unicode = 0070;
},
{
glyphname = q;
lastChange = "2017-12-10 12:53:03 +0000";
layers = (
{
layerId = "BF2BE0AA-9B99-4172-A7AC-368BFC5C7956";
paths = (
{
closed = 1;
nodes = (
"944 999 LINE",
"817 999 LINE",
"817 854 LINE",
"750 958 OFFCURVE",
"641 1020 OFFCURVE",
"506 1020 CURVE SMOOTH",
"421 1020 OFFCURVE",
"348 997 OFFCURVE",
"287 950 CURVE SMOOTH",
"163 856 OFFCURVE",
"104 695 OFFCURVE",
"104 500 CURVE SMOOTH",
"104 402 OFFCURVE",
"119 314 OFFCURVE",
"149 237 CURVE SMOOTH",
"209 82 OFFCURVE",
"337 -20 OFFCURVE",
"506 -20 CURVE SMOOTH",
"639 -20 OFFCURVE",
"742 35 OFFCURVE",
"817 145 CURVE",
"817 -438 LINE",
"944 -438 LINE"
);
},
{
closed = 1;
nodes = (
"358 140 OFFCURVE",
"326 172 OFFCURVE",
"303 212 CURVE SMOOTH",
"256 291 OFFCURVE",
"233 391 OFFCURVE",
"233 500 CURVE SMOOTH",
"233 609 OFFCURVE",
"256 709 OFFCURVE",
"303 789 CURVE SMOOTH",
"350 868 OFFCURVE",
"431 918 OFFCURVE",
"532 918 CURVE SMOOTH",
"633 918 OFFCURVE",
"714 868 OFFCURVE",
"759 788 CURVE SMOOTH",
"804 707 OFFCURVE",
"827 609 OFFCURVE",
"827 500 CURVE SMOOTH",
"827 391 OFFCURVE",
"804 293 OFFCURVE",
"759 213 CURVE SMOOTH",
"714 132 OFFCURVE",
"633 82 OFFCURVE",
"532 82 CURVE SMOOTH",
"481 82 OFFCURVE",
"436 94 OFFCURVE",
"397 117 CURVE SMOOTH"
);
}
);
width = 1120;
}
);
leftKerningGroup = c;
note = q;
rightKerningGroup = i;
unicode = 0071;
},
{
glyphname = r;
lastChange = "2017-12-10 12:53:03 +0000";
layers = (
{
layerId = "BF2BE0AA-9B99-4172-A7AC-368BFC5C7956";
paths = (
{
closed = 1;
nodes = (
"299 518 LINE SMOOTH",
"299 759 OFFCURVE",
"399 901 OFFCURVE",
"582 901 CURVE SMOOTH",
"636 901 OFFCURVE",
"678 888 OFFCURVE",
"707 862 CURVE",
"758 973 LINE",
"712 1004 OFFCURVE",
"660 1020 OFFCURVE",
"602 1020 CURVE SMOOTH",
"473 1020 OFFCURVE",
"354 942 OFFCURVE",
"301 819 CURVE",
"301 999 LINE",
"174 999 LINE",
"174 0 LINE",
"299 0 LINE"
);
}
);
width = 791;
}
);
leftKerningGroup = m;
note = r;
rightKerningGroup = r;
unicode = 0072;
},
{
glyphname = s;
lastChange = "2017-12-10 12:53:03 +0000";
layers = (
{
layerId = "BF2BE0AA-9B99-4172-A7AC-368BFC5C7956";
paths = (
{
closed = 1;
nodes = (
"531 -20 OFFCURVE",
"611 6 OFFCURVE",
"674 54 CURVE SMOOTH",
"737 102 OFFCURVE",
"776 182 OFFCURVE",
"776 279 CURVE SMOOTH",
"776 366 OFFCURVE",
"742 435 OFFCURVE",
"691 475 CURVE SMOOTH",
"639 514 OFFCURVE",
"571 547 OFFCURVE",
"503 566 CURVE SMOOTH",
"434 585 OFFCURVE",
"366 611 OFFCURVE",
"315 636 CURVE SMOOTH",
"263 661 OFFCURVE",
"229 706 OFFCURVE",
"229 766 CURVE SMOOTH",
"229 857 OFFCURVE",
"303 918 OFFCURVE",
"416 918 CURVE SMOOTH",
"522 918 OFFCURVE",
"598 869 OFFCURVE",
"645 772 CURVE",
"735 825 LINE",
"676 945 OFFCURVE",
"564 1020 OFFCURVE",
"420 1020 CURVE SMOOTH",
"248 1020 OFFCURVE",
"117 917 OFFCURVE",
"117 752 CURVE SMOOTH",
"117 716 OFFCURVE",
"123 684 OFFCURVE",
"136 657 CURVE",
"160 601 OFFCURVE",
"203 568 OFFCURVE",
"257 541 CURVE SMOOTH",
"311 513 OFFCURVE",
"371 495 OFFCURVE",
"431 475 CURVE SMOOTH",
"490 455 OFFCURVE",
"546 432 OFFCURVE",
"587 401 CURVE SMOOTH",
"628 370 OFFCURVE",
"655 321 OFFCURVE",
"655 258 CURVE SMOOTH",
"655 142 OFFCURVE",
"570 82 OFFCURVE",
"451 82 CURVE SMOOTH",
"320 82 OFFCURVE",
"230 159 OFFCURVE",
"193 279 CURVE",
"84 219 LINE",
"132 84 OFFCURVE",
"271 -20 OFFCURVE",
"444 -20 CURVE SMOOTH"
);
}
);
width = 858;
}
);
leftKerningGroup = s;
note = s;
rightKerningGroup = s;
unicode = 0073;
},
{
glyphname = t;
lastChange = "2017-12-10 12:53:03 +0000";
layers = (
{
layerId = "BF2BE0AA-9B99-4172-A7AC-368BFC5C7956";
paths = (
{
closed = 1;
nodes = (
"487 -20 OFFCURVE",
"528 -14 OFFCURVE",
"555 -2 CURVE",
"555 102 LINE",
"522 87 OFFCURVE",
"492 80 OFFCURVE",
"465 80 CURVE SMOOTH",
"386 80 OFFCURVE",
"334 141 OFFCURVE",
"334 250 CURVE SMOOTH",
"334 897 LINE",
"588 897 LINE",
"588 999 LINE",
"334 999 LINE",
"334 1350 LINE",
"209 1219 LINE",
"209 999 LINE",
"49 999 LINE",
"49 897 LINE",
"209 897 LINE",
"209 262 LINE SMOOTH",
"209 81 OFFCURVE",
"269 -20 OFFCURVE",
"432 -20 CURVE SMOOTH"
);
}
);
width = 653;
}
);
leftKerningGroup = t;
note = t;
rightKerningGroup = t;
unicode = 0074;
},
{
glyphname = u;
lastChange = "2017-12-10 12:53:03 +0000";
layers = (
{
layerId = "BF2BE0AA-9B99-4172-A7AC-368BFC5C7956";
paths = (
{
closed = 1;
nodes = (
"640 -23 OFFCURVE",
"768 82 OFFCURVE",
"807 182 CURVE",
"807 0 LINE",
"930 0 LINE",
"930 999 LINE",
"807 999 LINE",
"807 420 LINE SMOOTH",
"807 245 OFFCURVE",
"661 80 OFFCURVE",
"492 80 CURVE SMOOTH",
"458 80 OFFCURVE",
"428 87 OFFCURVE",
"402 100 CURVE SMOOTH",
"349 127 OFFCURVE",
"320 167 OFFCURVE",
"300 224 CURVE SMOOTH",
"280 281 OFFCURVE",
"274 335 OFFCURVE",
"274 395 CURVE SMOOTH",
"274 999 LINE",
"150 999 LINE",
"150 406 LINE SMOOTH",
"150 285 OFFCURVE",
"175 183 OFFCURVE",
"227 104 CURVE SMOOTH",
"279 24 OFFCURVE",
"370 -23 OFFCURVE",
"487 -23 CURVE SMOOTH"
);
}
);
width = 1104;
}
);
leftKerningGroup = u;
note = u;
rightKerningGroup = u;
unicode = 0075;
},
{
glyphname = v;
lastChange = "2017-12-10 12:53:03 +0000";
layers = (
{
layerId = "BF2BE0AA-9B99-4172-A7AC-368BFC5C7956";
paths = (
{
closed = 1;
nodes = (
"889 999 LINE",
"756 999 LINE",
"469 164 LINE",
"184 999 LINE",
"47 999 LINE",
"412 0 LINE",
"526 0 LINE"
);
}
);
width = 936;
}
);
leftKerningGroup = v;
note = v;
rightKerningGroup = v;
unicode = 0076;
},
{
glyphname = w;
lastChange = "2017-12-10 12:53:03 +0000";
layers = (
{
layerId = "BF2BE0AA-9B99-4172-A7AC-368BFC5C7956";
paths = (
{
closed = 1;
nodes = (
"707 850 LINE",
"948 0 LINE",
"1075 0 LINE",
"1348 999 LINE",
"1214 999 LINE",
"1004 156 LINE",
"764 999 LINE",
"645 999 LINE",
"406 154 LINE",
"193 999 LINE",
"59 999 LINE",
"332 0 LINE",
"459 0 LINE"
);
}
);
width = 1407;
}
);
leftKerningGroup = w;
note = w;
rightKerningGroup = w;
unicode = 0077;
},
{
glyphname = x;
lastChange = "2017-12-10 12:53:03 +0000";
layers = (
{
layerId = "BF2BE0AA-9B99-4172-A7AC-368BFC5C7956";
paths = (
{
closed = 1;
nodes = (
"449 389 LINE",
"690 0 LINE",
"838 0 LINE",
"508 504 LINE",
"838 999 LINE",
"690 999 LINE",
"449 618 LINE",
"209 999 LINE",
"55 999 LINE",
"391 504 LINE",
"55 0 LINE",
"209 0 LINE"
);
}
);
width = 893;
}
);
leftKerningGroup = x;
note = x;
rightKerningGroup = x;
unicode = 0078;
},
{
glyphname = y;
lastChange = "2017-12-10 12:53:03 +0000";
layers = (
{
layerId = "BF2BE0AA-9B99-4172-A7AC-368BFC5C7956";
paths = (
{
closed = 1;
nodes = (
"915 999 LINE",
"778 999 LINE",
"487 152 LINE",
"184 999 LINE",
"45 999 LINE",
"428 0 LINE",
"260 -430 LINE",
"389 -430 LINE"
);
}
);
width = 961;
}
);
leftKerningGroup = y;
note = y;
rightKerningGroup = y;
unicode = 0079;
},
{
glyphname = z;
lastChange = "2017-12-10 12:53:03 +0000";
layers = (
{
layerId = "BF2BE0AA-9B99-4172-A7AC-368BFC5C7956";
paths = (
{
closed = 1;
nodes = (
"98 897 LINE",
"692 897 LINE",
"70 100 LINE",
"70 0 LINE",
"831 0 LINE",
"831 109 LINE",
"218 109 LINE",
"831 889 LINE",
"831 999 LINE",
"98 999 LINE"
);
}
);
width = 911;
}
);
leftKerningGroup = z;
note = z;
rightKerningGroup = z;
unicode = 007A;
},
{
glyphname = braceleft;
lastChange = "2017-12-10 12:53:03 +0000";
layers = (
{
layerId = "BF2BE0AA-9B99-4172-A7AC-368BFC5C7956";
paths = (
{
closed = 1;
nodes = (
"478 -111 OFFCURVE",
"482 -111 OFFCURVE",
"487 -111 CURVE",
"492 -112 OFFCURVE",
"498 -112 OFFCURVE",
"503 -112 CURVE SMOOTH",
"508 -112 OFFCURVE",
"512 -112 OFFCURVE",
"516 -111 CURVE",
"516 -39 LINE",
"506 -43 OFFCURVE",
"495 -45 OFFCURVE",
"483 -45 CURVE SMOOTH",
"389 -45 OFFCURVE",
"342 6 OFFCURVE",
"342 109 CURVE SMOOTH",
"342 473 LINE SMOOTH",
"342 553 OFFCURVE",
"282 596 OFFCURVE",
"154 639 CURVE",
"287 690 OFFCURVE",
"342 749 OFFCURVE",
"342 842 CURVE SMOOTH",
"342 1348 LINE SMOOTH",
"342 1394 OFFCURVE",
"382 1417 OFFCURVE",
"461 1417 CURVE SMOOTH",
"483 1417 OFFCURVE",
"501 1416 OFFCURVE",
"516 1413 CURVE",
"516 1485 LINE",
"512 1486 OFFCURVE",
"508 1486 OFFCURVE",
"503 1486 CURVE SMOOTH",
"498 1486 OFFCURVE",
"494 1486 OFFCURVE",
"489 1486 CURVE",
"484 1485 OFFCURVE",
"480 1485 OFFCURVE",
"477 1485 CURVE SMOOTH",
"424 1485 LINE SMOOTH",
"279 1485 OFFCURVE",
"223 1417 OFFCURVE",
"223 1282 CURVE SMOOTH",
"223 854 LINE SMOOTH",
"223 771 OFFCURVE",
"179 719 OFFCURVE",
"92 698 CURVE",
"92 594 LINE",
"179 563 OFFCURVE",
"223 522 OFFCURVE",
"223 469 CURVE SMOOTH",
"223 100 LINE SMOOTH",
"223 -24 OFFCURVE",
"288 -111 OFFCURVE",
"403 -111 CURVE SMOOTH",
"475 -111 LINE SMOOTH"
);
}
);
width = 594;
}
);
leftKerningGroup = braceleft;
note = braceleft;
rightKerningGroup = bracketleft;
unicode = 007B;
},
{
glyphname = bar;
lastChange = "2017-12-10 12:53:03 +0000";
layers = (
{
layerId = "BF2BE0AA-9B99-4172-A7AC-368BFC5C7956";
paths = (
{
closed = 1;
nodes = (
"356 1534 LINE",
"264 1534 LINE",
"264 -512 LINE",
"356 -512 LINE"
);
}
);
width = 621;
}
);
leftKerningGroup = bar;
note = bar;
rightKerningGroup = bar;
unicode = 007C;
},
{
glyphname = braceright;
lastChange = "2017-12-10 12:53:03 +0000";
layers = (
{
layerId = "BF2BE0AA-9B99-4172-A7AC-368BFC5C7956";
paths = (
{
closed = 1;
nodes = (
"261 -111 OFFCURVE",
"299 -86 OFFCURVE",
"342 -37 CURVE",
"361 -12 OFFCURVE",
"371 33 OFFCURVE",
"371 100 CURVE SMOOTH",
"371 469 LINE SMOOTH",
"371 522 OFFCURVE",
"415 563 OFFCURVE",
"502 594 CURVE",
"502 698 LINE",
"415 719 OFFCURVE",
"371 771 OFFCURVE",
"371 854 CURVE SMOOTH",
"371 1282 LINE SMOOTH",
"371 1417 OFFCURVE",
"315 1485 OFFCURVE",
"170 1485 CURVE SMOOTH",
"119 1485 LINE SMOOTH",
"118 1485 OFFCURVE",
"111 1485 OFFCURVE",
"98 1486 CURVE",
"85 1486 OFFCURVE",
"78 1486 OFFCURVE",
"78 1485 CURVE SMOOTH",
"78 1413 LINE",
"94 1416 OFFCURVE",
"112 1417 OFFCURVE",
"133 1417 CURVE SMOOTH",
"212 1417 OFFCURVE",
"252 1394 OFFCURVE",
"252 1348 CURVE SMOOTH",
"252 842 LINE SMOOTH",
"252 749 OFFCURVE",
"300 692 OFFCURVE",
"440 639 CURVE",
"319 600 OFFCURVE",
"252 553 OFFCURVE",
"252 473 CURVE SMOOTH",
"252 109 LINE SMOOTH",
"252 6 OFFCURVE",
"205 -45 OFFCURVE",
"111 -45 CURVE SMOOTH",
"101 -45 OFFCURVE",
"90 -43 OFFCURVE",
"78 -39 CURVE",
"78 -111 LINE",
"82 -112 OFFCURVE",
"86 -112 OFFCURVE",
"91 -112 CURVE SMOOTH",
"96 -112 OFFCURVE",
"101 -112 OFFCURVE",
"107 -111 CURVE",
"113 -111 OFFCURVE",
"118 -111 OFFCURVE",
"121 -111 CURVE SMOOTH",
"193 -111 LINE SMOOTH"
);
}
);
width = 594;
}
);
leftKerningGroup = bracketright;
note = braceright;
rightKerningGroup = braceright;
unicode = 007D;
},
{
glyphname = asciitilde;
lastChange = "2017-12-10 12:53:03 +0000";
layers = (
{
layerId = "BF2BE0AA-9B99-4172-A7AC-368BFC5C7956";
paths = (
{
closed = 1;
nodes = (
"868 379 OFFCURVE",
"944 477 OFFCURVE",
"944 645 CURVE",
"854 645 LINE",
"854 525 OFFCURVE",
"818 465 OFFCURVE",
"745 465 CURVE SMOOTH",
"698 465 OFFCURVE",
"658 494 OFFCURVE",
"624 531 CURVE SMOOTH",
"607 549 OFFCURVE",
"589 567 OFFCURVE",
"570 586 CURVE SMOOTH",
"532 622 OFFCURVE",
"472 651 OFFCURVE",
"403 651 CURVE SMOOTH",
"283 651 OFFCURVE",
"219 547 OFFCURVE",
"219 406 CURVE",
"301 406 LINE",
"298 498 OFFCURVE",
"330 569 OFFCURVE",
"406 569 CURVE SMOOTH",
"451 569 OFFCURVE",
"496 539 OFFCURVE",
"533 502 CURVE SMOOTH",
"551 483 OFFCURVE",
"570 465 OFFCURVE",
"589 446 CURVE SMOOTH",
"628 409 OFFCURVE",
"682 379 OFFCURVE",
"739 379 CURVE SMOOTH"
);
}
);
width = 1161;
}
);
leftKerningGroup = asciitilde;
note = asciitilde;
rightKerningGroup = asciitilde;
unicode = 007E;
},
{
glyphname = exclamdown;
lastChange = "2017-12-10 12:53:03 +0000";
layers = (
{
layerId = "BF2BE0AA-9B99-4172-A7AC-368BFC5C7956";
paths = (
{
closed = 1;
nodes = (
"401 999 LINE",
"223 999 LINE",
"223 823 LINE",
"401 823 LINE"
);
},
{
closed = 1;
nodes = (
"360 631 LINE",
"264 631 LINE",
"236 -436 LINE",
"389 -436 LINE"
);
}
);
width = 627;
}
);
leftKerningGroup = exclamdown;
note = exclamdown;
rightKerningGroup = exclamdown;
unicode = 00A1;
},
{
glyphname = cent;
lastChange = "2017-12-10 12:53:03 +0000";
layers = (
{
layerId = "BF2BE0AA-9B99-4172-A7AC-368BFC5C7956";
paths = (
{
closed = 1;
nodes = (
"649 -16 LINE",
"801 -4 OFFCURVE",
"922 90 OFFCURVE",
"973 238 CURVE",
"854 289 LINE",
"826 180 OFFCURVE",
"721 106 OFFCURVE",
"606 106 CURVE SMOOTH",
"502 106 OFFCURVE",
"423 157 OFFCURVE",
"380 235 CURVE SMOOTH",
"336 313 OFFCURVE",
"317 401 OFFCURVE",
"317 498 CURVE SMOOTH",
"317 594 OFFCURVE",
"337 684 OFFCURVE",
"381 761 CURVE SMOOTH",
"424 838 OFFCURVE",
"503 889 OFFCURVE",
"606 889 CURVE SMOOTH",
"722 889 OFFCURVE",
"825 814 OFFCURVE",
"854 707 CURVE",
"985 762 LINE",
"925 902 OFFCURVE",
"798 995 OFFCURVE",
"649 1012 CURVE",
"649 1200 LINE",
"557 1200 LINE",
"557 1012 LINE",
"476 1003 OFFCURVE",
"406 974 OFFCURVE",
"347 924 CURVE SMOOTH",
"230 823 OFFCURVE",
"178 674 OFFCURVE",
"178 498 CURVE SMOOTH",
"178 410 OFFCURVE",
"192 329 OFFCURVE",
"219 256 CURVE SMOOTH",
"274 109 OFFCURVE",
"394 2 OFFCURVE",
"557 -14 CURVE",
"557 -205 LINE",
"649 -205 LINE"
);
}
);
width = 1139;
}
);
leftKerningGroup = a;
note = cent;
rightKerningGroup = cent;
unicode = 00A2;
},
{
glyphname = sterling;
lastChange = "2017-12-10 12:53:03 +0000";
layers = (
{
layerId = "BF2BE0AA-9B99-4172-A7AC-368BFC5C7956";
paths = (
{
closed = 1;
nodes = (
"1180 115 LINE",
"344 115 LINE",
"362 132 LINE",
"387 153 OFFCURVE",
"426 200 OFFCURVE",
"462 254 CURVE SMOOTH",
"498 308 OFFCURVE",
"526 388 OFFCURVE",
"526 461 CURVE SMOOTH",
"526 517 OFFCURVE",
"519 578 OFFCURVE",
"504 645 CURVE",
"944 645 LINE",
"944 760 LINE",
"473 760 LINE",
"460 796 LINE SMOOTH",
"444 844 OFFCURVE",
"422 940 OFFCURVE",
"422 1012 CURVE SMOOTH",
"422 1191 OFFCURVE",
"526 1315 OFFCURVE",
"694 1315 CURVE SMOOTH",
"810 1315 OFFCURVE",
"904 1234 OFFCURVE",
"948 1110 CURVE",
"1057 1151 LINE",
"996 1315 OFFCURVE",
"863 1430 OFFCURVE",
"694 1430 CURVE SMOOTH",
"613 1430 OFFCURVE",
"543 1410 OFFCURVE",
"484 1371 CURVE SMOOTH",
"364 1292 OFFCURVE",
"307 1162 OFFCURVE",
"307 1010 CURVE SMOOTH",
"307 935 OFFCURVE",
"332 830 OFFCURVE",
"344 798 CURVE",
"349 782 OFFCURVE",
"354 769 OFFCURVE",
"358 760 CURVE",
"172 760 LINE",
"172 645 LINE",
"387 645 LINE",
"394 616 LINE SMOOTH",
"402 579 OFFCURVE",
"414 507 OFFCURVE",
"414 459 CURVE SMOOTH",
"414 398 OFFCURVE",
"372 316 OFFCURVE",
"329 261 CURVE SMOOTH",
"286 205 OFFCURVE",
"219 138 OFFCURVE",
"197 119 CURVE SMOOTH",
"186 109 OFFCURVE",
"177 101 OFFCURVE",
"170 96 CURVE",
"170 0 LINE",
"1180 0 LINE"
);
}
);
width = 1251;
}
);
note = sterling;
rightKerningGroup = sterling;
unicode = 00A3;
},
{
glyphname = currency;
lastChange = "2017-12-10 12:53:03 +0000";
layers = (
{
layerId = "BF2BE0AA-9B99-4172-A7AC-368BFC5C7956";
paths = (
{
closed = 1;
nodes = (
"500 220 OFFCURVE",
"589 189 OFFCURVE",
"690 189 CURVE SMOOTH",
"790 189 OFFCURVE",
"879 220 OFFCURVE",
"956 281 CURVE",
"1061 176 LINE",
"1143 264 LINE",
"1042 365 LINE",
"1103 442 OFFCURVE",
"1133 531 OFFCURVE",
"1133 631 CURVE SMOOTH",
"1133 731 OFFCURVE",
"1103 820 OFFCURVE",
"1042 897 CURVE",
"1143 999 LINE",
"1059 1083 LINE",
"956 981 LINE",
"800 1104 OFFCURVE",
"580 1102 OFFCURVE",
"424 979 CURVE",
"322 1085 LINE",
"238 995 LINE",
"340 895 LINE",
"217 743 OFFCURVE",
"219 520 OFFCURVE",
"340 367 CURVE",
"236 264 LINE",
"319 176 LINE",
"422 281 LINE"
);
},
{
closed = 1;
nodes = (
"334 526 OFFCURVE",
"336 733 OFFCURVE",
"459 856 CURVE SMOOTH",
"588 983 OFFCURVE",
"787 985 OFFCURVE",
"918 858 CURVE SMOOTH",
"981 795 OFFCURVE",
"1012 720 OFFCURVE",
"1013 631 CURVE SMOOTH",
"1013 453 OFFCURVE",
"868 306 OFFCURVE",
"689 306 CURVE SMOOTH",
"599 306 OFFCURVE",
"522 338 OFFCURVE",
"457 403 CURVE SMOOTH"
);
}
);
width = 1382;
}
);
note = currency;
unicode = 00A4;
},
{
glyphname = yen;
lastChange = "2017-12-10 12:53:03 +0000";
layers = (
{
layerId = "BF2BE0AA-9B99-4172-A7AC-368BFC5C7956";
paths = (
{
closed = 1;
nodes = (
"715 322 LINE",
"1016 322 LINE",
"1016 422 LINE",
"715 422 LINE",
"715 541 LINE",
"1016 541 LINE",
"1016 641 LINE",
"762 641 LINE",
"1237 1413 LINE",
"1092 1413 LINE",
"653 705 LINE",
"213 1413 LINE",
"66 1413 LINE",
"541 639 LINE",
"289 639 LINE",
"289 541 LINE",
"588 541 LINE",
"588 422 LINE",
"289 422 LINE",
"289 322 LINE",
"588 322 LINE",
"588 0 LINE",
"715 0 LINE"
);
}
);
width = 1303;
}
);
note = yen;
unicode = 00A5;
},
{
glyphname = brokenbar;
lastChange = "2017-12-10 12:53:03 +0000";
layers = (
{
layerId = "BF2BE0AA-9B99-4172-A7AC-368BFC5C7956";
paths = (
{
closed = 1;
nodes = (
"348 1475 LINE",
"264 1475 LINE",
"264 731 LINE",
"348 731 LINE"
);
},
{
closed = 1;
nodes = (
"348 420 LINE",
"264 420 LINE",
"264 -307 LINE",
"348 -307 LINE"
);
}
);
width = 612;
}
);
leftKerningGroup = brokenbar;
note = brokenbar;
rightKerningGroup = brokenbar;
unicode = 00A6;
},
{
glyphname = section;
lastChange = "2017-12-10 12:53:03 +0000";
layers = (
{
layerId = "BF2BE0AA-9B99-4172-A7AC-368BFC5C7956";
paths = (
{
closed = 1;
nodes = (
"665 -18 OFFCURVE",
"751 5 OFFCURVE",
"820 50 CURVE SMOOTH",
"888 94 OFFCURVE",
"932 173 OFFCURVE",
"932 272 CURVE SMOOTH",
"932 359 OFFCURVE",
"898 426 OFFCURVE",
"831 473 CURVE",
"898 526 OFFCURVE",
"932 597 OFFCURVE",
"932 688 CURVE SMOOTH",
"932 795 OFFCURVE",
"884 871 OFFCURVE",
"814 908 CURVE SMOOTH",
"744 945 OFFCURVE",
"654 968 OFFCURVE",
"569 984 CURVE SMOOTH",
"526 992 OFFCURVE",
"488 1001 OFFCURVE",
"453 1012 CURVE SMOOTH",
"383 1032 OFFCURVE",
"334 1074 OFFCURVE",
"334 1139 CURVE SMOOTH",
"334 1256 OFFCURVE",
"438 1319 OFFCURVE",
"555 1319 CURVE SMOOTH",
"686 1319 OFFCURVE",
"768 1260 OFFCURVE",
"801 1143 CURVE",
"924 1171 LINE",
"859 1347 OFFCURVE",
"730 1434 OFFCURVE",
"557 1434 CURVE SMOOTH",
"374 1434 OFFCURVE",
"219 1320 OFFCURVE",
"219 1143 CURVE SMOOTH",
"219 1063 OFFCURVE",
"260 987 OFFCURVE",
"324 946 CURVE",
"257 893 OFFCURVE",
"217 811 OFFCURVE",
"217 727 CURVE SMOOTH",
"217 686 OFFCURVE",
"224 650 OFFCURVE",
"238 619 CURVE SMOOTH",
"265 557 OFFCURVE",
"312 523 OFFCURVE",
"372 496 CURVE SMOOTH",
"432 469 OFFCURVE",
"500 455 OFFCURVE",
"566 442 CURVE SMOOTH",
"632 429 OFFCURVE",
"694 413 OFFCURVE",
"740 390 CURVE SMOOTH",
"786 367 OFFCURVE",
"815 329 OFFCURVE",
"815 274 CURVE SMOOTH",
"815 205 OFFCURVE",
"784 154 OFFCURVE",
"733 130 CURVE SMOOTH",
"682 105 OFFCURVE",
"630 96 OFFCURVE",
"569 96 CURVE SMOOTH",
"413 96 OFFCURVE",
"318 165 OFFCURVE",
"283 303 CURVE",
"168 262 LINE",
"224 78 OFFCURVE",
"370 -18 OFFCURVE",
"569 -18 CURVE SMOOTH"
);
},
{
closed = 1;
nodes = (
"676 529 OFFCURVE",
"611 543 OFFCURVE",
"563 553 CURVE SMOOTH",
"514 563 OFFCURVE",
"450 585 OFFCURVE",
"408 610 CURVE SMOOTH",
"366 634 OFFCURVE",
"334 677 OFFCURVE",
"334 729 CURVE SMOOTH",
"334 809 OFFCURVE",
"380 874 OFFCURVE",
"459 905 CURVE",
"470 902 OFFCURVE",
"491 898 OFFCURVE",
"520 893 CURVE SMOOTH",
"549 887 OFFCURVE",
"574 882 OFFCURVE",
"597 877 CURVE SMOOTH",
"642 868 OFFCURVE",
"707 845 OFFCURVE",
"746 820 CURVE SMOOTH",
"785 795 OFFCURVE",
"815 751 OFFCURVE",
"815 696 CURVE SMOOTH",
"815 612 OFFCURVE",
"777 554 OFFCURVE",
"700 522 CURVE"
);
}
);
width = 1128;
}
);
leftKerningGroup = section;
note = section;
unicode = 00A7;
},
{
glyphname = dieresis;
lastChange = "2017-12-10 12:53:03 +0000";
layers = (
{
layerId = "BF2BE0AA-9B99-4172-A7AC-368BFC5C7956";
paths = (
{
closed = 1;
nodes = (
"330 1413 LINE",
"170 1413 LINE",
"170 1229 LINE",
"330 1229 LINE"
);
},
{
closed = 1;
nodes = (
"662 1413 LINE",
"502 1413 LINE",
"502 1229 LINE",
"662 1229 LINE"
);
}
);
width = 831;
}
);
note = dieresis;
unicode = 00A8;
},
{
glyphname = copyright;
lastChange = "2017-12-10 12:53:03 +0000";
layers = (
{
layerId = "BF2BE0AA-9B99-4172-A7AC-368BFC5C7956";
paths = (
{
closed = 1;
nodes = (
"1078 -51 OFFCURVE",
"1270 35 OFFCURVE",
"1403 171 CURVE SMOOTH",
"1535 306 OFFCURVE",
"1620 502 OFFCURVE",
"1620 707 CURVE SMOOTH",
"1620 912 OFFCURVE",
"1535 1107 OFFCURVE",
"1403 1243 CURVE SMOOTH",
"1270 1378 OFFCURVE",
"1078 1464 OFFCURVE",
"877 1464 CURVE SMOOTH",
"674 1464 OFFCURVE",
"483 1378 OFFCURVE",
"351 1243 CURVE SMOOTH",
"218 1107 OFFCURVE",
"133 912 OFFCURVE",
"133 707 CURVE SMOOTH",
"133 502 OFFCURVE",
"218 306 OFFCURVE",
"351 171 CURVE SMOOTH",
"483 35 OFFCURVE",
"674 -51 OFFCURVE",
"877 -51 CURVE SMOOTH"
);
},
{
closed = 1;
nodes = (
"358 260 OFFCURVE",
"233 475 OFFCURVE",
"233 707 CURVE SMOOTH",
"233 880 OFFCURVE",
"308 1050 OFFCURVE",
"424 1168 CURVE SMOOTH",
"539 1286 OFFCURVE",
"706 1362 OFFCURVE",
"877 1362 CURVE SMOOTH",
"1048 1362 OFFCURVE",
"1213 1286 OFFCURVE",
"1329 1168 CURVE SMOOTH",
"1444 1050 OFFCURVE",
"1518 880 OFFCURVE",
"1518 707 CURVE SMOOTH",
"1518 591 OFFCURVE",
"1489 483 OFFCURVE",
"1431 382 CURVE SMOOTH",
"1315 180 OFFCURVE",
"1105 51 OFFCURVE",
"877 51 CURVE SMOOTH",
"763 51 OFFCURVE",
"656 81 OFFCURVE",
"557 141 CURVE SMOOTH"
);
},
{
closed = 1;
nodes = (
"1024 309 OFFCURVE",
"1136 375 OFFCURVE",
"1188 487 CURVE",
"1094 528 LINE",
"1058 455 OFFCURVE",
"976 412 OFFCURVE",
"891 412 CURVE SMOOTH",
"730 412 OFFCURVE",
"647 541 OFFCURVE",
"647 705 CURVE SMOOTH",
"647 870 OFFCURVE",
"732 999 OFFCURVE",
"893 999 CURVE SMOOTH",
"981 999 OFFCURVE",
"1059 956 OFFCURVE",
"1096 885 CURVE",
"1188 924 LINE",
"1136 1035 OFFCURVE",
"1022 1100 OFFCURVE",
"893 1100 CURVE SMOOTH",
"673 1100 OFFCURVE",
"549 934 OFFCURVE",
"549 705 CURVE SMOOTH",
"549 474 OFFCURVE",
"673 309 OFFCURVE",
"893 309 CURVE SMOOTH"
);
}
);
width = 1753;
}
);
leftKerningGroup = copyright;
note = copyright;
rightKerningGroup = copyright;
unicode = 00A9;
},
{
glyphname = ordfeminine;
lastChange = "2017-12-10 12:53:03 +0000";
layers = (
{
layerId = "BF2BE0AA-9B99-4172-A7AC-368BFC5C7956";
paths = (
{
closed = 1;
nodes = (
"441 709 OFFCURVE",
"517 752 OFFCURVE",
"580 848 CURVE",
"586 723 LINE",
"674 723 LINE",
"674 1153 LINE SMOOTH",
"674 1326 OFFCURVE",
"576 1434 OFFCURVE",
"401 1434 CURVE SMOOTH",
"281 1434 OFFCURVE",
"200 1391 OFFCURVE",
"131 1298 CURVE",
"215 1245 LINE",
"251 1301 OFFCURVE",
"320 1346 OFFCURVE",
"397 1346 CURVE SMOOTH",
"516 1346 OFFCURVE",
"575 1272 OFFCURVE",
"575 1124 CURVE",
"358 1124 LINE SMOOTH",
"201 1124 OFFCURVE",
"102 1058 OFFCURVE",
"102 918 CURVE SMOOTH",
"102 794 OFFCURVE",
"201 709 OFFCURVE",
"328 709 CURVE SMOOTH"
);
},
{
closed = 1;
nodes = (
"286 801 OFFCURVE",
"217 850 OFFCURVE",
"217 918 CURVE SMOOTH",
"217 991 OFFCURVE",
"282 1036 OFFCURVE",
"369 1036 CURVE SMOOTH",
"575 1036 LINE",
"578 917 OFFCURVE",
"477 801 OFFCURVE",
"354 801 CURVE SMOOTH"
);
}
);
width = 823;
}
);
leftKerningGroup = ordfeminine;
note = ordfeminine;
unicode = 00AA;
},
{
glyphname = guillemotleft;
lastChange = "2017-12-10 12:53:03 +0000";
layers = (
{
layerId = "BF2BE0AA-9B99-4172-A7AC-368BFC5C7956";
paths = (
{
closed = 1;
nodes = (
"233 512 LINE",
"430 680 LINE",
"430 829 LINE",
"76 512 LINE",
"430 193 LINE",
"430 342 LINE"
);
},
{
closed = 1;
nodes = (
"596 512 LINE",
"795 680 LINE",
"795 829 LINE",
"438 512 LINE",
"795 193 LINE",
"795 342 LINE"
);
}
);
width = 965;
}
);
note = guillemotleft;
unicode = 00AB;
},
{
glyphname = logicalnot;
lastChange = "2017-12-10 12:53:03 +0000";
layers = (
{
layerId = "BF2BE0AA-9B99-4172-A7AC-368BFC5C7956";
paths = (
{
closed = 1;
nodes = (
"1018 797 LINE",
"158 797 LINE",
"158 684 LINE",
"901 684 LINE",
"901 291 LINE",
"1018 291 LINE"
);
}
);
width = 1280;
}
);
note = logicalnot;
unicode = 00AC;
},
{
glyphname = uni00AD;
lastChange = "2017-12-10 12:53:03 +0000";
layers = (
{
layerId = "BF2BE0AA-9B99-4172-A7AC-368BFC5C7956";
paths = (
{
closed = 1;
nodes = (
"805 692 LINE",
"166 692 LINE",
"166 596 LINE",
"805 596 LINE"
);
}
);
width = 971;
}
);
note = uni00AD;
unicode = 00AD;
},
{
glyphname = registered;
lastChange = "2017-12-10 12:53:03 +0000";
layers = (
{
layerId = "BF2BE0AA-9B99-4172-A7AC-368BFC5C7956";
paths = (
{
closed = 1;
nodes = (
"1078 -49 OFFCURVE",
"1270 37 OFFCURVE",
"1403 173 CURVE SMOOTH",
"1535 308 OFFCURVE",
"1620 504 OFFCURVE",
"1620 709 CURVE SMOOTH",
"1620 914 OFFCURVE",
"1535 1109 OFFCURVE",
"1403 1245 CURVE SMOOTH",
"1270 1380 OFFCURVE",
"1078 1466 OFFCURVE",
"877 1466 CURVE SMOOTH",
"674 1466 OFFCURVE",
"483 1380 OFFCURVE",
"351 1245 CURVE SMOOTH",
"218 1109 OFFCURVE",
"133 914 OFFCURVE",
"133 709 CURVE SMOOTH",
"133 504 OFFCURVE",
"218 308 OFFCURVE",
"351 173 CURVE SMOOTH",
"483 37 OFFCURVE",
"674 -49 OFFCURVE",
"877 -49 CURVE SMOOTH"
);
},
{
closed = 1;
nodes = (
"760 45 OFFCURVE",
"652 75 OFFCURVE",
"552 135 CURVE SMOOTH",
"352 254 OFFCURVE",
"225 472 OFFCURVE",
"225 709 CURVE SMOOTH",
"225 828 OFFCURVE",
"255 938 OFFCURVE",
"314 1040 CURVE SMOOTH",
"432 1244 OFFCURVE",
"644 1372 OFFCURVE",
"877 1372 CURVE SMOOTH",
"993 1372 OFFCURVE",
"1101 1342 OFFCURVE",
"1201 1283 CURVE SMOOTH",
"1400 1163 OFFCURVE",
"1526 946 OFFCURVE",
"1526 709 CURVE SMOOTH",
"1526 590 OFFCURVE",
"1497 480 OFFCURVE",
"1438 378 CURVE SMOOTH",
"1321 173 OFFCURVE",
"1109 45 OFFCURVE",
"877 45 CURVE SMOOTH"
);
},
{
closed = 1;
nodes = (
"739 645 LINE",
"913 645 LINE",
"1092 307 LINE",
"1217 307 LINE",
"1014 653 LINE",
"1114 669 OFFCURVE",
"1186 740 OFFCURVE",
"1186 868 CURVE SMOOTH",
"1186 1020 OFFCURVE",
"1101 1096 OFFCURVE",
"930 1096 CURVE SMOOTH",
"633 1096 LINE",
"633 307 LINE",
"739 307 LINE"
);
},
{
closed = 1;
nodes = (
"930 999 LINE SMOOTH",
"1038 999 OFFCURVE",
"1090 960 OFFCURVE",
"1090 868 CURVE SMOOTH",
"1090 782 OFFCURVE",
"1037 739 OFFCURVE",
"930 739 CURVE SMOOTH",
"729 739 LINE",
"729 999 LINE"
);
}
);
width = 1753;
}
);
leftKerningGroup = copyright;
note = registered;
rightKerningGroup = copyright;
unicode = 00AE;
},
{
glyphname = macron;
lastChange = "2017-12-10 12:53:03 +0000";
layers = (
{
layerId = "BF2BE0AA-9B99-4172-A7AC-368BFC5C7956";
paths = (
{
closed = 1;
nodes = (
"698 1313 LINE",
"162 1313 LINE",
"162 1192 LINE",
"698 1192 LINE"
);
}
);
width = 868;
}
);
note = macron;
unicode = 00AF;
},
{
glyphname = degree;
lastChange = "2017-12-10 12:53:03 +0000";
layers = (
{
layerId = "BF2BE0AA-9B99-4172-A7AC-368BFC5C7956";
paths = (
{
closed = 1;
nodes = (
"645 848 OFFCURVE",
"776 980 OFFCURVE",
"776 1141 CURVE SMOOTH",
"776 1302 OFFCURVE",
"645 1434 OFFCURVE",
"485 1434 CURVE SMOOTH",
"324 1434 OFFCURVE",
"193 1302 OFFCURVE",
"193 1141 CURVE SMOOTH",
"193 980 OFFCURVE",
"324 848 OFFCURVE",
"485 848 CURVE SMOOTH"
);
},
{
closed = 1;
nodes = (
"366 924 OFFCURVE",
"268 1022 OFFCURVE",
"268 1141 CURVE SMOOTH",
"268 1260 OFFCURVE",
"366 1358 OFFCURVE",
"485 1358 CURVE SMOOTH",
"602 1358 OFFCURVE",
"700 1260 OFFCURVE",
"700 1141 CURVE SMOOTH",
"700 1022 OFFCURVE",
"602 924 OFFCURVE",
"485 924 CURVE SMOOTH"
);
}
);
width = 969;
}
);
note = degree;
unicode = 00B0;
},
{
glyphname = plusminus;
lastChange = "2017-12-10 12:53:03 +0000";
layers = (
{
layerId = "BF2BE0AA-9B99-4172-A7AC-368BFC5C7956";
paths = (
{
closed = 1;
nodes = (
"707 578 LINE",
"1163 578 LINE",
"1163 674 LINE",
"707 674 LINE",
"707 1143 LINE",
"610 1143 LINE",
"610 674 LINE",
"154 674 LINE",
"154 578 LINE",
"610 578 LINE",
"610 106 LINE",
"707 106 LINE"
);
},
{
closed = 1;
nodes = (
"1163 0 LINE",
"154 0 LINE",
"154 -96 LINE",
"1163 -96 LINE"
);
}
);
width = 1317;
}
);
note = plusminus;
unicode = 00B1;
},
{
glyphname = acute;
lastChange = "2017-12-10 12:53:03 +0000";
layers = (
{
layerId = "BF2BE0AA-9B99-4172-A7AC-368BFC5C7956";
paths = (
{
closed = 1;
nodes = (
"465 1413 LINE",
"289 1413 LINE",
"74 1124 LINE",
"197 1124 LINE"
);
}
);
width = 530;
}
);
note = acute;
unicode = 00B4;
},
{
glyphname = uni00B5;
lastChange = "2017-12-10 12:53:03 +0000";
layers = (
{
layerId = "BF2BE0AA-9B99-4172-A7AC-368BFC5C7956";
paths = (
{
closed = 1;
nodes = (
"406 33 LINE",
"464 -4 OFFCURVE",
"529 -23 OFFCURVE",
"602 -23 CURVE SMOOTH",
"750 -23 OFFCURVE",
"883 82 OFFCURVE",
"924 186 CURVE",
"924 0 LINE",
"1063 0 LINE",
"1063 999 LINE",
"924 999 LINE",
"924 424 LINE SMOOTH",
"924 253 OFFCURVE",
"783 100 OFFCURVE",
"616 100 CURVE SMOOTH",
"533 100 OFFCURVE",
"475 137 OFFCURVE",
"445 197 CURVE SMOOTH",
"415 257 OFFCURVE",
"403 320 OFFCURVE",
"403 399 CURVE SMOOTH",
"403 999 LINE",
"264 999 LINE",
"264 -266 LINE",
"383 -266 LINE"
);
}
);
width = 1298;
}
);
note = uni00B5;
unicode = 00B5;
},
{
glyphname = paragraph;
lastChange = "2017-12-10 12:53:03 +0000";
layers = (
{
layerId = "BF2BE0AA-9B99-4172-A7AC-368BFC5C7956";
paths = (
{
closed = 1;
nodes = (
"713 1413 LINE",
"586 1413 LINE SMOOTH",
"507 1413 OFFCURVE",
"433 1398 OFFCURVE",
"365 1368 CURVE SMOOTH",
"229 1307 OFFCURVE",
"133 1178 OFFCURVE",
"133 1018 CURVE SMOOTH",
"133 938 OFFCURVE",
"155 867 OFFCURVE",
"198 806 CURVE SMOOTH",
"285 683 OFFCURVE",
"427 623 OFFCURVE",
"586 623 CURVE",
"586 -246 LINE",
"713 -246 LINE"
);
},
{
closed = 1;
nodes = (
"1085 1413 LINE",
"958 1413 LINE",
"958 -246 LINE",
"1085 -246 LINE"
);
}
);
width = 1350;
}
);
leftKerningGroup = paragraph;
note = paragraph;
rightKerningGroup = paragraph;
unicode = 00B6;
},
{
glyphname = periodcentered;
lastChange = "2017-12-10 12:53:03 +0000";
layers = (
{
layerId = "BF2BE0AA-9B99-4172-A7AC-368BFC5C7956";
paths = (
{
closed = 1;
nodes = (
"431 769 OFFCURVE",
"442 796 OFFCURVE",
"442 829 CURVE SMOOTH",
"442 897 OFFCURVE",
"391 948 OFFCURVE",
"324 948 CURVE SMOOTH",
"256 948 OFFCURVE",
"205 898 OFFCURVE",
"205 829 CURVE SMOOTH",
"205 764 OFFCURVE",
"259 711 OFFCURVE",
"324 711 CURVE SMOOTH",
"357 711 OFFCURVE",
"385 723 OFFCURVE",
"408 746 CURVE SMOOTH"
);
}
);
width = 649;
}
);
leftKerningGroup = periodcentered;
note = periodcentered;
rightKerningGroup = periodcentered;
unicode = 00B7;
},
{
glyphname = cedilla;
lastChange = "2017-12-10 12:53:03 +0000";
layers = (
{
layerId = "BF2BE0AA-9B99-4172-A7AC-368BFC5C7956";
paths = (
{
closed = 1;
nodes = (
"391 -500 OFFCURVE",
"473 -402 OFFCURVE",
"473 -297 CURVE SMOOTH",
"473 -200 OFFCURVE",
"409 -122 OFFCURVE",
"289 -121 CURVE",
"354 0 LINE",
"242 0 LINE",
"150 -176 LINE",
"184 -176 LINE SMOOTH",
"309 -176 OFFCURVE",
"375 -236 OFFCURVE",
"375 -305 CURVE SMOOTH",
"375 -361 OFFCURVE",
"333 -406 OFFCURVE",
"272 -406 CURVE SMOOTH",
"223 -406 OFFCURVE",
"185 -369 OFFCURVE",
"178 -328 CURVE",
"88 -377 LINE",
"115 -446 OFFCURVE",
"183 -500 OFFCURVE",
"266 -500 CURVE SMOOTH"
);
}
);
width = 580;
}
);
note = cedilla;
unicode = 00B8;
},
{
glyphname = ordmasculine;
lastChange = "2017-12-10 12:53:03 +0000";
layers = (
{
layerId = "BF2BE0AA-9B99-4172-A7AC-368BFC5C7956";
paths = (
{
closed = 1;
nodes = (
"633 711 OFFCURVE",
"772 869 OFFCURVE",
"772 1073 CURVE SMOOTH",
"772 1276 OFFCURVE",
"633 1434 OFFCURVE",
"438 1434 CURVE SMOOTH",
"243 1434 OFFCURVE",
"102 1276 OFFCURVE",
"102 1073 CURVE SMOOTH",
"102 869 OFFCURVE",
"242 711 OFFCURVE",
"438 711 CURVE SMOOTH"
);
},
{
closed = 1;
nodes = (
"294 811 OFFCURVE",
"225 921 OFFCURVE",
"225 1073 CURVE SMOOTH",
"225 1121 OFFCURVE",
"232 1164 OFFCURVE",
"246 1202 CURVE SMOOTH",
"273 1278 OFFCURVE",
"341 1335 OFFCURVE",
"438 1335 CURVE SMOOTH",
"581 1335 OFFCURVE",
"649 1224 OFFCURVE",
"649 1073 CURVE SMOOTH",
"649 921 OFFCURVE",
"581 811 OFFCURVE",
"438 811 CURVE SMOOTH"
);
}
);
width = 874;
}
);
leftKerningGroup = ordmasculine;
note = ordmasculine;
unicode = 00BA;
},
{
glyphname = guillemotright;
lastChange = "2017-12-10 12:53:03 +0000";
layers = (
{
layerId = "BF2BE0AA-9B99-4172-A7AC-368BFC5C7956";
paths = (
{
closed = 1;
nodes = (
"168 829 LINE",
"168 680 LINE",
"365 512 LINE",
"168 342 LINE",
"168 193 LINE",
"522 512 LINE"
);
},
{
closed = 1;
nodes = (
"530 829 LINE",
"530 680 LINE",
"727 512 LINE",
"530 342 LINE",
"530 193 LINE",
"887 512 LINE"
);
}
);
width = 965;
}
);
note = guillemotright;
unicode = 00BB;
},
{
glyphname = questiondown;
lastChange = "2017-12-10 12:53:03 +0000";
layers = (
{
layerId = "BF2BE0AA-9B99-4172-A7AC-368BFC5C7956";
paths = (
{
closed = 1;
nodes = (
"606 999 LINE",
"428 999 LINE",
"428 823 LINE",
"606 823 LINE"
);
},
{
closed = 1;
nodes = (
"751 -434 OFFCURVE",
"921 -291 OFFCURVE",
"922 -68 CURVE",
"795 -68 LINE",
"794 -224 OFFCURVE",
"676 -319 OFFCURVE",
"520 -319 CURVE SMOOTH",
"360 -319 OFFCURVE",
"246 -239 OFFCURVE",
"246 -84 CURVE SMOOTH",
"246 -44 OFFCURVE",
"252 -9 OFFCURVE",
"265 20 CURVE SMOOTH",
"289 78 OFFCURVE",
"330 108 OFFCURVE",
"378 135 CURVE SMOOTH",
"425 162 OFFCURVE",
"474 187 OFFCURVE",
"514 220 CURVE SMOOTH",
"553 253 OFFCURVE",
"580 310 OFFCURVE",
"580 387 CURVE SMOOTH",
"580 635 LINE",
"461 635 LINE",
"461 389 LINE SMOOTH",
"461 361 OFFCURVE",
"455 337 OFFCURVE",
"442 316 CURVE SMOOTH",
"417 274 OFFCURVE",
"376 250 OFFCURVE",
"328 224 CURVE SMOOTH",
"279 198 OFFCURVE",
"228 166 OFFCURVE",
"189 124 CURVE SMOOTH",
"149 82 OFFCURVE",
"121 11 OFFCURVE",
"121 -80 CURVE SMOOTH",
"121 -304 OFFCURVE",
"293 -434 OFFCURVE",
"526 -434 CURVE SMOOTH"
);
}
);
width = 1026;
}
);
leftKerningGroup = questiondown;
note = questiondown;
rightKerningGroup = questiondown;
unicode = 00BF;
},
{
glyphname = Agrave;
lastChange = "2017-12-10 12:53:03 +0000";
layers = (
{
layerId = "BF2BE0AA-9B99-4172-A7AC-368BFC5C7956";
paths = (
{
closed = 1;
nodes = (
"506 1827 LINE",
"330 1827 LINE",
"575 1540 LINE",
"721 1540 LINE"
);
},
{
closed = 1;
nodes = (
"330 307 LINE",
"969 307 LINE",
"1077 0 LINE",
"1221 0 LINE",
"702 1413 LINE",
"598 1413 LINE",
"76 0 LINE",
"223 0 LINE"
);
},
{
closed = 1;
nodes = (
"924 434 LINE",
"375 434 LINE",
"651 1214 LINE"
);
}
);
width = 1296;
}
);
leftKerningGroup = A;
note = Agrave;
rightKerningGroup = A;
unicode = 00C0;
},
{
glyphname = Aacute;
lastChange = "2017-12-10 12:53:03 +0000";
layers = (
{
layerId = "BF2BE0AA-9B99-4172-A7AC-368BFC5C7956";
paths = (
{
closed = 1;
nodes = (
"950 1827 LINE",
"774 1827 LINE",
"559 1538 LINE",
"682 1538 LINE"
);
},
{
closed = 1;
nodes = (
"330 307 LINE",
"969 307 LINE",
"1077 0 LINE",
"1221 0 LINE",
"702 1413 LINE",
"598 1413 LINE",
"76 0 LINE",
"223 0 LINE"
);
},
{
closed = 1;
nodes = (
"924 434 LINE",
"375 434 LINE",
"651 1214 LINE"
);
}
);
width = 1296;
}
);
leftKerningGroup = A;
note = Aacute;
rightKerningGroup = A;
unicode = 00C1;
},
{
glyphname = Acircumflex;
lastChange = "2017-12-10 12:53:03 +0000";
layers = (
{
layerId = "BF2BE0AA-9B99-4172-A7AC-368BFC5C7956";
paths = (
{
closed = 1;
nodes = (
"649 1708 LINE",
"827 1512 LINE",
"981 1512 LINE",
"649 1868 LINE",
"317 1512 LINE",
"473 1512 LINE"
);
},
{
closed = 1;
nodes = (
"330 307 LINE",
"969 307 LINE",
"1077 0 LINE",
"1221 0 LINE",
"702 1413 LINE",
"598 1413 LINE",
"76 0 LINE",
"223 0 LINE"
);
},
{
closed = 1;
nodes = (
"924 434 LINE",
"375 434 LINE",
"651 1214 LINE"
);
}
);
width = 1296;
}
);
leftKerningGroup = A;
note = Acircumflex;
rightKerningGroup = A;
unicode = 00C2;
},
{
glyphname = Atilde;
lastChange = "2017-12-10 12:53:03 +0000";
layers = (
{
layerId = "BF2BE0AA-9B99-4172-A7AC-368BFC5C7956";
paths = (
{
closed = 1;
nodes = (
"879 1571 OFFCURVE",
"940 1662 OFFCURVE",
"940 1829 CURVE",
"844 1829 LINE",
"844 1724 OFFCURVE",
"819 1671 OFFCURVE",
"770 1671 CURVE SMOOTH",
"741 1671 OFFCURVE",
"712 1697 OFFCURVE",
"686 1729 CURVE SMOOTH",
"673 1745 OFFCURVE",
"659 1761 OFFCURVE",
"644 1777 CURVE SMOOTH",
"614 1809 OFFCURVE",
"567 1835 OFFCURVE",
"512 1835 CURVE SMOOTH",
"411 1835 OFFCURVE",
"354 1738 OFFCURVE",
"354 1594 CURVE",
"444 1594 LINE",
"444 1685 OFFCURVE",
"467 1731 OFFCURVE",
"514 1731 CURVE SMOOTH",
"545 1731 OFFCURVE",
"575 1706 OFFCURVE",
"603 1675 CURVE",
"616 1659 OFFCURVE",
"631 1643 OFFCURVE",
"646 1628 CURVE SMOOTH",
"676 1596 OFFCURVE",
"720 1571 OFFCURVE",
"768 1571 CURVE SMOOTH"
);
},
{
closed = 1;
nodes = (
"330 307 LINE",
"969 307 LINE",
"1077 0 LINE",
"1221 0 LINE",
"702 1413 LINE",
"598 1413 LINE",
"76 0 LINE",
"223 0 LINE"
);
},
{
closed = 1;
nodes = (
"924 434 LINE",
"375 434 LINE",
"651 1214 LINE"
);
}
);
width = 1296;
}
);
leftKerningGroup = A;
note = Atilde;
rightKerningGroup = A;
unicode = 00C3;
},
{
glyphname = Adieresis;
lastChange = "2017-12-10 12:53:03 +0000";
layers = (
{
layerId = "BF2BE0AA-9B99-4172-A7AC-368BFC5C7956";
paths = (
{
closed = 1;
nodes = (
"561 1827 LINE",
"401 1827 LINE",
"401 1643 LINE",
"561 1643 LINE"
);
},
{
closed = 1;
nodes = (
"893 1827 LINE",
"733 1827 LINE",
"733 1643 LINE",
"893 1643 LINE"
);
},
{
closed = 1;
nodes = (
"330 307 LINE",
"969 307 LINE",
"1077 0 LINE",
"1221 0 LINE",
"702 1413 LINE",
"598 1413 LINE",
"76 0 LINE",
"223 0 LINE"
);
},
{
closed = 1;
nodes = (
"924 434 LINE",
"375 434 LINE",
"651 1214 LINE"
);
}
);
width = 1296;
}
);
leftKerningGroup = A;
note = Adieresis;
rightKerningGroup = A;
unicode = 00C4;
},
{
glyphname = Aring;
lastChange = "2017-12-10 12:53:03 +0000";
layers = (
{
layerId = "BF2BE0AA-9B99-4172-A7AC-368BFC5C7956";
paths = (
{
closed = 1;
nodes = (
"330 307 LINE",
"969 307 LINE",
"1077 0 LINE",
"1221 0 LINE",
"729 1343 LINE",
"798 1372 OFFCURVE",
"846 1443 OFFCURVE",
"846 1522 CURVE SMOOTH",
"846 1633 OFFCURVE",
"755 1718 OFFCURVE",
"647 1718 CURVE SMOOTH",
"539 1718 OFFCURVE",
"453 1631 OFFCURVE",
"453 1522 CURVE SMOOTH",
"453 1441 OFFCURVE",
"500 1371 OFFCURVE",
"569 1339 CURVE",
"76 0 LINE",
"223 0 LINE"
);
},
{
closed = 1;
nodes = (
"558 1469 OFFCURVE",
"549 1493 OFFCURVE",
"549 1522 CURVE SMOOTH",
"549 1581 OFFCURVE",
"588 1620 OFFCURVE",
"647 1620 CURVE SMOOTH",
"706 1620 OFFCURVE",
"748 1578 OFFCURVE",
"748 1522 CURVE SMOOTH",
"748 1465 OFFCURVE",
"703 1421 OFFCURVE",
"647 1421 CURVE SMOOTH",
"619 1421 OFFCURVE",
"596 1431 OFFCURVE",
"577 1450 CURVE SMOOTH"
);
},
{
closed = 1;
nodes = (
"924 434 LINE",
"375 434 LINE",
"651 1214 LINE"
);
}
);
width = 1296;
}
);
leftKerningGroup = A;
note = Aring;
rightKerningGroup = A;
unicode = 00C5;
},
{
glyphname = AE;
lastChange = "2017-12-10 12:53:03 +0000";
layers = (
{
layerId = "BF2BE0AA-9B99-4172-A7AC-368BFC5C7956";
paths = (
{
closed = 1;
nodes = (
"328 307 LINE",
"811 307 LINE",
"811 0 LINE",
"1694 0 LINE",
"1694 115 LINE",
"946 115 LINE",
"946 649 LINE",
"1606 649 LINE",
"1606 764 LINE",
"946 764 LINE",
"946 1305 LINE",
"1694 1305 LINE",
"1694 1413 LINE",
"594 1413 LINE",
"76 0 LINE",
"217 0 LINE"
);
},
{
closed = 1;
nodes = (
"811 1305 LINE",
"811 434 LINE",
"369 434 LINE",
"682 1305 LINE"
);
}
);
width = 1804;
}
);
leftKerningGroup = A;
note = AE;
rightKerningGroup = E;
unicode = 00C6;
},
{
glyphname = Ccedilla;
lastChange = "2017-12-10 12:53:03 +0000";
layers = (
{
layerId = "BF2BE0AA-9B99-4172-A7AC-368BFC5C7956";
paths = (
{
closed = 1;
nodes = (
"1172 333 OFFCURVE",
"1136 273 OFFCURVE",
"1089 227 CURVE SMOOTH",
"996 134 OFFCURVE",
"892 102 OFFCURVE",
"764 102 CURVE SMOOTH",
"695 102 OFFCURVE",
"632 113 OFFCURVE",
"576 135 CURVE SMOOTH",
"464 179 OFFCURVE",
"392 254 OFFCURVE",
"341 359 CURVE SMOOTH",
"289 463 OFFCURVE",
"268 579 OFFCURVE",
"268 711 CURVE SMOOTH",
"268 776 OFFCURVE",
"274 837 OFFCURVE",
"285 895 CURVE SMOOTH",
"307 1010 OFFCURVE",
"357 1117 OFFCURVE",
"432 1192 CURVE SMOOTH",
"507 1267 OFFCURVE",
"621 1313 OFFCURVE",
"760 1313 CURVE SMOOTH",
"855 1313 OFFCURVE",
"940 1293 OFFCURVE",
"1021 1249 CURVE SMOOTH",
"1102 1205 OFFCURVE",
"1167 1121 OFFCURVE",
"1196 1012 CURVE",
"1319 1067 LINE",
"1228 1313 OFFCURVE",
"1045 1436 OFFCURVE",
"768 1436 CURVE SMOOTH",
"681 1436 OFFCURVE",
"603 1423 OFFCURVE",
"532 1398 CURVE SMOOTH",
"390 1347 OFFCURVE",
"296 1258 OFFCURVE",
"230 1135 CURVE SMOOTH",
"164 1012 OFFCURVE",
"135 871 OFFCURVE",
"135 711 CURVE SMOOTH",
"135 510 OFFCURVE",
"185 334 OFFCURVE",
"281 201 CURVE SMOOTH",
"377 68 OFFCURVE",
"535 -15 OFFCURVE",
"734 -20 CURVE",
"652 -176 LINE",
"686 -176 LINE SMOOTH",
"811 -176 OFFCURVE",
"877 -236 OFFCURVE",
"877 -305 CURVE SMOOTH",
"877 -361 OFFCURVE",
"835 -406 OFFCURVE",
"774 -406 CURVE SMOOTH",
"725 -406 OFFCURVE",
"687 -369 OFFCURVE",
"680 -328 CURVE",
"590 -377 LINE",
"617 -446 OFFCURVE",
"685 -500 OFFCURVE",
"768 -500 CURVE SMOOTH",
"893 -500 OFFCURVE",
"975 -402 OFFCURVE",
"975 -297 CURVE SMOOTH",
"975 -200 OFFCURVE",
"911 -122 OFFCURVE",
"791 -121 CURVE",
"849 -14 LINE",
"1068 15 OFFCURVE",
"1229 142 OFFCURVE",
"1321 350 CURVE",
"1198 406 LINE"
);
}
);
width = 1417;
}
);
leftKerningGroup = C;
note = Ccedilla;
rightKerningGroup = C;
unicode = 00C7;
},
{
glyphname = Egrave;
lastChange = "2017-12-10 12:53:03 +0000";
layers = (
{
layerId = "BF2BE0AA-9B99-4172-A7AC-368BFC5C7956";
paths = (
{
closed = 1;
nodes = (
"535 1827 LINE",
"359 1827 LINE",
"604 1540 LINE",
"750 1540 LINE"
);
},
{
closed = 1;
nodes = (
"1128 121 LINE",
"354 121 LINE",
"354 653 LINE",
"1016 653 LINE",
"1016 762 LINE",
"354 762 LINE",
"354 1300 LINE",
"1128 1300 LINE",
"1128 1413 LINE",
"219 1413 LINE",
"219 0 LINE",
"1128 0 LINE"
);
}
);
width = 1237;
}
);
leftKerningGroup = B;
note = Egrave;
rightKerningGroup = E;
unicode = 00C8;
},
{
glyphname = Eacute;
lastChange = "2017-12-10 12:53:03 +0000";
layers = (
{
layerId = "BF2BE0AA-9B99-4172-A7AC-368BFC5C7956";
paths = (
{
closed = 1;
nodes = (
"979 1827 LINE",
"803 1827 LINE",
"588 1538 LINE",
"711 1538 LINE"
);
},
{
closed = 1;
nodes = (
"1128 121 LINE",
"354 121 LINE",
"354 653 LINE",
"1016 653 LINE",
"1016 762 LINE",
"354 762 LINE",
"354 1300 LINE",
"1128 1300 LINE",
"1128 1413 LINE",
"219 1413 LINE",
"219 0 LINE",
"1128 0 LINE"
);
}
);
width = 1237;
}
);
leftKerningGroup = B;
note = Eacute;
rightKerningGroup = E;
unicode = 00C9;
},
{
glyphname = Ecircumflex;
lastChange = "2017-12-10 12:53:03 +0000";
layers = (
{
layerId = "BF2BE0AA-9B99-4172-A7AC-368BFC5C7956";
paths = (
{
closed = 1;
nodes = (
"678 1708 LINE",
"856 1512 LINE",
"1010 1512 LINE",
"678 1868 LINE",
"346 1512 LINE",
"502 1512 LINE"
);
},
{
closed = 1;
nodes = (
"1128 121 LINE",
"354 121 LINE",
"354 653 LINE",
"1016 653 LINE",
"1016 762 LINE",
"354 762 LINE",
"354 1300 LINE",
"1128 1300 LINE",
"1128 1413 LINE",
"219 1413 LINE",
"219 0 LINE",
"1128 0 LINE"
);
}
);
width = 1237;
}
);
leftKerningGroup = B;
note = Ecircumflex;
rightKerningGroup = E;
unicode = 00CA;
},
{
glyphname = Edieresis;
lastChange = "2017-12-10 12:53:03 +0000";
layers = (
{
layerId = "BF2BE0AA-9B99-4172-A7AC-368BFC5C7956";
paths = (
{
closed = 1;
nodes = (
"590 1827 LINE",
"430 1827 LINE",
"430 1643 LINE",
"590 1643 LINE"
);
},
{
closed = 1;
nodes = (
"922 1827 LINE",
"762 1827 LINE",
"762 1643 LINE",
"922 1643 LINE"
);
},
{
closed = 1;
nodes = (
"1128 121 LINE",
"354 121 LINE",
"354 653 LINE",
"1016 653 LINE",
"1016 762 LINE",
"354 762 LINE",
"354 1300 LINE",
"1128 1300 LINE",
"1128 1413 LINE",
"219 1413 LINE",
"219 0 LINE",
"1128 0 LINE"
);
}
);
width = 1237;
}
);
leftKerningGroup = B;
note = Edieresis;
rightKerningGroup = E;
unicode = 00CB;
},
{
glyphname = Igrave;
lastChange = "2017-12-10 12:53:03 +0000";
layers = (
{
layerId = "BF2BE0AA-9B99-4172-A7AC-368BFC5C7956";
paths = (
{
closed = 1;
nodes = (
"142 1827 LINE",
"-34 1827 LINE",
"211 1540 LINE",
"357 1540 LINE"
);
},
{
closed = 1;
nodes = (
"354 1413 LINE",
"219 1413 LINE",
"219 0 LINE",
"354 0 LINE"
);
}
);
width = 573;
}
);
leftKerningGroup = B;
note = Igrave;
rightKerningGroup = H;
unicode = 00CC;
},
{
glyphname = Iacute;
lastChange = "2017-12-10 12:53:03 +0000";
layers = (
{
layerId = "BF2BE0AA-9B99-4172-A7AC-368BFC5C7956";
paths = (
{
closed = 1;
nodes = (
"586 1827 LINE",
"410 1827 LINE",
"195 1538 LINE",
"318 1538 LINE"
);
},
{
closed = 1;
nodes = (
"354 1413 LINE",
"219 1413 LINE",
"219 0 LINE",
"354 0 LINE"
);
}
);
width = 573;
}
);
leftKerningGroup = B;
note = Iacute;
rightKerningGroup = H;
unicode = 00CD;
},
{
glyphname = Icircumflex;
lastChange = "2017-12-10 12:53:03 +0000";
layers = (
{
layerId = "BF2BE0AA-9B99-4172-A7AC-368BFC5C7956";
paths = (
{
closed = 1;
nodes = (
"285 1708 LINE",
"463 1512 LINE",
"617 1512 LINE",
"285 1868 LINE",
"-47 1512 LINE",
"109 1512 LINE"
);
},
{
closed = 1;
nodes = (
"354 1413 LINE",
"219 1413 LINE",
"219 0 LINE",
"354 0 LINE"
);
}
);
width = 573;
}
);
leftKerningGroup = B;
note = Icircumflex;
rightKerningGroup = H;
unicode = 00CE;
},
{
glyphname = Idieresis;
lastChange = "2017-12-10 12:53:03 +0000";
layers = (
{
layerId = "BF2BE0AA-9B99-4172-A7AC-368BFC5C7956";
paths = (
{
closed = 1;
nodes = (
"197 1827 LINE",
"37 1827 LINE",
"37 1643 LINE",
"197 1643 LINE"
);
},
{
closed = 1;
nodes = (
"529 1827 LINE",
"369 1827 LINE",
"369 1643 LINE",
"529 1643 LINE"
);
},
{
closed = 1;
nodes = (
"354 1413 LINE",
"219 1413 LINE",
"219 0 LINE",
"354 0 LINE"
);
}
);
width = 573;
}
);
leftKerningGroup = B;
note = Idieresis;
rightKerningGroup = H;
unicode = 00CF;
},
{
glyphname = Eth;
lastChange = "2017-12-10 12:53:03 +0000";
layers = (
{
layerId = "BF2BE0AA-9B99-4172-A7AC-368BFC5C7956";
paths = (
{
closed = 1;
nodes = (
"1037 0 OFFCURVE",
"1290 251 OFFCURVE",
"1290 696 CURVE SMOOTH",
"1290 1160 OFFCURVE",
"1043 1413 OFFCURVE",
"592 1413 CURVE SMOOTH",
"236 1413 LINE",
"236 762 LINE",
"123 762 LINE",
"123 664 LINE",
"236 664 LINE",
"236 0 LINE",
"590 0 LINE SMOOTH"
);
},
{
closed = 1;
nodes = (
"760 664 LINE",
"760 762 LINE",
"379 762 LINE",
"379 1286 LINE",
"588 1286 LINE SMOOTH",
"956 1286 OFFCURVE",
"1145 1083 OFFCURVE",
"1145 707 CURVE SMOOTH",
"1145 511 OFFCURVE",
"1083 358 OFFCURVE",
"978 267 CURVE SMOOTH",
"873 175 OFFCURVE",
"733 129 OFFCURVE",
"565 129 CURVE SMOOTH",
"379 129 LINE",
"379 664 LINE"
);
}
);
width = 1421;
}
);
leftKerningGroup = Eth;
note = Eth;
rightKerningGroup = D;
unicode = 00D0;
},
{
glyphname = Ntilde;
lastChange = "2017-12-10 12:53:03 +0000";
layers = (
{
layerId = "BF2BE0AA-9B99-4172-A7AC-368BFC5C7956";
paths = (
{
closed = 1;
nodes = (
"932 1571 OFFCURVE",
"993 1662 OFFCURVE",
"993 1829 CURVE",
"897 1829 LINE",
"897 1724 OFFCURVE",
"872 1671 OFFCURVE",
"823 1671 CURVE SMOOTH",
"794 1671 OFFCURVE",
"765 1697 OFFCURVE",
"739 1729 CURVE SMOOTH",
"726 1745 OFFCURVE",
"712 1761 OFFCURVE",
"697 1777 CURVE SMOOTH",
"667 1809 OFFCURVE",
"620 1835 OFFCURVE",
"565 1835 CURVE SMOOTH",
"464 1835 OFFCURVE",
"407 1738 OFFCURVE",
"407 1594 CURVE",
"497 1594 LINE",
"497 1685 OFFCURVE",
"520 1731 OFFCURVE",
"567 1731 CURVE SMOOTH",
"598 1731 OFFCURVE",
"628 1706 OFFCURVE",
"656 1675 CURVE",
"669 1659 OFFCURVE",
"684 1643 OFFCURVE",
"699 1628 CURVE SMOOTH",
"729 1596 OFFCURVE",
"773 1571 OFFCURVE",
"821 1571 CURVE SMOOTH"
);
},
{
closed = 1;
nodes = (
"356 1311 LINE",
"963 0 LINE",
"1190 0 LINE",
"1190 1413 LINE",
"1055 1413 LINE",
"1055 104 LINE",
"442 1413 LINE",
"219 1413 LINE",
"219 0 LINE",
"356 0 LINE"
);
}
);
width = 1409;
}
);
leftKerningGroup = B;
note = Ntilde;
rightKerningGroup = H;
unicode = 00D1;
},
{
glyphname = Ograve;
lastChange = "2017-12-10 12:53:03 +0000";
layers = (
{
layerId = "BF2BE0AA-9B99-4172-A7AC-368BFC5C7956";
paths = (
{
closed = 1;
nodes = (
"611 1827 LINE",
"435 1827 LINE",
"680 1540 LINE",
"826 1540 LINE"
);
},
{
closed = 1;
nodes = (
"837 -20 OFFCURVE",
"913 -7 OFFCURVE",
"982 18 CURVE SMOOTH",
"1120 69 OFFCURVE",
"1213 158 OFFCURVE",
"1280 281 CURVE SMOOTH",
"1347 404 OFFCURVE",
"1378 547 OFFCURVE",
"1378 707 CURVE SMOOTH",
"1378 786 OFFCURVE",
"1370 862 OFFCURVE",
"1354 934 CURVE SMOOTH",
"1322 1077 OFFCURVE",
"1254 1203 OFFCURVE",
"1158 1292 CURVE SMOOTH",
"1061 1380 OFFCURVE",
"919 1434 OFFCURVE",
"754 1434 CURVE SMOOTH",
"672 1434 OFFCURVE",
"597 1421 OFFCURVE",
"529 1396 CURVE SMOOTH",
"392 1345 OFFCURVE",
"298 1255 OFFCURVE",
"231 1133 CURVE SMOOTH",
"164 1011 OFFCURVE",
"133 866 OFFCURVE",
"133 707 CURVE SMOOTH",
"133 507 OFFCURVE",
"185 331 OFFCURVE",
"285 197 CURVE SMOOTH",
"385 63 OFFCURVE",
"550 -20 OFFCURVE",
"754 -20 CURVE SMOOTH"
);
},
{
closed = 1;
nodes = (
"687 106 OFFCURVE",
"625 117 OFFCURVE",
"570 139 CURVE SMOOTH",
"458 182 OFFCURVE",
"386 258 OFFCURVE",
"334 361 CURVE SMOOTH",
"282 464 OFFCURVE",
"260 579 OFFCURVE",
"260 707 CURVE SMOOTH",
"260 770 OFFCURVE",
"266 831 OFFCURVE",
"278 889 CURVE SMOOTH",
"301 1004 OFFCURVE",
"354 1110 OFFCURVE",
"430 1186 CURVE SMOOTH",
"505 1261 OFFCURVE",
"619 1307 OFFCURVE",
"754 1307 CURVE SMOOTH",
"823 1307 OFFCURVE",
"885 1296 OFFCURVE",
"942 1275 CURVE SMOOTH",
"1054 1231 OFFCURVE",
"1127 1155 OFFCURVE",
"1179 1052 CURVE SMOOTH",
"1231 949 OFFCURVE",
"1253 835 OFFCURVE",
"1253 707 CURVE SMOOTH",
"1253 546 OFFCURVE",
"1214 405 OFFCURVE",
"1137 291 CURVE SMOOTH",
"1060 177 OFFCURVE",
"925 106 OFFCURVE",
"754 106 CURVE SMOOTH"
);
}
);
width = 1511;
}
);
leftKerningGroup = C;
note = Ograve;
rightKerningGroup = D;
unicode = 00D2;
},
{
glyphname = Oacute;
lastChange = "2017-12-10 12:53:03 +0000";
layers = (
{
layerId = "BF2BE0AA-9B99-4172-A7AC-368BFC5C7956";
paths = (
{
closed = 1;
nodes = (
"1055 1827 LINE",
"879 1827 LINE",
"664 1538 LINE",
"787 1538 LINE"
);
},
{
closed = 1;
nodes = (
"837 -20 OFFCURVE",
"913 -7 OFFCURVE",
"982 18 CURVE SMOOTH",
"1120 69 OFFCURVE",
"1213 158 OFFCURVE",
"1280 281 CURVE SMOOTH",
"1347 404 OFFCURVE",
"1378 547 OFFCURVE",
"1378 707 CURVE SMOOTH",
"1378 786 OFFCURVE",
"1370 862 OFFCURVE",
"1354 934 CURVE SMOOTH",
"1322 1077 OFFCURVE",
"1254 1203 OFFCURVE",
"1158 1292 CURVE SMOOTH",
"1061 1380 OFFCURVE",
"919 1434 OFFCURVE",
"754 1434 CURVE SMOOTH",
"672 1434 OFFCURVE",
"597 1421 OFFCURVE",
"529 1396 CURVE SMOOTH",
"392 1345 OFFCURVE",
"298 1255 OFFCURVE",
"231 1133 CURVE SMOOTH",
"164 1011 OFFCURVE",
"133 866 OFFCURVE",
"133 707 CURVE SMOOTH",
"133 507 OFFCURVE",
"185 331 OFFCURVE",
"285 197 CURVE SMOOTH",
"385 63 OFFCURVE",
"550 -20 OFFCURVE",
"754 -20 CURVE SMOOTH"
);
},
{
closed = 1;
nodes = (
"687 106 OFFCURVE",
"625 117 OFFCURVE",
"570 139 CURVE SMOOTH",
"458 182 OFFCURVE",
"386 258 OFFCURVE",
"334 361 CURVE SMOOTH",
"282 464 OFFCURVE",
"260 579 OFFCURVE",
"260 707 CURVE SMOOTH",
"260 770 OFFCURVE",
"266 831 OFFCURVE",
"278 889 CURVE SMOOTH",
"301 1004 OFFCURVE",
"354 1110 OFFCURVE",
"430 1186 CURVE SMOOTH",
"505 1261 OFFCURVE",
"619 1307 OFFCURVE",
"754 1307 CURVE SMOOTH",
"823 1307 OFFCURVE",
"885 1296 OFFCURVE",
"942 1275 CURVE SMOOTH",
"1054 1231 OFFCURVE",
"1127 1155 OFFCURVE",
"1179 1052 CURVE SMOOTH",
"1231 949 OFFCURVE",
"1253 835 OFFCURVE",
"1253 707 CURVE SMOOTH",
"1253 546 OFFCURVE",
"1214 405 OFFCURVE",
"1137 291 CURVE SMOOTH",
"1060 177 OFFCURVE",
"925 106 OFFCURVE",
"754 106 CURVE SMOOTH"
);
}
);
width = 1511;
}
);
leftKerningGroup = C;
note = Oacute;
rightKerningGroup = D;
unicode = 00D3;
},
{
glyphname = Ocircumflex;
lastChange = "2017-12-10 12:53:03 +0000";
layers = (
{
layerId = "BF2BE0AA-9B99-4172-A7AC-368BFC5C7956";
paths = (
{
closed = 1;
nodes = (
"754 1708 LINE",
"932 1512 LINE",
"1086 1512 LINE",
"754 1868 LINE",
"422 1512 LINE",
"578 1512 LINE"
);
},
{
closed = 1;
nodes = (
"837 -20 OFFCURVE",
"913 -7 OFFCURVE",
"982 18 CURVE SMOOTH",
"1120 69 OFFCURVE",
"1213 158 OFFCURVE",
"1280 281 CURVE SMOOTH",
"1347 404 OFFCURVE",
"1378 547 OFFCURVE",
"1378 707 CURVE SMOOTH",
"1378 786 OFFCURVE",
"1370 862 OFFCURVE",
"1354 934 CURVE SMOOTH",
"1322 1077 OFFCURVE",
"1254 1203 OFFCURVE",
"1158 1292 CURVE SMOOTH",
"1061 1380 OFFCURVE",
"919 1434 OFFCURVE",
"754 1434 CURVE SMOOTH",
"672 1434 OFFCURVE",
"597 1421 OFFCURVE",
"529 1396 CURVE SMOOTH",
"392 1345 OFFCURVE",
"298 1255 OFFCURVE",
"231 1133 CURVE SMOOTH",
"164 1011 OFFCURVE",
"133 866 OFFCURVE",
"133 707 CURVE SMOOTH",
"133 507 OFFCURVE",
"185 331 OFFCURVE",
"285 197 CURVE SMOOTH",
"385 63 OFFCURVE",
"550 -20 OFFCURVE",
"754 -20 CURVE SMOOTH"
);
},
{
closed = 1;
nodes = (
"687 106 OFFCURVE",
"625 117 OFFCURVE",
"570 139 CURVE SMOOTH",
"458 182 OFFCURVE",
"386 258 OFFCURVE",
"334 361 CURVE SMOOTH",
"282 464 OFFCURVE",
"260 579 OFFCURVE",
"260 707 CURVE SMOOTH",
"260 770 OFFCURVE",
"266 831 OFFCURVE",
"278 889 CURVE SMOOTH",
"301 1004 OFFCURVE",
"354 1110 OFFCURVE",
"430 1186 CURVE SMOOTH",
"505 1261 OFFCURVE",
"619 1307 OFFCURVE",
"754 1307 CURVE SMOOTH",
"823 1307 OFFCURVE",
"885 1296 OFFCURVE",
"942 1275 CURVE SMOOTH",
"1054 1231 OFFCURVE",
"1127 1155 OFFCURVE",
"1179 1052 CURVE SMOOTH",
"1231 949 OFFCURVE",
"1253 835 OFFCURVE",
"1253 707 CURVE SMOOTH",
"1253 546 OFFCURVE",
"1214 405 OFFCURVE",
"1137 291 CURVE SMOOTH",
"1060 177 OFFCURVE",
"925 106 OFFCURVE",
"754 106 CURVE SMOOTH"
);
}
);
width = 1511;
}
);
leftKerningGroup = C;
note = Ocircumflex;
rightKerningGroup = D;
unicode = 00D4;
},
{
glyphname = Otilde;
lastChange = "2017-12-10 12:53:03 +0000";
layers = (
{
layerId = "BF2BE0AA-9B99-4172-A7AC-368BFC5C7956";
paths = (
{
closed = 1;
nodes = (
"984 1571 OFFCURVE",
"1045 1662 OFFCURVE",
"1045 1829 CURVE",
"949 1829 LINE",
"949 1724 OFFCURVE",
"924 1671 OFFCURVE",
"875 1671 CURVE SMOOTH",
"846 1671 OFFCURVE",
"817 1697 OFFCURVE",
"791 1729 CURVE SMOOTH",
"778 1745 OFFCURVE",
"764 1761 OFFCURVE",
"749 1777 CURVE SMOOTH",
"719 1809 OFFCURVE",
"672 1835 OFFCURVE",
"617 1835 CURVE SMOOTH",
"516 1835 OFFCURVE",
"459 1738 OFFCURVE",
"459 1594 CURVE",
"549 1594 LINE",
"549 1685 OFFCURVE",
"572 1731 OFFCURVE",
"619 1731 CURVE SMOOTH",
"650 1731 OFFCURVE",
"680 1706 OFFCURVE",
"708 1675 CURVE",
"721 1659 OFFCURVE",
"736 1643 OFFCURVE",
"751 1628 CURVE SMOOTH",
"781 1596 OFFCURVE",
"825 1571 OFFCURVE",
"873 1571 CURVE SMOOTH"
);
},
{
closed = 1;
nodes = (
"837 -20 OFFCURVE",
"913 -7 OFFCURVE",
"982 18 CURVE SMOOTH",
"1120 69 OFFCURVE",
"1213 158 OFFCURVE",
"1280 281 CURVE SMOOTH",
"1347 404 OFFCURVE",
"1378 547 OFFCURVE",
"1378 707 CURVE SMOOTH",
"1378 786 OFFCURVE",
"1370 862 OFFCURVE",
"1354 934 CURVE SMOOTH",
"1322 1077 OFFCURVE",
"1254 1203 OFFCURVE",
"1158 1292 CURVE SMOOTH",
"1061 1380 OFFCURVE",
"919 1434 OFFCURVE",
"754 1434 CURVE SMOOTH",
"672 1434 OFFCURVE",
"597 1421 OFFCURVE",
"529 1396 CURVE SMOOTH",
"392 1345 OFFCURVE",
"298 1255 OFFCURVE",
"231 1133 CURVE SMOOTH",
"164 1011 OFFCURVE",
"133 866 OFFCURVE",
"133 707 CURVE SMOOTH",
"133 507 OFFCURVE",
"185 331 OFFCURVE",
"285 197 CURVE SMOOTH",
"385 63 OFFCURVE",
"550 -20 OFFCURVE",
"754 -20 CURVE SMOOTH"
);
},
{
closed = 1;
nodes = (
"687 106 OFFCURVE",
"625 117 OFFCURVE",
"570 139 CURVE SMOOTH",
"458 182 OFFCURVE",
"386 258 OFFCURVE",
"334 361 CURVE SMOOTH",
"282 464 OFFCURVE",
"260 579 OFFCURVE",
"260 707 CURVE SMOOTH",
"260 770 OFFCURVE",
"266 831 OFFCURVE",
"278 889 CURVE SMOOTH",
"301 1004 OFFCURVE",
"354 1110 OFFCURVE",
"430 1186 CURVE SMOOTH",
"505 1261 OFFCURVE",
"619 1307 OFFCURVE",
"754 1307 CURVE SMOOTH",
"823 1307 OFFCURVE",
"885 1296 OFFCURVE",
"942 1275 CURVE SMOOTH",
"1054 1231 OFFCURVE",
"1127 1155 OFFCURVE",
"1179 1052 CURVE SMOOTH",
"1231 949 OFFCURVE",
"1253 835 OFFCURVE",
"1253 707 CURVE SMOOTH",
"1253 546 OFFCURVE",
"1214 405 OFFCURVE",
"1137 291 CURVE SMOOTH",
"1060 177 OFFCURVE",
"925 106 OFFCURVE",
"754 106 CURVE SMOOTH"
);
}
);
width = 1511;
}
);
leftKerningGroup = C;
note = Otilde;
rightKerningGroup = D;
unicode = 00D5;
},
{
glyphname = Odieresis;
lastChange = "2017-12-10 12:53:03 +0000";
layers = (
{
layerId = "BF2BE0AA-9B99-4172-A7AC-368BFC5C7956";
paths = (
{
closed = 1;
nodes = (
"666 1827 LINE",
"506 1827 LINE",
"506 1643 LINE",
"666 1643 LINE"
);
},
{
closed = 1;
nodes = (
"998 1827 LINE",
"838 1827 LINE",
"838 1643 LINE",
"998 1643 LINE"
);
},
{
closed = 1;
nodes = (
"837 -20 OFFCURVE",
"913 -7 OFFCURVE",
"982 18 CURVE SMOOTH",
"1120 69 OFFCURVE",
"1213 158 OFFCURVE",
"1280 281 CURVE SMOOTH",
"1347 404 OFFCURVE",
"1378 547 OFFCURVE",
"1378 707 CURVE SMOOTH",
"1378 786 OFFCURVE",
"1370 862 OFFCURVE",
"1354 934 CURVE SMOOTH",
"1322 1077 OFFCURVE",
"1254 1203 OFFCURVE",
"1158 1292 CURVE SMOOTH",
"1061 1380 OFFCURVE",
"919 1434 OFFCURVE",
"754 1434 CURVE SMOOTH",
"672 1434 OFFCURVE",
"597 1421 OFFCURVE",
"529 1396 CURVE SMOOTH",
"392 1345 OFFCURVE",
"298 1255 OFFCURVE",
"231 1133 CURVE SMOOTH",
"164 1011 OFFCURVE",
"133 866 OFFCURVE",
"133 707 CURVE SMOOTH",
"133 507 OFFCURVE",
"185 331 OFFCURVE",
"285 197 CURVE SMOOTH",
"385 63 OFFCURVE",
"550 -20 OFFCURVE",
"754 -20 CURVE SMOOTH"
);
},
{
closed = 1;
nodes = (
"687 106 OFFCURVE",
"625 117 OFFCURVE",
"570 139 CURVE SMOOTH",
"458 182 OFFCURVE",
"386 258 OFFCURVE",
"334 361 CURVE SMOOTH",
"282 464 OFFCURVE",
"260 579 OFFCURVE",
"260 707 CURVE SMOOTH",
"260 770 OFFCURVE",
"266 831 OFFCURVE",
"278 889 CURVE SMOOTH",
"301 1004 OFFCURVE",
"354 1110 OFFCURVE",
"430 1186 CURVE SMOOTH",
"505 1261 OFFCURVE",
"619 1307 OFFCURVE",
"754 1307 CURVE SMOOTH",
"823 1307 OFFCURVE",
"885 1296 OFFCURVE",
"942 1275 CURVE SMOOTH",
"1054 1231 OFFCURVE",
"1127 1155 OFFCURVE",
"1179 1052 CURVE SMOOTH",
"1231 949 OFFCURVE",
"1253 835 OFFCURVE",
"1253 707 CURVE SMOOTH",
"1253 546 OFFCURVE",
"1214 405 OFFCURVE",
"1137 291 CURVE SMOOTH",
"1060 177 OFFCURVE",
"925 106 OFFCURVE",
"754 106 CURVE SMOOTH"
);
}
);
width = 1511;
}
);
leftKerningGroup = C;
note = Odieresis;
rightKerningGroup = D;
unicode = 00D6;
},
{
glyphname = multiply;
lastChange = "2017-12-10 12:53:03 +0000";
layers = (
{
layerId = "BF2BE0AA-9B99-4172-A7AC-368BFC5C7956";
paths = (
{
closed = 1;
nodes = (
"887 223 LINE",
"954 293 LINE",
"623 625 LINE",
"946 948 LINE",
"877 1016 LINE",
"555 692 LINE",
"221 1026 LINE",
"154 956 LINE",
"485 625 LINE",
"162 301 LINE",
"231 233 LINE",
"555 557 LINE"
);
}
);
width = 1108;
}
);
leftKerningGroup = multiply;
note = multiply;
rightKerningGroup = multiply;
unicode = 00D7;
},
{
glyphname = Oslash;
lastChange = "2017-12-10 12:53:03 +0000";
layers = (
{
layerId = "BF2BE0AA-9B99-4172-A7AC-368BFC5C7956";
paths = (
{
closed = 1;
nodes = (
"1090 1413 LINE",
"1060 1360 LINE",
"972 1409 OFFCURVE",
"870 1434 OFFCURVE",
"754 1434 CURVE SMOOTH",
"672 1434 OFFCURVE",
"597 1421 OFFCURVE",
"529 1396 CURVE SMOOTH",
"392 1345 OFFCURVE",
"298 1255 OFFCURVE",
"231 1133 CURVE SMOOTH",
"164 1011 OFFCURVE",
"133 866 OFFCURVE",
"133 707 CURVE SMOOTH",
"133 459 OFFCURVE",
"213 244 OFFCURVE",
"365 113 CURVE",
"302 0 LINE",
"416 0 LINE",
"447 55 LINE",
"536 5 OFFCURVE",
"638 -20 OFFCURVE",
"754 -20 CURVE SMOOTH",
"837 -20 OFFCURVE",
"913 -7 OFFCURVE",
"982 18 CURVE SMOOTH",
"1120 69 OFFCURVE",
"1213 158 OFFCURVE",
"1280 281 CURVE SMOOTH",
"1347 404 OFFCURVE",
"1378 547 OFFCURVE",
"1378 707 CURVE SMOOTH",
"1378 956 OFFCURVE",
"1298 1174 OFFCURVE",
"1143 1303 CURVE",
"1205 1413 LINE"
);
},
{
closed = 1;
nodes = (
"260 770 OFFCURVE",
"266 831 OFFCURVE",
"278 889 CURVE SMOOTH",
"301 1004 OFFCURVE",
"354 1110 OFFCURVE",
"430 1186 CURVE SMOOTH",
"505 1261 OFFCURVE",
"619 1307 OFFCURVE",
"754 1307 CURVE SMOOTH",
"847 1307 OFFCURVE",
"929 1287 OFFCURVE",
"998 1248 CURVE",
"429 228 LINE",
"316 337 OFFCURVE",
"260 512 OFFCURVE",
"260 707 CURVE SMOOTH"
);
},
{
closed = 1;
nodes = (
"661 106 OFFCURVE",
"579 126 OFFCURVE",
"509 167 CURVE",
"1080 1188 LINE",
"1196 1079 OFFCURVE",
"1253 903 OFFCURVE",
"1253 707 CURVE SMOOTH",
"1253 546 OFFCURVE",
"1214 405 OFFCURVE",
"1137 291 CURVE SMOOTH",
"1060 177 OFFCURVE",
"925 106 OFFCURVE",
"754 106 CURVE SMOOTH"
);
}
);
width = 1511;
}
);
leftKerningGroup = Oslash;
note = Oslash;
rightKerningGroup = Oslash;
unicode = 00D8;
},
{
glyphname = Ugrave;
lastChange = "2017-12-10 12:53:03 +0000";
layers = (
{
layerId = "BF2BE0AA-9B99-4172-A7AC-368BFC5C7956";
paths = (
{
closed = 1;
nodes = (
"535 1827 LINE",
"359 1827 LINE",
"604 1540 LINE",
"750 1540 LINE"
);
},
{
closed = 1;
nodes = (
"739 -20 OFFCURVE",
"799 -10 OFFCURVE",
"854 10 CURVE SMOOTH",
"963 49 OFFCURVE",
"1034 117 OFFCURVE",
"1084 210 CURVE SMOOTH",
"1134 302 OFFCURVE",
"1155 405 OFFCURVE",
"1155 520 CURVE SMOOTH",
"1155 1413 LINE",
"1020 1413 LINE",
"1020 559 LINE SMOOTH",
"1020 508 OFFCURVE",
"1017 460 OFFCURVE",
"1010 417 CURVE SMOOTH",
"996 329 OFFCURVE",
"961 248 OFFCURVE",
"909 194 CURVE SMOOTH",
"857 140 OFFCURVE",
"775 106 OFFCURVE",
"672 106 CURVE SMOOTH",
"443 106 OFFCURVE",
"328 257 OFFCURVE",
"328 559 CURVE SMOOTH",
"328 1413 LINE",
"193 1413 LINE",
"193 510 LINE SMOOTH",
"193 371 OFFCURVE",
"230 246 OFFCURVE",
"303 145 CURVE SMOOTH",
"376 44 OFFCURVE",
"507 -20 OFFCURVE",
"672 -20 CURVE SMOOTH"
);
}
);
width = 1346;
}
);
leftKerningGroup = U;
note = Ugrave;
rightKerningGroup = J;
unicode = 00D9;
},
{
glyphname = Uacute;
lastChange = "2017-12-10 12:53:03 +0000";
layers = (
{
layerId = "BF2BE0AA-9B99-4172-A7AC-368BFC5C7956";
paths = (
{
closed = 1;
nodes = (
"979 1827 LINE",
"803 1827 LINE",
"588 1538 LINE",
"711 1538 LINE"
);
},
{
closed = 1;
nodes = (
"739 -20 OFFCURVE",
"799 -10 OFFCURVE",
"854 10 CURVE SMOOTH",
"963 49 OFFCURVE",
"1034 117 OFFCURVE",
"1084 210 CURVE SMOOTH",
"1134 302 OFFCURVE",
"1155 405 OFFCURVE",
"1155 520 CURVE SMOOTH",
"1155 1413 LINE",
"1020 1413 LINE",
"1020 559 LINE SMOOTH",
"1020 508 OFFCURVE",
"1017 460 OFFCURVE",
"1010 417 CURVE SMOOTH",
"996 329 OFFCURVE",
"961 248 OFFCURVE",
"909 194 CURVE SMOOTH",
"857 140 OFFCURVE",
"775 106 OFFCURVE",
"672 106 CURVE SMOOTH",
"443 106 OFFCURVE",
"328 257 OFFCURVE",
"328 559 CURVE SMOOTH",
"328 1413 LINE",
"193 1413 LINE",
"193 510 LINE SMOOTH",
"193 371 OFFCURVE",
"230 246 OFFCURVE",
"303 145 CURVE SMOOTH",
"376 44 OFFCURVE",
"507 -20 OFFCURVE",
"672 -20 CURVE SMOOTH"
);
}
);
width = 1346;
}
);
leftKerningGroup = U;
note = Uacute;
rightKerningGroup = J;
unicode = 00DA;
},
{
glyphname = Ucircumflex;
lastChange = "2017-12-10 12:53:03 +0000";
layers = (
{
layerId = "BF2BE0AA-9B99-4172-A7AC-368BFC5C7956";
paths = (
{
closed = 1;
nodes = (
"678 1708 LINE",
"856 1512 LINE",
"1010 1512 LINE",
"678 1868 LINE",
"346 1512 LINE",
"502 1512 LINE"
);
},
{
closed = 1;
nodes = (
"739 -20 OFFCURVE",
"799 -10 OFFCURVE",
"854 10 CURVE SMOOTH",
"963 49 OFFCURVE",
"1034 117 OFFCURVE",
"1084 210 CURVE SMOOTH",
"1134 302 OFFCURVE",
"1155 405 OFFCURVE",
"1155 520 CURVE SMOOTH",
"1155 1413 LINE",
"1020 1413 LINE",
"1020 559 LINE SMOOTH",
"1020 508 OFFCURVE",
"1017 460 OFFCURVE",
"1010 417 CURVE SMOOTH",
"996 329 OFFCURVE",
"961 248 OFFCURVE",
"909 194 CURVE SMOOTH",
"857 140 OFFCURVE",
"775 106 OFFCURVE",
"672 106 CURVE SMOOTH",
"443 106 OFFCURVE",
"328 257 OFFCURVE",
"328 559 CURVE SMOOTH",
"328 1413 LINE",
"193 1413 LINE",
"193 510 LINE SMOOTH",
"193 371 OFFCURVE",
"230 246 OFFCURVE",
"303 145 CURVE SMOOTH",
"376 44 OFFCURVE",
"507 -20 OFFCURVE",
"672 -20 CURVE SMOOTH"
);
}
);
width = 1346;
}
);
leftKerningGroup = U;
note = Ucircumflex;
rightKerningGroup = J;
unicode = 00DB;
},
{
glyphname = Udieresis;
lastChange = "2017-12-10 12:53:03 +0000";
layers = (
{
layerId = "BF2BE0AA-9B99-4172-A7AC-368BFC5C7956";
paths = (
{
closed = 1;
nodes = (
"590 1827 LINE",
"430 1827 LINE",
"430 1643 LINE",
"590 1643 LINE"
);
},
{
closed = 1;
nodes = (
"922 1827 LINE",
"762 1827 LINE",
"762 1643 LINE",
"922 1643 LINE"
);
},
{
closed = 1;
nodes = (
"739 -20 OFFCURVE",
"799 -10 OFFCURVE",
"854 10 CURVE SMOOTH",
"963 49 OFFCURVE",
"1034 117 OFFCURVE",
"1084 210 CURVE SMOOTH",
"1134 302 OFFCURVE",
"1155 405 OFFCURVE",
"1155 520 CURVE SMOOTH",
"1155 1413 LINE",
"1020 1413 LINE",
"1020 559 LINE SMOOTH",
"1020 508 OFFCURVE",
"1017 460 OFFCURVE",
"1010 417 CURVE SMOOTH",
"996 329 OFFCURVE",
"961 248 OFFCURVE",
"909 194 CURVE SMOOTH",
"857 140 OFFCURVE",
"775 106 OFFCURVE",
"672 106 CURVE SMOOTH",
"443 106 OFFCURVE",
"328 257 OFFCURVE",
"328 559 CURVE SMOOTH",
"328 1413 LINE",
"193 1413 LINE",
"193 510 LINE SMOOTH",
"193 371 OFFCURVE",
"230 246 OFFCURVE",
"303 145 CURVE SMOOTH",
"376 44 OFFCURVE",
"507 -20 OFFCURVE",
"672 -20 CURVE SMOOTH"
);
}
);
width = 1346;
}
);
leftKerningGroup = U;
note = Udieresis;
rightKerningGroup = J;
unicode = 00DC;
},
{
glyphname = Yacute;
lastChange = "2017-12-10 12:53:03 +0000";
layers = (
{
layerId = "BF2BE0AA-9B99-4172-A7AC-368BFC5C7956";
paths = (
{
closed = 1;
nodes = (
"958 1827 LINE",
"782 1827 LINE",
"567 1538 LINE",
"690 1538 LINE"
);
},
{
closed = 1;
nodes = (
"723 553 LINE",
"1249 1413 LINE",
"1096 1413 LINE",
"657 694 LINE",
"221 1413 LINE",
"66 1413 LINE",
"594 553 LINE",
"594 0 LINE",
"723 0 LINE"
);
}
);
width = 1315;
}
);
leftKerningGroup = Y;
note = Yacute;
rightKerningGroup = Y;
unicode = 00DD;
},
{
glyphname = Thorn;
lastChange = "2017-12-10 12:53:03 +0000";
layers = (
{
layerId = "BF2BE0AA-9B99-4172-A7AC-368BFC5C7956";
paths = (
{
closed = 1;
nodes = (
"360 440 LINE",
"608 440 LINE SMOOTH",
"877 440 OFFCURVE",
"1051 583 OFFCURVE",
"1051 819 CURVE SMOOTH",
"1051 1064 OFFCURVE",
"876 1212 OFFCURVE",
"608 1212 CURVE SMOOTH",
"360 1212 LINE",
"360 1413 LINE",
"219 1413 LINE",
"219 0 LINE",
"360 0 LINE"
);
},
{
closed = 1;
nodes = (
"608 1069 LINE SMOOTH",
"799 1069 OFFCURVE",
"909 978 OFFCURVE",
"909 817 CURVE SMOOTH",
"909 656 OFFCURVE",
"800 571 OFFCURVE",
"608 571 CURVE SMOOTH",
"360 571 LINE",
"360 1069 LINE"
);
}
);
width = 1149;
}
);
leftKerningGroup = B;
note = Thorn;
rightKerningGroup = Thorn;
unicode = 00DE;
},
{
glyphname = germandbls;
lastChange = "2017-12-10 12:53:03 +0000";
layers = (
{
layerId = "BF2BE0AA-9B99-4172-A7AC-368BFC5C7956";
paths = (
{
closed = 1;
nodes = (
"905 -18 OFFCURVE",
"1049 117 OFFCURVE",
"1049 305 CURVE SMOOTH",
"1049 377 OFFCURVE",
"1023 441 OFFCURVE",
"986 486 CURVE SMOOTH",
"949 530 OFFCURVE",
"902 570 OFFCURVE",
"858 604 CURVE SMOOTH",
"835 621 OFFCURVE",
"815 637 OFFCURVE",
"796 654 CURVE SMOOTH",
"759 687 OFFCURVE",
"733 728 OFFCURVE",
"733 772 CURVE SMOOTH",
"733 825 OFFCURVE",
"769 868 OFFCURVE",
"814 897 CURVE SMOOTH",
"837 912 OFFCURVE",
"859 927 OFFCURVE",
"882 944 CURVE SMOOTH",
"927 976 OFFCURVE",
"963 1030 OFFCURVE",
"963 1102 CURVE SMOOTH",
"963 1167 OFFCURVE",
"943 1225 OFFCURVE",
"904 1277 CURVE SMOOTH",
"825 1381 OFFCURVE",
"700 1434 OFFCURVE",
"575 1434 CURVE SMOOTH",
"458 1434 OFFCURVE",
"366 1398 OFFCURVE",
"292 1315 CURVE SMOOTH",
"218 1231 OFFCURVE",
"176 1084 OFFCURVE",
"176 881 CURVE SMOOTH",
"176 0 LINE",
"301 0 LINE",
"301 879 LINE SMOOTH",
"301 1170 OFFCURVE",
"393 1315 OFFCURVE",
"578 1315 CURVE SMOOTH",
"729 1315 OFFCURVE",
"831 1229 OFFCURVE",
"831 1112 CURVE SMOOTH",
"831 1056 OFFCURVE",
"805 1010 OFFCURVE",
"770 983 CURVE SMOOTH",
"735 956 OFFCURVE",
"692 924 OFFCURVE",
"657 898 CURVE SMOOTH",
"622 872 OFFCURVE",
"596 827 OFFCURVE",
"596 774 CURVE SMOOTH",
"596 743 OFFCURVE",
"602 715 OFFCURVE",
"614 688 CURVE SMOOTH",
"638 635 OFFCURVE",
"678 597 OFFCURVE",
"724 559 CURVE SMOOTH",
"770 521 OFFCURVE",
"818 482 OFFCURVE",
"856 442 CURVE SMOOTH",
"894 402 OFFCURVE",
"920 347 OFFCURVE",
"920 287 CURVE SMOOTH",
"920 192 OFFCURVE",
"816 113 OFFCURVE",
"717 113 CURVE SMOOTH",
"642 113 OFFCURVE",
"567 135 OFFCURVE",
"492 178 CURVE",
"436 55 LINE",
"540 6 OFFCURVE",
"634 -18 OFFCURVE",
"717 -18 CURVE SMOOTH"
);
}
);
width = 1176;
}
);
leftKerningGroup = germandbls;
note = germandbls;
rightKerningGroup = germandbls;
unicode = 00DF;
},
{
glyphname = agrave;
lastChange = "2017-12-10 12:53:03 +0000";
layers = (
{
layerId = "BF2BE0AA-9B99-4172-A7AC-368BFC5C7956";
paths = (
{
closed = 1;
nodes = (
"359 1413 LINE",
"183 1413 LINE",
"428 1126 LINE",
"574 1126 LINE"
);
},
{
closed = 1;
nodes = (
"553 -20 OFFCURVE",
"691 56 OFFCURVE",
"758 205 CURVE",
"758 0 LINE",
"866 0 LINE",
"866 614 LINE SMOOTH",
"866 863 OFFCURVE",
"730 1020 OFFCURVE",
"485 1020 CURVE SMOOTH",
"332 1020 OFFCURVE",
"210 956 OFFCURVE",
"119 829 CURVE",
"209 758 LINE",
"284 860 OFFCURVE",
"379 911 OFFCURVE",
"496 911 CURVE SMOOTH",
"668 911 OFFCURVE",
"754 796 OFFCURVE",
"754 565 CURVE",
"532 565 LINE SMOOTH",
"232 565 OFFCURVE",
"82 467 OFFCURVE",
"82 270 CURVE SMOOTH",
"82 91 OFFCURVE",
"210 -20 OFFCURVE",
"397 -20 CURVE SMOOTH"
);
},
{
closed = 1;
nodes = (
"293 86 OFFCURVE",
"213 143 OFFCURVE",
"213 268 CURVE SMOOTH",
"213 413 OFFCURVE",
"319 467 OFFCURVE",
"547 467 CURVE SMOOTH",
"754 467 LINE",
"754 380 OFFCURVE",
"721 288 OFFCURVE",
"665 213 CURVE SMOOTH",
"609 138 OFFCURVE",
"515 86 OFFCURVE",
"410 86 CURVE SMOOTH"
);
}
);
width = 1016;
}
);
leftKerningGroup = a;
note = agrave;
rightKerningGroup = a;
unicode = 00E0;
},
{
glyphname = aacute;
lastChange = "2017-12-10 12:53:03 +0000";
layers = (
{
layerId = "BF2BE0AA-9B99-4172-A7AC-368BFC5C7956";
paths = (
{
closed = 1;
nodes = (
"803 1413 LINE",
"627 1413 LINE",
"412 1124 LINE",
"535 1124 LINE"
);
},
{
closed = 1;
nodes = (
"553 -20 OFFCURVE",
"691 56 OFFCURVE",
"758 205 CURVE",
"758 0 LINE",
"866 0 LINE",
"866 614 LINE SMOOTH",
"866 863 OFFCURVE",
"730 1020 OFFCURVE",
"485 1020 CURVE SMOOTH",
"332 1020 OFFCURVE",
"210 956 OFFCURVE",
"119 829 CURVE",
"209 758 LINE",
"284 860 OFFCURVE",
"379 911 OFFCURVE",
"496 911 CURVE SMOOTH",
"668 911 OFFCURVE",
"754 796 OFFCURVE",
"754 565 CURVE",
"532 565 LINE SMOOTH",
"232 565 OFFCURVE",
"82 467 OFFCURVE",
"82 270 CURVE SMOOTH",
"82 91 OFFCURVE",
"210 -20 OFFCURVE",
"397 -20 CURVE SMOOTH"
);
},
{
closed = 1;
nodes = (
"293 86 OFFCURVE",
"213 143 OFFCURVE",
"213 268 CURVE SMOOTH",
"213 413 OFFCURVE",
"319 467 OFFCURVE",
"547 467 CURVE SMOOTH",
"754 467 LINE",
"754 380 OFFCURVE",
"721 288 OFFCURVE",
"665 213 CURVE SMOOTH",
"609 138 OFFCURVE",
"515 86 OFFCURVE",
"410 86 CURVE SMOOTH"
);
}
);
width = 1016;
}
);
leftKerningGroup = a;
note = aacute;
rightKerningGroup = a;
unicode = 00E1;
},
{
glyphname = acircumflex;
lastChange = "2017-12-10 12:53:03 +0000";
layers = (
{
layerId = "BF2BE0AA-9B99-4172-A7AC-368BFC5C7956";
paths = (
{
closed = 1;
nodes = (
"502 1294 LINE",
"680 1098 LINE",
"834 1098 LINE",
"502 1454 LINE",
"170 1098 LINE",
"326 1098 LINE"
);
},
{
closed = 1;
nodes = (
"553 -20 OFFCURVE",
"691 56 OFFCURVE",
"758 205 CURVE",
"758 0 LINE",
"866 0 LINE",
"866 614 LINE SMOOTH",
"866 863 OFFCURVE",
"730 1020 OFFCURVE",
"485 1020 CURVE SMOOTH",
"332 1020 OFFCURVE",
"210 956 OFFCURVE",
"119 829 CURVE",
"209 758 LINE",
"284 860 OFFCURVE",
"379 911 OFFCURVE",
"496 911 CURVE SMOOTH",
"668 911 OFFCURVE",
"754 796 OFFCURVE",
"754 565 CURVE",
"532 565 LINE SMOOTH",
"232 565 OFFCURVE",
"82 467 OFFCURVE",
"82 270 CURVE SMOOTH",
"82 91 OFFCURVE",
"210 -20 OFFCURVE",
"397 -20 CURVE SMOOTH"
);
},
{
closed = 1;
nodes = (
"293 86 OFFCURVE",
"213 143 OFFCURVE",
"213 268 CURVE SMOOTH",
"213 413 OFFCURVE",
"319 467 OFFCURVE",
"547 467 CURVE SMOOTH",
"754 467 LINE",
"754 380 OFFCURVE",
"721 288 OFFCURVE",
"665 213 CURVE SMOOTH",
"609 138 OFFCURVE",
"515 86 OFFCURVE",
"410 86 CURVE SMOOTH"
);
}
);
width = 1016;
}
);
leftKerningGroup = a;
note = acircumflex;
rightKerningGroup = a;
unicode = 00E2;
},
{
glyphname = atilde;
lastChange = "2017-12-10 12:53:03 +0000";
layers = (
{
layerId = "BF2BE0AA-9B99-4172-A7AC-368BFC5C7956";
paths = (
{
closed = 1;
nodes = (
"732 1157 OFFCURVE",
"793 1248 OFFCURVE",
"793 1415 CURVE",
"697 1415 LINE",
"697 1310 OFFCURVE",
"672 1257 OFFCURVE",
"623 1257 CURVE SMOOTH",
"594 1257 OFFCURVE",
"565 1283 OFFCURVE",
"539 1315 CURVE SMOOTH",
"526 1331 OFFCURVE",
"512 1347 OFFCURVE",
"497 1363 CURVE SMOOTH",
"467 1395 OFFCURVE",
"420 1421 OFFCURVE",
"365 1421 CURVE SMOOTH",
"264 1421 OFFCURVE",
"207 1324 OFFCURVE",
"207 1180 CURVE",
"297 1180 LINE",
"297 1271 OFFCURVE",
"320 1317 OFFCURVE",
"367 1317 CURVE SMOOTH",
"398 1317 OFFCURVE",
"428 1292 OFFCURVE",
"456 1261 CURVE",
"469 1245 OFFCURVE",
"484 1229 OFFCURVE",
"499 1214 CURVE SMOOTH",
"529 1182 OFFCURVE",
"573 1157 OFFCURVE",
"621 1157 CURVE SMOOTH"
);
},
{
closed = 1;
nodes = (
"553 -20 OFFCURVE",
"691 56 OFFCURVE",
"758 205 CURVE",
"758 0 LINE",
"866 0 LINE",
"866 614 LINE SMOOTH",
"866 863 OFFCURVE",
"730 1020 OFFCURVE",
"485 1020 CURVE SMOOTH",
"332 1020 OFFCURVE",
"210 956 OFFCURVE",
"119 829 CURVE",
"209 758 LINE",
"284 860 OFFCURVE",
"379 911 OFFCURVE",
"496 911 CURVE SMOOTH",
"668 911 OFFCURVE",
"754 796 OFFCURVE",
"754 565 CURVE",
"532 565 LINE SMOOTH",
"232 565 OFFCURVE",
"82 467 OFFCURVE",
"82 270 CURVE SMOOTH",
"82 91 OFFCURVE",
"210 -20 OFFCURVE",
"397 -20 CURVE SMOOTH"
);
},
{
closed = 1;
nodes = (
"293 86 OFFCURVE",
"213 143 OFFCURVE",
"213 268 CURVE SMOOTH",
"213 413 OFFCURVE",
"319 467 OFFCURVE",
"547 467 CURVE SMOOTH",
"754 467 LINE",
"754 380 OFFCURVE",
"721 288 OFFCURVE",
"665 213 CURVE SMOOTH",
"609 138 OFFCURVE",
"515 86 OFFCURVE",
"410 86 CURVE SMOOTH"
);
}
);
width = 1016;
}
);
leftKerningGroup = a;
note = atilde;
rightKerningGroup = a;
unicode = 00E3;
},
{
glyphname = adieresis;
lastChange = "2017-12-10 12:53:03 +0000";
layers = (
{
layerId = "BF2BE0AA-9B99-4172-A7AC-368BFC5C7956";
paths = (
{
closed = 1;
nodes = (
"414 1413 LINE",
"254 1413 LINE",
"254 1229 LINE",
"414 1229 LINE"
);
},
{
closed = 1;
nodes = (
"746 1413 LINE",
"586 1413 LINE",
"586 1229 LINE",
"746 1229 LINE"
);
},
{
closed = 1;
nodes = (
"553 -20 OFFCURVE",
"691 56 OFFCURVE",
"758 205 CURVE",
"758 0 LINE",
"866 0 LINE",
"866 614 LINE SMOOTH",
"866 863 OFFCURVE",
"730 1020 OFFCURVE",
"485 1020 CURVE SMOOTH",
"332 1020 OFFCURVE",
"210 956 OFFCURVE",
"119 829 CURVE",
"209 758 LINE",
"284 860 OFFCURVE",
"379 911 OFFCURVE",
"496 911 CURVE SMOOTH",
"668 911 OFFCURVE",
"754 796 OFFCURVE",
"754 565 CURVE",
"532 565 LINE SMOOTH",
"232 565 OFFCURVE",
"82 467 OFFCURVE",
"82 270 CURVE SMOOTH",
"82 91 OFFCURVE",
"210 -20 OFFCURVE",
"397 -20 CURVE SMOOTH"
);
},
{
closed = 1;
nodes = (
"293 86 OFFCURVE",
"213 143 OFFCURVE",
"213 268 CURVE SMOOTH",
"213 413 OFFCURVE",
"319 467 OFFCURVE",
"547 467 CURVE SMOOTH",
"754 467 LINE",
"754 380 OFFCURVE",
"721 288 OFFCURVE",
"665 213 CURVE SMOOTH",
"609 138 OFFCURVE",
"515 86 OFFCURVE",
"410 86 CURVE SMOOTH"
);
}
);
width = 1016;
}
);
leftKerningGroup = a;
note = adieresis;
rightKerningGroup = a;
unicode = 00E4;
},
{
glyphname = aring;
lastChange = "2017-12-10 12:53:03 +0000";
layers = (
{
layerId = "BF2BE0AA-9B99-4172-A7AC-368BFC5C7956";
paths = (
{
closed = 1;
nodes = (
"609 1081 OFFCURVE",
"697 1169 OFFCURVE",
"697 1278 CURVE SMOOTH",
"697 1389 OFFCURVE",
"608 1475 OFFCURVE",
"500 1475 CURVE SMOOTH",
"391 1475 OFFCURVE",
"304 1386 OFFCURVE",
"304 1278 CURVE SMOOTH",
"304 1169 OFFCURVE",
"389 1081 OFFCURVE",
"500 1081 CURVE SMOOTH"
);
},
{
closed = 1;
nodes = (
"444 1178 OFFCURVE",
"402 1219 OFFCURVE",
"402 1278 CURVE SMOOTH",
"402 1337 OFFCURVE",
"441 1376 OFFCURVE",
"500 1376 CURVE SMOOTH",
"557 1376 OFFCURVE",
"601 1333 OFFCURVE",
"601 1278 CURVE SMOOTH",
"601 1222 OFFCURVE",
"555 1178 OFFCURVE",
"500 1178 CURVE SMOOTH"
);
},
{
closed = 1;
nodes = (
"553 -20 OFFCURVE",
"691 56 OFFCURVE",
"758 205 CURVE",
"758 0 LINE",
"866 0 LINE",
"866 614 LINE SMOOTH",
"866 863 OFFCURVE",
"730 1020 OFFCURVE",
"485 1020 CURVE SMOOTH",
"332 1020 OFFCURVE",
"210 956 OFFCURVE",
"119 829 CURVE",
"209 758 LINE",
"284 860 OFFCURVE",
"379 911 OFFCURVE",
"496 911 CURVE SMOOTH",
"668 911 OFFCURVE",
"754 796 OFFCURVE",
"754 565 CURVE",
"532 565 LINE SMOOTH",
"232 565 OFFCURVE",
"82 467 OFFCURVE",
"82 270 CURVE SMOOTH",
"82 91 OFFCURVE",
"210 -20 OFFCURVE",
"397 -20 CURVE SMOOTH"
);
},
{
closed = 1;
nodes = (
"293 86 OFFCURVE",
"213 143 OFFCURVE",
"213 268 CURVE SMOOTH",
"213 413 OFFCURVE",
"319 467 OFFCURVE",
"547 467 CURVE SMOOTH",
"754 467 LINE",
"754 380 OFFCURVE",
"721 288 OFFCURVE",
"665 213 CURVE SMOOTH",
"609 138 OFFCURVE",
"515 86 OFFCURVE",
"410 86 CURVE SMOOTH"
);
}
);
width = 1016;
}
);
leftKerningGroup = a;
note = aring;
rightKerningGroup = a;
unicode = 00E5;
},
{
glyphname = ae;
lastChange = "2017-12-10 12:53:03 +0000";
layers = (
{
layerId = "BF2BE0AA-9B99-4172-A7AC-368BFC5C7956";
paths = (
{
closed = 1;
nodes = (
"592 -20 OFFCURVE",
"721 86 OFFCURVE",
"784 299 CURVE",
"833 107 OFFCURVE",
"965 -12 OFFCURVE",
"1178 -12 CURVE SMOOTH",
"1334 -12 OFFCURVE",
"1447 32 OFFCURVE",
"1552 137 CURVE",
"1473 203 LINE",
"1388 122 OFFCURVE",
"1304 96 OFFCURVE",
"1176 96 CURVE SMOOTH",
"1110 96 OFFCURVE",
"1053 113 OFFCURVE",
"1006 147 CURVE SMOOTH",
"911 215 OFFCURVE",
"870 326 OFFCURVE",
"874 457 CURVE",
"1573 457 LINE",
"1573 485 LINE SMOOTH",
"1573 543 OFFCURVE",
"1569 597 OFFCURVE",
"1561 646 CURVE SMOOTH",
"1545 745 OFFCURVE",
"1505 842 OFFCURVE",
"1443 906 CURVE SMOOTH",
"1381 970 OFFCURVE",
"1280 1012 OFFCURVE",
"1155 1012 CURVE SMOOTH",
"997 1012 OFFCURVE",
"888 948 OFFCURVE",
"827 819 CURVE",
"776 950 OFFCURVE",
"668 1016 OFFCURVE",
"502 1016 CURVE SMOOTH",
"334 1016 OFFCURVE",
"223 956 OFFCURVE",
"123 829 CURVE",
"223 766 LINE",
"278 853 OFFCURVE",
"375 918 OFFCURVE",
"494 918 CURVE SMOOTH",
"671 918 OFFCURVE",
"760 800 OFFCURVE",
"760 565 CURVE",
"440 565 LINE SMOOTH",
"217 565 OFFCURVE",
"84 471 OFFCURVE",
"84 268 CURVE SMOOTH",
"84 99 OFFCURVE",
"220 -20 OFFCURVE",
"395 -20 CURVE SMOOTH"
);
},
{
closed = 1;
nodes = (
"875 756 OFFCURVE",
"979 897 OFFCURVE",
"1159 897 CURVE SMOOTH",
"1358 897 OFFCURVE",
"1463 765 OFFCURVE",
"1456 565 CURVE",
"872 565 LINE"
);
},
{
closed = 1;
nodes = (
"339 90 OFFCURVE",
"223 175 OFFCURVE",
"223 268 CURVE SMOOTH",
"223 389 OFFCURVE",
"324 457 OFFCURVE",
"455 457 CURVE SMOOTH",
"760 457 LINE",
"764 396 OFFCURVE",
"752 338 OFFCURVE",
"725 282 CURVE SMOOTH",
"669 169 OFFCURVE",
"558 90 OFFCURVE",
"434 90 CURVE SMOOTH"
);
}
);
width = 1661;
}
);
leftKerningGroup = a;
note = ae;
rightKerningGroup = e;
unicode = 00E6;
},
{
glyphname = ccedilla;
lastChange = "2017-12-10 12:53:03 +0000";
layers = (
{
layerId = "BF2BE0AA-9B99-4172-A7AC-368BFC5C7956";
paths = (
{
closed = 1;
nodes = (
"416 82 OFFCURVE",
"335 136 OFFCURVE",
"292 220 CURVE SMOOTH",
"249 303 OFFCURVE",
"229 397 OFFCURVE",
"229 498 CURVE SMOOTH",
"229 598 OFFCURVE",
"249 693 OFFCURVE",
"293 778 CURVE SMOOTH",
"336 862 OFFCURVE",
"416 918 OFFCURVE",
"520 918 CURVE SMOOTH",
"645 918 OFFCURVE",
"751 836 OFFCURVE",
"780 709 CURVE",
"899 762 LINE",
"827 922 OFFCURVE",
"692 1020 OFFCURVE",
"520 1020 CURVE SMOOTH",
"385 1020 OFFCURVE",
"273 957 OFFCURVE",
"205 860 CURVE SMOOTH",
"137 763 OFFCURVE",
"100 635 OFFCURVE",
"100 498 CURVE SMOOTH",
"100 412 OFFCURVE",
"113 333 OFFCURVE",
"140 260 CURVE SMOOTH",
"193 114 OFFCURVE",
"309 4 OFFCURVE",
"464 -16 CURVE",
"381 -176 LINE",
"415 -176 LINE SMOOTH",
"540 -176 OFFCURVE",
"606 -236 OFFCURVE",
"606 -305 CURVE SMOOTH",
"606 -361 OFFCURVE",
"564 -406 OFFCURVE",
"503 -406 CURVE SMOOTH",
"454 -406 OFFCURVE",
"416 -369 OFFCURVE",
"409 -328 CURVE",
"319 -377 LINE",
"346 -446 OFFCURVE",
"414 -500 OFFCURVE",
"497 -500 CURVE SMOOTH",
"622 -500 OFFCURVE",
"704 -402 OFFCURVE",
"704 -297 CURVE SMOOTH",
"704 -200 OFFCURVE",
"640 -122 OFFCURVE",
"520 -121 CURVE",
"576 -17 LINE",
"724 0 OFFCURVE",
"835 93 OFFCURVE",
"887 238 CURVE",
"780 287 LINE",
"751 163 OFFCURVE",
"648 82 OFFCURVE",
"520 82 CURVE SMOOTH"
);
}
);
width = 967;
}
);
leftKerningGroup = c;
note = ccedilla;
rightKerningGroup = c;
unicode = 00E7;
},
{
glyphname = egrave;
lastChange = "2017-12-10 12:53:03 +0000";
layers = (
{
layerId = "BF2BE0AA-9B99-4172-A7AC-368BFC5C7956";
paths = (
{
closed = 1;
nodes = (
"365 1413 LINE",
"189 1413 LINE",
"434 1126 LINE",
"580 1126 LINE"
);
},
{
closed = 1;
nodes = (
"694 -12 OFFCURVE",
"803 32 OFFCURVE",
"911 137 CURVE",
"825 203 LINE",
"749 123 OFFCURVE",
"663 96 OFFCURVE",
"535 96 CURVE SMOOTH",
"339 96 OFFCURVE",
"224 256 OFFCURVE",
"231 457 CURVE",
"930 457 LINE",
"933 481 OFFCURVE",
"934 505 OFFCURVE",
"934 528 CURVE SMOOTH",
"934 577 OFFCURVE",
"930 623 OFFCURVE",
"922 668 CURVE SMOOTH",
"906 756 OFFCURVE",
"864 847 OFFCURVE",
"804 909 CURVE SMOOTH",
"743 971 OFFCURVE",
"643 1012 OFFCURVE",
"520 1012 CURVE SMOOTH",
"466 1012 OFFCURVE",
"416 1003 OFFCURVE",
"370 984 CURVE SMOOTH",
"278 947 OFFCURVE",
"215 881 OFFCURVE",
"168 793 CURVE SMOOTH",
"121 705 OFFCURVE",
"100 603 OFFCURVE",
"100 494 CURVE SMOOTH",
"100 355 OFFCURVE",
"138 232 OFFCURVE",
"208 139 CURVE SMOOTH",
"278 46 OFFCURVE",
"394 -12 OFFCURVE",
"537 -12 CURVE SMOOTH"
);
},
{
closed = 1;
nodes = (
"234 657 OFFCURVE",
"258 740 OFFCURVE",
"305 805 CURVE SMOOTH",
"352 869 OFFCURVE",
"427 909 OFFCURVE",
"520 909 CURVE SMOOTH",
"628 909 OFFCURVE",
"709 866 OFFCURVE",
"753 798 CURVE SMOOTH",
"796 730 OFFCURVE",
"815 653 OFFCURVE",
"815 565 CURVE",
"231 565 LINE"
);
}
);
width = 1030;
}
);
leftKerningGroup = c;
note = egrave;
rightKerningGroup = e;
unicode = 00E8;
},
{
glyphname = eacute;
lastChange = "2017-12-10 12:53:03 +0000";
layers = (
{
layerId = "BF2BE0AA-9B99-4172-A7AC-368BFC5C7956";
paths = (
{
closed = 1;
nodes = (
"809 1413 LINE",
"633 1413 LINE",
"418 1124 LINE",
"541 1124 LINE"
);
},
{
closed = 1;
nodes = (
"694 -12 OFFCURVE",
"803 32 OFFCURVE",
"911 137 CURVE",
"825 203 LINE",
"749 123 OFFCURVE",
"663 96 OFFCURVE",
"535 96 CURVE SMOOTH",
"339 96 OFFCURVE",
"224 256 OFFCURVE",
"231 457 CURVE",
"930 457 LINE",
"933 481 OFFCURVE",
"934 505 OFFCURVE",
"934 528 CURVE SMOOTH",
"934 577 OFFCURVE",
"930 623 OFFCURVE",
"922 668 CURVE SMOOTH",
"906 756 OFFCURVE",
"864 847 OFFCURVE",
"804 909 CURVE SMOOTH",
"743 971 OFFCURVE",
"643 1012 OFFCURVE",
"520 1012 CURVE SMOOTH",
"466 1012 OFFCURVE",
"416 1003 OFFCURVE",
"370 984 CURVE SMOOTH",
"278 947 OFFCURVE",
"215 881 OFFCURVE",
"168 793 CURVE SMOOTH",
"121 705 OFFCURVE",
"100 603 OFFCURVE",
"100 494 CURVE SMOOTH",
"100 355 OFFCURVE",
"138 232 OFFCURVE",
"208 139 CURVE SMOOTH",
"278 46 OFFCURVE",
"394 -12 OFFCURVE",
"537 -12 CURVE SMOOTH"
);
},
{
closed = 1;
nodes = (
"234 657 OFFCURVE",
"258 740 OFFCURVE",
"305 805 CURVE SMOOTH",
"352 869 OFFCURVE",
"427 909 OFFCURVE",
"520 909 CURVE SMOOTH",
"628 909 OFFCURVE",
"709 866 OFFCURVE",
"753 798 CURVE SMOOTH",
"796 730 OFFCURVE",
"815 653 OFFCURVE",
"815 565 CURVE",
"231 565 LINE"
);
}
);
width = 1030;
}
);
leftKerningGroup = c;
note = eacute;
rightKerningGroup = e;
unicode = 00E9;
},
{
glyphname = ecircumflex;
lastChange = "2017-12-10 12:53:03 +0000";
layers = (
{
layerId = "BF2BE0AA-9B99-4172-A7AC-368BFC5C7956";
paths = (
{
closed = 1;
nodes = (
"508 1294 LINE",
"686 1098 LINE",
"840 1098 LINE",
"508 1454 LINE",
"176 1098 LINE",
"332 1098 LINE"
);
},
{
closed = 1;
nodes = (
"694 -12 OFFCURVE",
"803 32 OFFCURVE",
"911 137 CURVE",
"825 203 LINE",
"749 123 OFFCURVE",
"663 96 OFFCURVE",
"535 96 CURVE SMOOTH",
"339 96 OFFCURVE",
"224 256 OFFCURVE",
"231 457 CURVE",
"930 457 LINE",
"933 481 OFFCURVE",
"934 505 OFFCURVE",
"934 528 CURVE SMOOTH",
"934 577 OFFCURVE",
"930 623 OFFCURVE",
"922 668 CURVE SMOOTH",
"906 756 OFFCURVE",
"864 847 OFFCURVE",
"804 909 CURVE SMOOTH",
"743 971 OFFCURVE",
"643 1012 OFFCURVE",
"520 1012 CURVE SMOOTH",
"466 1012 OFFCURVE",
"416 1003 OFFCURVE",
"370 984 CURVE SMOOTH",
"278 947 OFFCURVE",
"215 881 OFFCURVE",
"168 793 CURVE SMOOTH",
"121 705 OFFCURVE",
"100 603 OFFCURVE",
"100 494 CURVE SMOOTH",
"100 355 OFFCURVE",
"138 232 OFFCURVE",
"208 139 CURVE SMOOTH",
"278 46 OFFCURVE",
"394 -12 OFFCURVE",
"537 -12 CURVE SMOOTH"
);
},
{
closed = 1;
nodes = (
"234 657 OFFCURVE",
"258 740 OFFCURVE",
"305 805 CURVE SMOOTH",
"352 869 OFFCURVE",
"427 909 OFFCURVE",
"520 909 CURVE SMOOTH",
"628 909 OFFCURVE",
"709 866 OFFCURVE",
"753 798 CURVE SMOOTH",
"796 730 OFFCURVE",
"815 653 OFFCURVE",
"815 565 CURVE",
"231 565 LINE"
);
}
);
width = 1030;
}
);
leftKerningGroup = c;
note = ecircumflex;
rightKerningGroup = e;
unicode = 00EA;
},
{
glyphname = edieresis;
lastChange = "2017-12-10 12:53:03 +0000";
layers = (
{
layerId = "BF2BE0AA-9B99-4172-A7AC-368BFC5C7956";
paths = (
{
closed = 1;
nodes = (
"420 1413 LINE",
"260 1413 LINE",
"260 1229 LINE",
"420 1229 LINE"
);
},
{
closed = 1;
nodes = (
"752 1413 LINE",
"592 1413 LINE",
"592 1229 LINE",
"752 1229 LINE"
);
},
{
closed = 1;
nodes = (
"694 -12 OFFCURVE",
"803 32 OFFCURVE",
"911 137 CURVE",
"825 203 LINE",
"749 123 OFFCURVE",
"663 96 OFFCURVE",
"535 96 CURVE SMOOTH",
"339 96 OFFCURVE",
"224 256 OFFCURVE",
"231 457 CURVE",
"930 457 LINE",
"933 481 OFFCURVE",
"934 505 OFFCURVE",
"934 528 CURVE SMOOTH",
"934 577 OFFCURVE",
"930 623 OFFCURVE",
"922 668 CURVE SMOOTH",
"906 756 OFFCURVE",
"864 847 OFFCURVE",
"804 909 CURVE SMOOTH",
"743 971 OFFCURVE",
"643 1012 OFFCURVE",
"520 1012 CURVE SMOOTH",
"466 1012 OFFCURVE",
"416 1003 OFFCURVE",
"370 984 CURVE SMOOTH",
"278 947 OFFCURVE",
"215 881 OFFCURVE",
"168 793 CURVE SMOOTH",
"121 705 OFFCURVE",
"100 603 OFFCURVE",
"100 494 CURVE SMOOTH",
"100 355 OFFCURVE",
"138 232 OFFCURVE",
"208 139 CURVE SMOOTH",
"278 46 OFFCURVE",
"394 -12 OFFCURVE",
"537 -12 CURVE SMOOTH"
);
},
{
closed = 1;
nodes = (
"234 657 OFFCURVE",
"258 740 OFFCURVE",
"305 805 CURVE SMOOTH",
"352 869 OFFCURVE",
"427 909 OFFCURVE",
"520 909 CURVE SMOOTH",
"628 909 OFFCURVE",
"709 866 OFFCURVE",
"753 798 CURVE SMOOTH",
"796 730 OFFCURVE",
"815 653 OFFCURVE",
"815 565 CURVE",
"231 565 LINE"
);
}
);
width = 1030;
}
);
leftKerningGroup = c;
note = edieresis;
rightKerningGroup = e;
unicode = 00EB;
},
{
glyphname = igrave;
lastChange = "2017-12-10 12:53:03 +0000";
layers = (
{
layerId = "BF2BE0AA-9B99-4172-A7AC-368BFC5C7956";
paths = (
{
closed = 1;
nodes = (
"105 1413 LINE",
"-71 1413 LINE",
"174 1126 LINE",
"320 1126 LINE"
);
},
{
closed = 1;
nodes = (
"324 999 LINE",
"174 999 LINE",
"174 0 LINE",
"324 0 LINE"
);
}
);
width = 498;
}
);
leftKerningGroup = i;
note = igrave;
rightKerningGroup = i;
unicode = 00EC;
},
{
glyphname = iacute;
lastChange = "2017-12-10 12:53:03 +0000";
layers = (
{
layerId = "BF2BE0AA-9B99-4172-A7AC-368BFC5C7956";
paths = (
{
closed = 1;
nodes = (
"549 1413 LINE",
"373 1413 LINE",
"158 1124 LINE",
"281 1124 LINE"
);
},
{
closed = 1;
nodes = (
"324 999 LINE",
"174 999 LINE",
"174 0 LINE",
"324 0 LINE"
);
}
);
width = 498;
}
);
leftKerningGroup = i;
note = iacute;
rightKerningGroup = i;
unicode = 00ED;
},
{
glyphname = icircumflex;
lastChange = "2017-12-10 12:53:03 +0000";
layers = (
{
layerId = "BF2BE0AA-9B99-4172-A7AC-368BFC5C7956";
paths = (
{
closed = 1;
nodes = (
"248 1294 LINE",
"426 1098 LINE",
"580 1098 LINE",
"248 1454 LINE",
"-84 1098 LINE",
"72 1098 LINE"
);
},
{
closed = 1;
nodes = (
"324 999 LINE",
"174 999 LINE",
"174 0 LINE",
"324 0 LINE"
);
}
);
width = 498;
}
);
leftKerningGroup = i;
note = icircumflex;
rightKerningGroup = i;
unicode = 00EE;
},
{
glyphname = idieresis;
lastChange = "2017-12-10 12:53:03 +0000";
layers = (
{
layerId = "BF2BE0AA-9B99-4172-A7AC-368BFC5C7956";
paths = (
{
closed = 1;
nodes = (
"160 1413 LINE",
"0 1413 LINE",
"0 1229 LINE",
"160 1229 LINE"
);
},
{
closed = 1;
nodes = (
"492 1413 LINE",
"332 1413 LINE",
"332 1229 LINE",
"492 1229 LINE"
);
},
{
closed = 1;
nodes = (
"324 999 LINE",
"174 999 LINE",
"174 0 LINE",
"324 0 LINE"
);
}
);
width = 498;
}
);
leftKerningGroup = i;
note = idieresis;
rightKerningGroup = i;
unicode = 00EF;
},
{
glyphname = eth;
lastChange = "2017-12-10 12:53:03 +0000";
layers = (
{
layerId = "BF2BE0AA-9B99-4172-A7AC-368BFC5C7956";
paths = (
{
closed = 1;
nodes = (
"600 1526 LINE",
"539 1435 LINE",
"486 1464 OFFCURVE",
"428 1491 OFFCURVE",
"365 1516 CURVE",
"297 1419 LINE",
"356 1394 OFFCURVE",
"414 1365 OFFCURVE",
"471 1332 CURVE",
"379 1194 LINE",
"467 1137 LINE",
"560 1275 LINE",
"711 1169 OFFCURVE",
"797 1052 OFFCURVE",
"820 924 CURVE",
"775 976 OFFCURVE",
"664 1020 OFFCURVE",
"545 1020 CURVE SMOOTH",
"274 1020 OFFCURVE",
"96 804 OFFCURVE",
"96 516 CURVE SMOOTH",
"96 375 OFFCURVE",
"141 244 OFFCURVE",
"219 145 CURVE SMOOTH",
"297 46 OFFCURVE",
"420 -16 OFFCURVE",
"563 -16 CURVE SMOOTH",
"707 -16 OFFCURVE",
"832 47 OFFCURVE",
"910 146 CURVE SMOOTH",
"988 245 OFFCURVE",
"1032 375 OFFCURVE",
"1032 512 CURVE SMOOTH",
"1032 929 OFFCURVE",
"904 1197 OFFCURVE",
"631 1380 CURVE",
"692 1470 LINE"
);
},
{
closed = 1;
nodes = (
"377 164 OFFCURVE",
"344 196 OFFCURVE",
"319 235 CURVE SMOOTH",
"269 313 OFFCURVE",
"242 411 OFFCURVE",
"242 516 CURVE SMOOTH",
"242 621 OFFCURVE",
"269 720 OFFCURVE",
"319 798 CURVE SMOOTH",
"369 876 OFFCURVE",
"457 926 OFFCURVE",
"565 926 CURVE SMOOTH",
"670 926 OFFCURVE",
"756 877 OFFCURVE",
"808 801 CURVE SMOOTH",
"860 724 OFFCURVE",
"887 624 OFFCURVE",
"887 516 CURVE SMOOTH",
"887 411 OFFCURVE",
"861 313 OFFCURVE",
"810 235 CURVE SMOOTH",
"759 157 OFFCURVE",
"673 106 OFFCURVE",
"565 106 CURVE SMOOTH",
"511 106 OFFCURVE",
"463 118 OFFCURVE",
"420 141 CURVE SMOOTH"
);
}
);
width = 1151;
}
);
leftKerningGroup = c;
note = eth;
rightKerningGroup = b;
unicode = 00F0;
},
{
glyphname = ntilde;
lastChange = "2017-12-10 12:53:03 +0000";
layers = (
{
layerId = "BF2BE0AA-9B99-4172-A7AC-368BFC5C7956";
paths = (
{
closed = 1;
nodes = (
"771 1157 OFFCURVE",
"832 1248 OFFCURVE",
"832 1415 CURVE",
"736 1415 LINE",
"736 1310 OFFCURVE",
"711 1257 OFFCURVE",
"662 1257 CURVE SMOOTH",
"633 1257 OFFCURVE",
"604 1283 OFFCURVE",
"578 1315 CURVE SMOOTH",
"565 1331 OFFCURVE",
"551 1347 OFFCURVE",
"536 1363 CURVE SMOOTH",
"506 1395 OFFCURVE",
"459 1421 OFFCURVE",
"404 1421 CURVE SMOOTH",
"303 1421 OFFCURVE",
"246 1324 OFFCURVE",
"246 1180 CURVE",
"336 1180 LINE",
"336 1271 OFFCURVE",
"359 1317 OFFCURVE",
"406 1317 CURVE SMOOTH",
"437 1317 OFFCURVE",
"467 1292 OFFCURVE",
"495 1261 CURVE",
"508 1245 OFFCURVE",
"523 1229 OFFCURVE",
"538 1214 CURVE SMOOTH",
"568 1182 OFFCURVE",
"612 1157 OFFCURVE",
"660 1157 CURVE SMOOTH"
);
},
{
closed = 1;
nodes = (
"299 512 LINE SMOOTH",
"299 767 OFFCURVE",
"425 913 OFFCURVE",
"596 913 CURVE SMOOTH",
"685 913 OFFCURVE",
"752 871 OFFCURVE",
"785 807 CURVE SMOOTH",
"817 742 OFFCURVE",
"831 674 OFFCURVE",
"831 598 CURVE SMOOTH",
"831 0 LINE",
"956 0 LINE",
"956 608 LINE SMOOTH",
"956 685 OFFCURVE",
"945 754 OFFCURVE",
"924 814 CURVE SMOOTH",
"880 933 OFFCURVE",
"777 1016 OFFCURVE",
"629 1016 CURVE SMOOTH",
"477 1016 OFFCURVE",
"366 938 OFFCURVE",
"299 811 CURVE",
"299 999 LINE",
"174 999 LINE",
"174 0 LINE",
"299 0 LINE"
);
}
);
width = 1108;
}
);
leftKerningGroup = m;
note = ntilde;
rightKerningGroup = h;
unicode = 00F1;
},
{
glyphname = ograve;
lastChange = "2017-12-10 12:53:03 +0000";
layers = (
{
layerId = "BF2BE0AA-9B99-4172-A7AC-368BFC5C7956";
paths = (
{
closed = 1;
nodes = (
"414 1413 LINE",
"238 1413 LINE",
"483 1126 LINE",
"629 1126 LINE"
);
},
{
closed = 1;
nodes = (
"940 146 OFFCURVE",
"1022 313 OFFCURVE",
"1022 502 CURVE SMOOTH",
"1022 596 OFFCURVE",
"1002 683 OFFCURVE",
"963 762 CURVE SMOOTH",
"884 920 OFFCURVE",
"734 1020 OFFCURVE",
"555 1020 CURVE SMOOTH",
"466 1020 OFFCURVE",
"386 997 OFFCURVE",
"315 950 CURVE SMOOTH",
"174 857 OFFCURVE",
"94 691 OFFCURVE",
"94 502 CURVE SMOOTH",
"94 407 OFFCURVE",
"113 320 OFFCURVE",
"152 241 CURVE SMOOTH",
"228 82 OFFCURVE",
"376 -20 OFFCURVE",
"555 -20 CURVE SMOOTH",
"644 -20 OFFCURVE",
"725 4 OFFCURVE",
"797 51 CURVE SMOOTH"
);
},
{
closed = 1;
nodes = (
"446 82 OFFCURVE",
"356 133 OFFCURVE",
"302 213 CURVE SMOOTH",
"248 293 OFFCURVE",
"219 394 OFFCURVE",
"219 502 CURVE SMOOTH",
"219 609 OFFCURVE",
"248 709 OFFCURVE",
"302 788 CURVE SMOOTH",
"356 867 OFFCURVE",
"447 918 OFFCURVE",
"559 918 CURVE SMOOTH",
"633 918 OFFCURVE",
"696 898 OFFCURVE",
"749 857 CURVE SMOOTH",
"853 775 OFFCURVE",
"897 647 OFFCURVE",
"897 502 CURVE SMOOTH",
"897 395 OFFCURVE",
"868 295 OFFCURVE",
"815 215 CURVE SMOOTH",
"762 134 OFFCURVE",
"669 82 OFFCURVE",
"557 82 CURVE SMOOTH"
);
}
);
width = 1116;
}
);
leftKerningGroup = c;
note = ograve;
rightKerningGroup = b;
unicode = 00F2;
},
{
glyphname = oacute;
lastChange = "2017-12-10 12:53:03 +0000";
layers = (
{
layerId = "BF2BE0AA-9B99-4172-A7AC-368BFC5C7956";
paths = (
{
closed = 1;
nodes = (
"858 1413 LINE",
"682 1413 LINE",
"467 1124 LINE",
"590 1124 LINE"
);
},
{
closed = 1;
nodes = (
"940 146 OFFCURVE",
"1022 313 OFFCURVE",
"1022 502 CURVE SMOOTH",
"1022 596 OFFCURVE",
"1002 683 OFFCURVE",
"963 762 CURVE SMOOTH",
"884 920 OFFCURVE",
"734 1020 OFFCURVE",
"555 1020 CURVE SMOOTH",
"466 1020 OFFCURVE",
"386 997 OFFCURVE",
"315 950 CURVE SMOOTH",
"174 857 OFFCURVE",
"94 691 OFFCURVE",
"94 502 CURVE SMOOTH",
"94 407 OFFCURVE",
"113 320 OFFCURVE",
"152 241 CURVE SMOOTH",
"228 82 OFFCURVE",
"376 -20 OFFCURVE",
"555 -20 CURVE SMOOTH",
"644 -20 OFFCURVE",
"725 4 OFFCURVE",
"797 51 CURVE SMOOTH"
);
},
{
closed = 1;
nodes = (
"446 82 OFFCURVE",
"356 133 OFFCURVE",
"302 213 CURVE SMOOTH",
"248 293 OFFCURVE",
"219 394 OFFCURVE",
"219 502 CURVE SMOOTH",
"219 609 OFFCURVE",
"248 709 OFFCURVE",
"302 788 CURVE SMOOTH",
"356 867 OFFCURVE",
"447 918 OFFCURVE",
"559 918 CURVE SMOOTH",
"633 918 OFFCURVE",
"696 898 OFFCURVE",
"749 857 CURVE SMOOTH",
"853 775 OFFCURVE",
"897 647 OFFCURVE",
"897 502 CURVE SMOOTH",
"897 395 OFFCURVE",
"868 295 OFFCURVE",
"815 215 CURVE SMOOTH",
"762 134 OFFCURVE",
"669 82 OFFCURVE",
"557 82 CURVE SMOOTH"
);
}
);
width = 1116;
}
);
leftKerningGroup = c;
note = oacute;
rightKerningGroup = b;
unicode = 00F3;
},
{
glyphname = ocircumflex;
lastChange = "2017-12-10 12:53:03 +0000";
layers = (
{
layerId = "BF2BE0AA-9B99-4172-A7AC-368BFC5C7956";
paths = (
{
closed = 1;
nodes = (
"557 1294 LINE",
"735 1098 LINE",
"889 1098 LINE",
"557 1454 LINE",
"225 1098 LINE",
"381 1098 LINE"
);
},
{
closed = 1;
nodes = (
"940 146 OFFCURVE",
"1022 313 OFFCURVE",
"1022 502 CURVE SMOOTH",
"1022 596 OFFCURVE",
"1002 683 OFFCURVE",
"963 762 CURVE SMOOTH",
"884 920 OFFCURVE",
"734 1020 OFFCURVE",
"555 1020 CURVE SMOOTH",
"466 1020 OFFCURVE",
"386 997 OFFCURVE",
"315 950 CURVE SMOOTH",
"174 857 OFFCURVE",
"94 691 OFFCURVE",
"94 502 CURVE SMOOTH",
"94 407 OFFCURVE",
"113 320 OFFCURVE",
"152 241 CURVE SMOOTH",
"228 82 OFFCURVE",
"376 -20 OFFCURVE",
"555 -20 CURVE SMOOTH",
"644 -20 OFFCURVE",
"725 4 OFFCURVE",
"797 51 CURVE SMOOTH"
);
},
{
closed = 1;
nodes = (
"446 82 OFFCURVE",
"356 133 OFFCURVE",
"302 213 CURVE SMOOTH",
"248 293 OFFCURVE",
"219 394 OFFCURVE",
"219 502 CURVE SMOOTH",
"219 609 OFFCURVE",
"248 709 OFFCURVE",
"302 788 CURVE SMOOTH",
"356 867 OFFCURVE",
"447 918 OFFCURVE",
"559 918 CURVE SMOOTH",
"633 918 OFFCURVE",
"696 898 OFFCURVE",
"749 857 CURVE SMOOTH",
"853 775 OFFCURVE",
"897 647 OFFCURVE",
"897 502 CURVE SMOOTH",
"897 395 OFFCURVE",
"868 295 OFFCURVE",
"815 215 CURVE SMOOTH",
"762 134 OFFCURVE",
"669 82 OFFCURVE",
"557 82 CURVE SMOOTH"
);
}
);
width = 1116;
}
);
leftKerningGroup = c;
note = ocircumflex;
rightKerningGroup = b;
unicode = 00F4;
},
{
glyphname = otilde;
lastChange = "2017-12-10 12:53:03 +0000";
layers = (
{
layerId = "BF2BE0AA-9B99-4172-A7AC-368BFC5C7956";
paths = (
{
closed = 1;
nodes = (
"787 1157 OFFCURVE",
"848 1248 OFFCURVE",
"848 1415 CURVE",
"752 1415 LINE",
"752 1310 OFFCURVE",
"727 1257 OFFCURVE",
"678 1257 CURVE SMOOTH",
"649 1257 OFFCURVE",
"620 1283 OFFCURVE",
"594 1315 CURVE SMOOTH",
"581 1331 OFFCURVE",
"567 1347 OFFCURVE",
"552 1363 CURVE SMOOTH",
"522 1395 OFFCURVE",
"475 1421 OFFCURVE",
"420 1421 CURVE SMOOTH",
"319 1421 OFFCURVE",
"262 1324 OFFCURVE",
"262 1180 CURVE",
"352 1180 LINE",
"352 1271 OFFCURVE",
"375 1317 OFFCURVE",
"422 1317 CURVE SMOOTH",
"453 1317 OFFCURVE",
"483 1292 OFFCURVE",
"511 1261 CURVE",
"524 1245 OFFCURVE",
"539 1229 OFFCURVE",
"554 1214 CURVE SMOOTH",
"584 1182 OFFCURVE",
"628 1157 OFFCURVE",
"676 1157 CURVE SMOOTH"
);
},
{
closed = 1;
nodes = (
"940 146 OFFCURVE",
"1022 313 OFFCURVE",
"1022 502 CURVE SMOOTH",
"1022 596 OFFCURVE",
"1002 683 OFFCURVE",
"963 762 CURVE SMOOTH",
"884 920 OFFCURVE",
"734 1020 OFFCURVE",
"555 1020 CURVE SMOOTH",
"466 1020 OFFCURVE",
"386 997 OFFCURVE",
"315 950 CURVE SMOOTH",
"174 857 OFFCURVE",
"94 691 OFFCURVE",
"94 502 CURVE SMOOTH",
"94 407 OFFCURVE",
"113 320 OFFCURVE",
"152 241 CURVE SMOOTH",
"228 82 OFFCURVE",
"376 -20 OFFCURVE",
"555 -20 CURVE SMOOTH",
"644 -20 OFFCURVE",
"725 4 OFFCURVE",
"797 51 CURVE SMOOTH"
);
},
{
closed = 1;
nodes = (
"446 82 OFFCURVE",
"356 133 OFFCURVE",
"302 213 CURVE SMOOTH",
"248 293 OFFCURVE",
"219 394 OFFCURVE",
"219 502 CURVE SMOOTH",
"219 609 OFFCURVE",
"248 709 OFFCURVE",
"302 788 CURVE SMOOTH",
"356 867 OFFCURVE",
"447 918 OFFCURVE",
"559 918 CURVE SMOOTH",
"633 918 OFFCURVE",
"696 898 OFFCURVE",
"749 857 CURVE SMOOTH",
"853 775 OFFCURVE",
"897 647 OFFCURVE",
"897 502 CURVE SMOOTH",
"897 395 OFFCURVE",
"868 295 OFFCURVE",
"815 215 CURVE SMOOTH",
"762 134 OFFCURVE",
"669 82 OFFCURVE",
"557 82 CURVE SMOOTH"
);
}
);
width = 1116;
}
);
leftKerningGroup = c;
note = otilde;
rightKerningGroup = b;
unicode = 00F5;
},
{
glyphname = odieresis;
lastChange = "2017-12-10 12:53:03 +0000";
layers = (
{
layerId = "BF2BE0AA-9B99-4172-A7AC-368BFC5C7956";
paths = (
{
closed = 1;
nodes = (
"469 1413 LINE",
"309 1413 LINE",
"309 1229 LINE",
"469 1229 LINE"
);
},
{
closed = 1;
nodes = (
"801 1413 LINE",
"641 1413 LINE",
"641 1229 LINE",
"801 1229 LINE"
);
},
{
closed = 1;
nodes = (
"940 146 OFFCURVE",
"1022 313 OFFCURVE",
"1022 502 CURVE SMOOTH",
"1022 596 OFFCURVE",
"1002 683 OFFCURVE",
"963 762 CURVE SMOOTH",
"884 920 OFFCURVE",
"734 1020 OFFCURVE",
"555 1020 CURVE SMOOTH",
"466 1020 OFFCURVE",
"386 997 OFFCURVE",
"315 950 CURVE SMOOTH",
"174 857 OFFCURVE",
"94 691 OFFCURVE",
"94 502 CURVE SMOOTH",
"94 407 OFFCURVE",
"113 320 OFFCURVE",
"152 241 CURVE SMOOTH",
"228 82 OFFCURVE",
"376 -20 OFFCURVE",
"555 -20 CURVE SMOOTH",
"644 -20 OFFCURVE",
"725 4 OFFCURVE",
"797 51 CURVE SMOOTH"
);
},
{
closed = 1;
nodes = (
"446 82 OFFCURVE",
"356 133 OFFCURVE",
"302 213 CURVE SMOOTH",
"248 293 OFFCURVE",
"219 394 OFFCURVE",
"219 502 CURVE SMOOTH",
"219 609 OFFCURVE",
"248 709 OFFCURVE",
"302 788 CURVE SMOOTH",
"356 867 OFFCURVE",
"447 918 OFFCURVE",
"559 918 CURVE SMOOTH",
"633 918 OFFCURVE",
"696 898 OFFCURVE",
"749 857 CURVE SMOOTH",
"853 775 OFFCURVE",
"897 647 OFFCURVE",
"897 502 CURVE SMOOTH",
"897 395 OFFCURVE",
"868 295 OFFCURVE",
"815 215 CURVE SMOOTH",
"762 134 OFFCURVE",
"669 82 OFFCURVE",
"557 82 CURVE SMOOTH"
);
}
);
width = 1116;
}
);
leftKerningGroup = c;
note = odieresis;
rightKerningGroup = b;
unicode = 00F6;
},
{
glyphname = divide;
lastChange = "2017-12-10 12:53:03 +0000";
layers = (
{
layerId = "BF2BE0AA-9B99-4172-A7AC-368BFC5C7956";
paths = (
{
closed = 1;
nodes = (
"524 1096 LINE",
"346 1096 LINE",
"346 920 LINE",
"524 920 LINE"
);
},
{
closed = 1;
nodes = (
"735 676 LINE",
"135 676 LINE",
"135 580 LINE",
"735 580 LINE"
);
},
{
closed = 1;
nodes = (
"524 317 LINE",
"346 317 LINE",
"346 141 LINE",
"524 141 LINE"
);
}
);
width = 881;
}
);
leftKerningGroup = divide;
note = divide;
rightKerningGroup = divide;
unicode = 00F7;
},
{
glyphname = oslash;
lastChange = "2017-12-10 12:53:03 +0000";
layers = (
{
layerId = "BF2BE0AA-9B99-4172-A7AC-368BFC5C7956";
paths = (
{
closed = 1;
nodes = (
"794 998 LINE",
"775 963 LINE",
"706 1001 OFFCURVE",
"633 1020 OFFCURVE",
"555 1020 CURVE SMOOTH",
"466 1020 OFFCURVE",
"386 997 OFFCURVE",
"315 950 CURVE SMOOTH",
"174 857 OFFCURVE",
"94 691 OFFCURVE",
"94 502 CURVE SMOOTH",
"94 329 OFFCURVE",
"164 173 OFFCURVE",
"280 77 CURVE",
"238 1 LINE",
"319 1 LINE",
"339 36 LINE",
"404 -1 OFFCURVE",
"476 -20 OFFCURVE",
"555 -20 CURVE SMOOTH",
"644 -20 OFFCURVE",
"725 4 OFFCURVE",
"797 51 CURVE SMOOTH",
"940 146 OFFCURVE",
"1022 313 OFFCURVE",
"1022 502 CURVE SMOOTH",
"1022 673 OFFCURVE",
"951 827 OFFCURVE",
"834 923 CURVE",
"876 998 LINE"
);
},
{
closed = 1;
nodes = (
"219 609 OFFCURVE",
"248 709 OFFCURVE",
"302 788 CURVE SMOOTH",
"356 867 OFFCURVE",
"447 918 OFFCURVE",
"559 918 CURVE SMOOTH",
"622 918 OFFCURVE",
"677 903 OFFCURVE",
"725 874 CURVE",
"334 174 LINE",
"259 251 OFFCURVE",
"219 374 OFFCURVE",
"219 502 CURVE SMOOTH"
);
},
{
closed = 1;
nodes = (
"494 82 OFFCURVE",
"439 97 OFFCURVE",
"390 128 CURVE",
"781 829 LINE",
"857 752 OFFCURVE",
"897 631 OFFCURVE",
"897 502 CURVE SMOOTH",
"897 395 OFFCURVE",
"868 295 OFFCURVE",
"815 215 CURVE SMOOTH",
"762 134 OFFCURVE",
"669 82 OFFCURVE",
"557 82 CURVE SMOOTH"
);
}
);
width = 1116;
}
);
leftKerningGroup = oslash;
note = oslash;
rightKerningGroup = oslash;
unicode = 00F8;
},
{
glyphname = ugrave;
lastChange = "2017-12-10 12:53:03 +0000";
layers = (
{
layerId = "BF2BE0AA-9B99-4172-A7AC-368BFC5C7956";
paths = (
{
closed = 1;
nodes = (
"412 1413 LINE",
"236 1413 LINE",
"481 1126 LINE",
"627 1126 LINE"
);
},
{
closed = 1;
nodes = (
"640 -23 OFFCURVE",
"768 82 OFFCURVE",
"807 182 CURVE",
"807 0 LINE",
"930 0 LINE",
"930 999 LINE",
"807 999 LINE",
"807 420 LINE SMOOTH",
"807 245 OFFCURVE",
"661 80 OFFCURVE",
"492 80 CURVE SMOOTH",
"458 80 OFFCURVE",
"428 87 OFFCURVE",
"402 100 CURVE SMOOTH",
"349 127 OFFCURVE",
"320 167 OFFCURVE",
"300 224 CURVE SMOOTH",
"280 281 OFFCURVE",
"274 335 OFFCURVE",
"274 395 CURVE SMOOTH",
"274 999 LINE",
"150 999 LINE",
"150 406 LINE SMOOTH",
"150 285 OFFCURVE",
"175 183 OFFCURVE",
"227 104 CURVE SMOOTH",
"279 24 OFFCURVE",
"370 -23 OFFCURVE",
"487 -23 CURVE SMOOTH"
);
}
);
width = 1104;
}
);
leftKerningGroup = u;
note = ugrave;
rightKerningGroup = u;
unicode = 00F9;
},
{
glyphname = uacute;
lastChange = "2017-12-10 12:53:03 +0000";
layers = (
{
layerId = "BF2BE0AA-9B99-4172-A7AC-368BFC5C7956";
paths = (
{
closed = 1;
nodes = (
"856 1413 LINE",
"680 1413 LINE",
"465 1124 LINE",
"588 1124 LINE"
);
},
{
closed = 1;
nodes = (
"640 -23 OFFCURVE",
"768 82 OFFCURVE",
"807 182 CURVE",
"807 0 LINE",
"930 0 LINE",
"930 999 LINE",
"807 999 LINE",
"807 420 LINE SMOOTH",
"807 245 OFFCURVE",
"661 80 OFFCURVE",
"492 80 CURVE SMOOTH",
"458 80 OFFCURVE",
"428 87 OFFCURVE",
"402 100 CURVE SMOOTH",
"349 127 OFFCURVE",
"320 167 OFFCURVE",
"300 224 CURVE SMOOTH",
"280 281 OFFCURVE",
"274 335 OFFCURVE",
"274 395 CURVE SMOOTH",
"274 999 LINE",
"150 999 LINE",
"150 406 LINE SMOOTH",
"150 285 OFFCURVE",
"175 183 OFFCURVE",
"227 104 CURVE SMOOTH",
"279 24 OFFCURVE",
"370 -23 OFFCURVE",
"487 -23 CURVE SMOOTH"
);
}
);
width = 1104;
}
);
leftKerningGroup = u;
note = uacute;
rightKerningGroup = u;
unicode = 00FA;
},
{
glyphname = ucircumflex;
lastChange = "2017-12-10 12:53:03 +0000";
layers = (
{
layerId = "BF2BE0AA-9B99-4172-A7AC-368BFC5C7956";
paths = (
{
closed = 1;
nodes = (
"555 1294 LINE",
"733 1098 LINE",
"887 1098 LINE",
"555 1454 LINE",
"223 1098 LINE",
"379 1098 LINE"
);
},
{
closed = 1;
nodes = (
"640 -23 OFFCURVE",
"768 82 OFFCURVE",
"807 182 CURVE",
"807 0 LINE",
"930 0 LINE",
"930 999 LINE",
"807 999 LINE",
"807 420 LINE SMOOTH",
"807 245 OFFCURVE",
"661 80 OFFCURVE",
"492 80 CURVE SMOOTH",
"458 80 OFFCURVE",
"428 87 OFFCURVE",
"402 100 CURVE SMOOTH",
"349 127 OFFCURVE",
"320 167 OFFCURVE",
"300 224 CURVE SMOOTH",
"280 281 OFFCURVE",
"274 335 OFFCURVE",
"274 395 CURVE SMOOTH",
"274 999 LINE",
"150 999 LINE",
"150 406 LINE SMOOTH",
"150 285 OFFCURVE",
"175 183 OFFCURVE",
"227 104 CURVE SMOOTH",
"279 24 OFFCURVE",
"370 -23 OFFCURVE",
"487 -23 CURVE SMOOTH"
);
}
);
width = 1104;
}
);
leftKerningGroup = u;
note = ucircumflex;
rightKerningGroup = u;
unicode = 00FB;
},
{
glyphname = udieresis;
lastChange = "2017-12-10 12:53:03 +0000";
layers = (
{
layerId = "BF2BE0AA-9B99-4172-A7AC-368BFC5C7956";
paths = (
{
closed = 1;
nodes = (
"467 1413 LINE",
"307 1413 LINE",
"307 1229 LINE",
"467 1229 LINE"
);
},
{
closed = 1;
nodes = (
"799 1413 LINE",
"639 1413 LINE",
"639 1229 LINE",
"799 1229 LINE"
);
},
{
closed = 1;
nodes = (
"640 -23 OFFCURVE",
"768 82 OFFCURVE",
"807 182 CURVE",
"807 0 LINE",
"930 0 LINE",
"930 999 LINE",
"807 999 LINE",
"807 420 LINE SMOOTH",
"807 245 OFFCURVE",
"661 80 OFFCURVE",
"492 80 CURVE SMOOTH",
"458 80 OFFCURVE",
"428 87 OFFCURVE",
"402 100 CURVE SMOOTH",
"349 127 OFFCURVE",
"320 167 OFFCURVE",
"300 224 CURVE SMOOTH",
"280 281 OFFCURVE",
"274 335 OFFCURVE",
"274 395 CURVE SMOOTH",
"274 999 LINE",
"150 999 LINE",
"150 406 LINE SMOOTH",
"150 285 OFFCURVE",
"175 183 OFFCURVE",
"227 104 CURVE SMOOTH",
"279 24 OFFCURVE",
"370 -23 OFFCURVE",
"487 -23 CURVE SMOOTH"
);
}
);
width = 1104;
}
);
leftKerningGroup = u;
note = udieresis;
rightKerningGroup = u;
unicode = 00FC;
},
{
glyphname = yacute;
lastChange = "2017-12-10 12:53:03 +0000";
layers = (
{
layerId = "BF2BE0AA-9B99-4172-A7AC-368BFC5C7956";
paths = (
{
closed = 1;
nodes = (
"776 1413 LINE",
"600 1413 LINE",
"385 1124 LINE",
"508 1124 LINE"
);
},
{
closed = 1;
nodes = (
"915 999 LINE",
"778 999 LINE",
"487 152 LINE",
"184 999 LINE",
"45 999 LINE",
"428 0 LINE",
"260 -430 LINE",
"389 -430 LINE"
);
}
);
width = 961;
}
);
leftKerningGroup = y;
note = yacute;
rightKerningGroup = y;
unicode = 00FD;
},
{
glyphname = thorn;
lastChange = "2017-12-10 12:53:03 +0000";
layers = (
{
layerId = "BF2BE0AA-9B99-4172-A7AC-368BFC5C7956";
paths = (
{
closed = 1;
nodes = (
"319 154 LINE",
"390 38 OFFCURVE",
"498 -20 OFFCURVE",
"643 -20 CURVE SMOOTH",
"724 -20 OFFCURVE",
"795 4 OFFCURVE",
"855 51 CURVE SMOOTH",
"974 146 OFFCURVE",
"1032 305 OFFCURVE",
"1032 500 CURVE SMOOTH",
"1032 597 OFFCURVE",
"1017 684 OFFCURVE",
"988 762 CURVE SMOOTH",
"929 917 OFFCURVE",
"806 1020 OFFCURVE",
"643 1020 CURVE SMOOTH",
"498 1020 OFFCURVE",
"384 955 OFFCURVE",
"319 846 CURVE",
"319 1413 LINE",
"178 1413 LINE",
"178 -438 LINE",
"319 -438 LINE"
);
},
{
closed = 1;
nodes = (
"537 100 OFFCURVE",
"481 119 OFFCURVE",
"435 157 CURVE SMOOTH",
"342 232 OFFCURVE",
"303 353 OFFCURVE",
"303 500 CURVE SMOOTH",
"303 608 OFFCURVE",
"328 703 OFFCURVE",
"376 778 CURVE SMOOTH",
"423 853 OFFCURVE",
"503 899 OFFCURVE",
"602 899 CURVE SMOOTH",
"702 899 OFFCURVE",
"782 853 OFFCURVE",
"828 778 CURVE SMOOTH",
"874 703 OFFCURVE",
"897 608 OFFCURVE",
"897 500 CURVE SMOOTH",
"897 391 OFFCURVE",
"874 296 OFFCURVE",
"828 221 CURVE SMOOTH",
"782 145 OFFCURVE",
"702 100 OFFCURVE",
"602 100 CURVE SMOOTH"
);
}
);
width = 1137;
}
);
leftKerningGroup = b;
note = thorn;
rightKerningGroup = b;
unicode = 00FE;
},
{
glyphname = ydieresis;
lastChange = "2017-12-10 12:53:03 +0000";
layers = (
{
layerId = "BF2BE0AA-9B99-4172-A7AC-368BFC5C7956";
paths = (
{
closed = 1;
nodes = (
"387 1413 LINE",
"227 1413 LINE",
"227 1229 LINE",
"387 1229 LINE"
);
},
{
closed = 1;
nodes = (
"719 1413 LINE",
"559 1413 LINE",
"559 1229 LINE",
"719 1229 LINE"
);
},
{
closed = 1;
nodes = (
"915 999 LINE",
"778 999 LINE",
"487 152 LINE",
"184 999 LINE",
"45 999 LINE",
"428 0 LINE",
"260 -430 LINE",
"389 -430 LINE"
);
}
);
width = 961;
}
);
leftKerningGroup = y;
note = ydieresis;
rightKerningGroup = y;
unicode = 00FF;
},
{
glyphname = Amacron;
lastChange = "2017-12-10 12:53:03 +0000";
layers = (
{
layerId = "BF2BE0AA-9B99-4172-A7AC-368BFC5C7956";
paths = (
{
closed = 1;
nodes = (
"919 1727 LINE",
"383 1727 LINE",
"383 1606 LINE",
"919 1606 LINE"
);
},
{
closed = 1;
nodes = (
"330 307 LINE",
"969 307 LINE",
"1077 0 LINE",
"1221 0 LINE",
"702 1413 LINE",
"598 1413 LINE",
"76 0 LINE",
"223 0 LINE"
);
},
{
closed = 1;
nodes = (
"924 434 LINE",
"375 434 LINE",
"651 1214 LINE"
);
}
);
width = 1296;
}
);
note = Amacron;
unicode = 0100;
},
{
glyphname = amacron;
lastChange = "2017-12-10 12:53:03 +0000";
layers = (
{
layerId = "BF2BE0AA-9B99-4172-A7AC-368BFC5C7956";
paths = (
{
closed = 1;
nodes = (
"772 1313 LINE",
"236 1313 LINE",
"236 1192 LINE",
"772 1192 LINE"
);
},
{
closed = 1;
nodes = (
"553 -20 OFFCURVE",
"691 56 OFFCURVE",
"758 205 CURVE",
"758 0 LINE",
"866 0 LINE",
"866 614 LINE SMOOTH",
"866 863 OFFCURVE",
"730 1020 OFFCURVE",
"485 1020 CURVE SMOOTH",
"332 1020 OFFCURVE",
"210 956 OFFCURVE",
"119 829 CURVE",
"209 758 LINE",
"284 860 OFFCURVE",
"379 911 OFFCURVE",
"496 911 CURVE SMOOTH",
"668 911 OFFCURVE",
"754 796 OFFCURVE",
"754 565 CURVE",
"532 565 LINE SMOOTH",
"232 565 OFFCURVE",
"82 467 OFFCURVE",
"82 270 CURVE SMOOTH",
"82 91 OFFCURVE",
"210 -20 OFFCURVE",
"397 -20 CURVE SMOOTH"
);
},
{
closed = 1;
nodes = (
"293 86 OFFCURVE",
"213 143 OFFCURVE",
"213 268 CURVE SMOOTH",
"213 413 OFFCURVE",
"319 467 OFFCURVE",
"547 467 CURVE SMOOTH",
"754 467 LINE",
"754 380 OFFCURVE",
"721 288 OFFCURVE",
"665 213 CURVE SMOOTH",
"609 138 OFFCURVE",
"515 86 OFFCURVE",
"410 86 CURVE SMOOTH"
);
}
);
width = 1016;
}
);
note = amacron;
unicode = 0101;
},
{
glyphname = Abreve;
lastChange = "2017-12-10 12:53:03 +0000";
layers = (
{
layerId = "BF2BE0AA-9B99-4172-A7AC-368BFC5C7956";
paths = (
{
closed = 1;
nodes = (
"924 1676 OFFCURVE",
"952 1742 OFFCURVE",
"952 1827 CURVE",
"825 1827 LINE",
"825 1731 OFFCURVE",
"748 1663 OFFCURVE",
"649 1663 CURVE SMOOTH",
"549 1663 OFFCURVE",
"471 1732 OFFCURVE",
"471 1827 CURVE",
"344 1827 LINE",
"344 1659 OFFCURVE",
"473 1557 OFFCURVE",
"649 1557 CURVE SMOOTH",
"737 1557 OFFCURVE",
"810 1581 OFFCURVE",
"867 1629 CURVE SMOOTH"
);
},
{
closed = 1;
nodes = (
"330 307 LINE",
"969 307 LINE",
"1077 0 LINE",
"1221 0 LINE",
"702 1413 LINE",
"598 1413 LINE",
"76 0 LINE",
"223 0 LINE"
);
},
{
closed = 1;
nodes = (
"924 434 LINE",
"375 434 LINE",
"651 1214 LINE"
);
}
);
width = 1296;
}
);
note = Abreve;
unicode = 0102;
},
{
glyphname = abreve;
lastChange = "2017-12-10 12:53:03 +0000";
layers = (
{
layerId = "BF2BE0AA-9B99-4172-A7AC-368BFC5C7956";
paths = (
{
closed = 1;
nodes = (
"777 1262 OFFCURVE",
"805 1328 OFFCURVE",
"805 1413 CURVE",
"678 1413 LINE",
"678 1317 OFFCURVE",
"601 1249 OFFCURVE",
"502 1249 CURVE SMOOTH",
"402 1249 OFFCURVE",
"324 1318 OFFCURVE",
"324 1413 CURVE",
"197 1413 LINE",
"197 1245 OFFCURVE",
"326 1143 OFFCURVE",
"502 1143 CURVE SMOOTH",
"590 1143 OFFCURVE",
"663 1167 OFFCURVE",
"720 1215 CURVE SMOOTH"
);
},
{
closed = 1;
nodes = (
"553 -20 OFFCURVE",
"691 56 OFFCURVE",
"758 205 CURVE",
"758 0 LINE",
"866 0 LINE",
"866 614 LINE SMOOTH",
"866 863 OFFCURVE",
"730 1020 OFFCURVE",
"485 1020 CURVE SMOOTH",
"332 1020 OFFCURVE",
"210 956 OFFCURVE",
"119 829 CURVE",
"209 758 LINE",
"284 860 OFFCURVE",
"379 911 OFFCURVE",
"496 911 CURVE SMOOTH",
"668 911 OFFCURVE",
"754 796 OFFCURVE",
"754 565 CURVE",
"532 565 LINE SMOOTH",
"232 565 OFFCURVE",
"82 467 OFFCURVE",
"82 270 CURVE SMOOTH",
"82 91 OFFCURVE",
"210 -20 OFFCURVE",
"397 -20 CURVE SMOOTH"
);
},
{
closed = 1;
nodes = (
"293 86 OFFCURVE",
"213 143 OFFCURVE",
"213 268 CURVE SMOOTH",
"213 413 OFFCURVE",
"319 467 OFFCURVE",
"547 467 CURVE SMOOTH",
"754 467 LINE",
"754 380 OFFCURVE",
"721 288 OFFCURVE",
"665 213 CURVE SMOOTH",
"609 138 OFFCURVE",
"515 86 OFFCURVE",
"410 86 CURVE SMOOTH"
);
}
);
width = 1016;
}
);
note = abreve;
unicode = 0103;
},
{
glyphname = Aogonek;
lastChange = "2017-12-10 12:53:03 +0000";
layers = (
{
layerId = "BF2BE0AA-9B99-4172-A7AC-368BFC5C7956";
paths = (
{
closed = 1;
nodes = (
"1176 -324 OFFCURVE",
"1133 -346 OFFCURVE",
"1080 -346 CURVE SMOOTH",
"1029 -346 OFFCURVE",
"990 -301 OFFCURVE",
"990 -233 CURVE SMOOTH",
"990 -190 OFFCURVE",
"1009 -148 OFFCURVE",
"1036 -118 CURVE SMOOTH",
"1063 -88 OFFCURVE",
"1099 -60 OFFCURVE",
"1131 -42 CURVE SMOOTH",
"1163 -24 OFFCURVE",
"1193 -11 OFFCURVE",
"1209 -4 CURVE",
"1221 0 LINE",
"702 1413 LINE",
"598 1413 LINE",
"76 0 LINE",
"223 0 LINE",
"330 307 LINE",
"969 307 LINE",
"1077 0 LINE",
"1115 0 LINE",
"1067 -15 OFFCURVE",
"1024 -36 OFFCURVE",
"974 -75 CURVE SMOOTH",
"924 -114 OFFCURVE",
"890 -175 OFFCURVE",
"890 -246 CURVE SMOOTH",
"890 -369 OFFCURVE",
"974 -451 OFFCURVE",
"1090 -451 CURVE SMOOTH",
"1185 -451 OFFCURVE",
"1244 -412 OFFCURVE",
"1293 -340 CURVE",
"1207 -281 LINE"
);
},
{
closed = 1;
nodes = (
"924 434 LINE",
"375 434 LINE",
"651 1214 LINE"
);
}
);
width = 1296;
}
);
note = Aogonek;
unicode = 0104;
},
{
glyphname = aogonek;
lastChange = "2017-12-10 12:53:03 +0000";
layers = (
{
layerId = "BF2BE0AA-9B99-4172-A7AC-368BFC5C7956";
paths = (
{
closed = 1;
nodes = (
"821 -324 OFFCURVE",
"778 -346 OFFCURVE",
"725 -346 CURVE SMOOTH",
"674 -346 OFFCURVE",
"635 -301 OFFCURVE",
"635 -233 CURVE SMOOTH",
"635 -190 OFFCURVE",
"654 -148 OFFCURVE",
"681 -118 CURVE SMOOTH",
"708 -88 OFFCURVE",
"744 -60 OFFCURVE",
"776 -42 CURVE SMOOTH",
"808 -24 OFFCURVE",
"838 -11 OFFCURVE",
"854 -4 CURVE",
"866 0 LINE",
"866 614 LINE SMOOTH",
"866 863 OFFCURVE",
"730 1020 OFFCURVE",
"485 1020 CURVE SMOOTH",
"332 1020 OFFCURVE",
"210 956 OFFCURVE",
"119 829 CURVE",
"209 758 LINE",
"284 860 OFFCURVE",
"379 911 OFFCURVE",
"496 911 CURVE SMOOTH",
"668 911 OFFCURVE",
"754 796 OFFCURVE",
"754 565 CURVE",
"532 565 LINE SMOOTH",
"232 565 OFFCURVE",
"82 467 OFFCURVE",
"82 270 CURVE SMOOTH",
"82 91 OFFCURVE",
"210 -20 OFFCURVE",
"397 -20 CURVE SMOOTH",
"553 -20 OFFCURVE",
"691 56 OFFCURVE",
"758 205 CURVE",
"758 0 LINE",
"760 0 LINE",
"712 -15 OFFCURVE",
"669 -36 OFFCURVE",
"619 -75 CURVE SMOOTH",
"569 -114 OFFCURVE",
"535 -175 OFFCURVE",
"535 -246 CURVE SMOOTH",
"535 -369 OFFCURVE",
"619 -451 OFFCURVE",
"735 -451 CURVE SMOOTH",
"830 -451 OFFCURVE",
"889 -412 OFFCURVE",
"938 -340 CURVE",
"852 -281 LINE"
);
},
{
closed = 1;
nodes = (
"293 86 OFFCURVE",
"213 143 OFFCURVE",
"213 268 CURVE SMOOTH",
"213 413 OFFCURVE",
"319 467 OFFCURVE",
"547 467 CURVE SMOOTH",
"754 467 LINE",
"754 380 OFFCURVE",
"721 288 OFFCURVE",
"665 213 CURVE SMOOTH",
"609 138 OFFCURVE",
"515 86 OFFCURVE",
"410 86 CURVE SMOOTH"
);
}
);
width = 1016;
}
);
note = aogonek;
unicode = 0105;
},
{
glyphname = Cacute;
lastChange = "2017-12-10 12:53:03 +0000";
layers = (
{
layerId = "BF2BE0AA-9B99-4172-A7AC-368BFC5C7956";
paths = (
{
closed = 1;
nodes = (
"1020 1827 LINE",
"844 1827 LINE",
"629 1538 LINE",
"752 1538 LINE"
);
},
{
closed = 1;
nodes = (
"1019 -20 OFFCURVE",
"1216 113 OFFCURVE",
"1321 350 CURVE",
"1198 406 LINE",
"1172 333 OFFCURVE",
"1136 273 OFFCURVE",
"1089 227 CURVE SMOOTH",
"996 134 OFFCURVE",
"892 102 OFFCURVE",
"764 102 CURVE SMOOTH",
"695 102 OFFCURVE",
"632 113 OFFCURVE",
"576 135 CURVE SMOOTH",
"464 179 OFFCURVE",
"392 254 OFFCURVE",
"341 359 CURVE SMOOTH",
"289 463 OFFCURVE",
"268 579 OFFCURVE",
"268 711 CURVE SMOOTH",
"268 776 OFFCURVE",
"274 837 OFFCURVE",
"285 895 CURVE SMOOTH",
"307 1010 OFFCURVE",
"357 1117 OFFCURVE",
"432 1192 CURVE SMOOTH",
"507 1267 OFFCURVE",
"621 1313 OFFCURVE",
"760 1313 CURVE SMOOTH",
"855 1313 OFFCURVE",
"940 1293 OFFCURVE",
"1021 1249 CURVE SMOOTH",
"1102 1205 OFFCURVE",
"1167 1121 OFFCURVE",
"1196 1012 CURVE",
"1319 1067 LINE",
"1228 1313 OFFCURVE",
"1045 1436 OFFCURVE",
"768 1436 CURVE SMOOTH",
"681 1436 OFFCURVE",
"603 1423 OFFCURVE",
"532 1398 CURVE SMOOTH",
"390 1347 OFFCURVE",
"296 1258 OFFCURVE",
"230 1135 CURVE SMOOTH",
"164 1012 OFFCURVE",
"135 871 OFFCURVE",
"135 711 CURVE SMOOTH",
"135 630 OFFCURVE",
"143 553 OFFCURVE",
"159 481 CURVE SMOOTH",
"190 336 OFFCURVE",
"257 210 OFFCURVE",
"353 122 CURVE SMOOTH",
"449 33 OFFCURVE",
"588 -20 OFFCURVE",
"752 -20 CURVE SMOOTH"
);
}
);
width = 1417;
}
);
note = Cacute;
unicode = 0106;
},
{
glyphname = cacute;
lastChange = "2017-12-10 12:53:03 +0000";
layers = (
{
layerId = "BF2BE0AA-9B99-4172-A7AC-368BFC5C7956";
paths = (
{
closed = 1;
nodes = (
"823 1413 LINE",
"647 1413 LINE",
"432 1124 LINE",
"555 1124 LINE"
);
},
{
closed = 1;
nodes = (
"697 -20 OFFCURVE",
"828 75 OFFCURVE",
"887 238 CURVE",
"780 287 LINE",
"751 163 OFFCURVE",
"648 82 OFFCURVE",
"520 82 CURVE SMOOTH",
"416 82 OFFCURVE",
"335 136 OFFCURVE",
"292 220 CURVE SMOOTH",
"249 303 OFFCURVE",
"229 397 OFFCURVE",
"229 498 CURVE SMOOTH",
"229 598 OFFCURVE",
"249 693 OFFCURVE",
"293 778 CURVE SMOOTH",
"336 862 OFFCURVE",
"416 918 OFFCURVE",
"520 918 CURVE SMOOTH",
"645 918 OFFCURVE",
"751 836 OFFCURVE",
"780 709 CURVE",
"899 762 LINE",
"827 922 OFFCURVE",
"692 1020 OFFCURVE",
"520 1020 CURVE SMOOTH",
"385 1020 OFFCURVE",
"273 957 OFFCURVE",
"205 860 CURVE SMOOTH",
"137 763 OFFCURVE",
"100 635 OFFCURVE",
"100 498 CURVE SMOOTH",
"100 405 OFFCURVE",
"116 320 OFFCURVE",
"147 243 CURVE SMOOTH",
"209 89 OFFCURVE",
"343 -20 OFFCURVE",
"522 -20 CURVE SMOOTH"
);
}
);
width = 967;
}
);
leftKerningGroup = a;
note = cacute;
unicode = 0107;
},
{
glyphname = Cdotaccent;
lastChange = "2017-12-10 12:53:03 +0000";
layers = (
{
layerId = "BF2BE0AA-9B99-4172-A7AC-368BFC5C7956";
paths = (
{
closed = 1;
nodes = (
"793 1827 LINE",
"641 1827 LINE",
"641 1643 LINE",
"793 1643 LINE"
);
},
{
closed = 1;
nodes = (
"1019 -20 OFFCURVE",
"1216 113 OFFCURVE",
"1321 350 CURVE",
"1198 406 LINE",
"1172 333 OFFCURVE",
"1136 273 OFFCURVE",
"1089 227 CURVE SMOOTH",
"996 134 OFFCURVE",
"892 102 OFFCURVE",
"764 102 CURVE SMOOTH",
"695 102 OFFCURVE",
"632 113 OFFCURVE",
"576 135 CURVE SMOOTH",
"464 179 OFFCURVE",
"392 254 OFFCURVE",
"341 359 CURVE SMOOTH",
"289 463 OFFCURVE",
"268 579 OFFCURVE",
"268 711 CURVE SMOOTH",
"268 776 OFFCURVE",
"274 837 OFFCURVE",
"285 895 CURVE SMOOTH",
"307 1010 OFFCURVE",
"357 1117 OFFCURVE",
"432 1192 CURVE SMOOTH",
"507 1267 OFFCURVE",
"621 1313 OFFCURVE",
"760 1313 CURVE SMOOTH",
"855 1313 OFFCURVE",
"940 1293 OFFCURVE",
"1021 1249 CURVE SMOOTH",
"1102 1205 OFFCURVE",
"1167 1121 OFFCURVE",
"1196 1012 CURVE",
"1319 1067 LINE",
"1228 1313 OFFCURVE",
"1045 1436 OFFCURVE",
"768 1436 CURVE SMOOTH",
"681 1436 OFFCURVE",
"603 1423 OFFCURVE",
"532 1398 CURVE SMOOTH",
"390 1347 OFFCURVE",
"296 1258 OFFCURVE",
"230 1135 CURVE SMOOTH",
"164 1012 OFFCURVE",
"135 871 OFFCURVE",
"135 711 CURVE SMOOTH",
"135 630 OFFCURVE",
"143 553 OFFCURVE",
"159 481 CURVE SMOOTH",
"190 336 OFFCURVE",
"257 210 OFFCURVE",
"353 122 CURVE SMOOTH",
"449 33 OFFCURVE",
"588 -20 OFFCURVE",
"752 -20 CURVE SMOOTH"
);
}
);
width = 1417;
}
);
note = Cdotaccent;
unicode = 010A;
},
{
glyphname = cdotaccent;
lastChange = "2017-12-10 12:53:03 +0000";
layers = (
{
layerId = "BF2BE0AA-9B99-4172-A7AC-368BFC5C7956";
paths = (
{
closed = 1;
nodes = (
"596 1413 LINE",
"444 1413 LINE",
"444 1229 LINE",
"596 1229 LINE"
);
},
{
closed = 1;
nodes = (
"697 -20 OFFCURVE",
"828 75 OFFCURVE",
"887 238 CURVE",
"780 287 LINE",
"751 163 OFFCURVE",
"648 82 OFFCURVE",
"520 82 CURVE SMOOTH",
"416 82 OFFCURVE",
"335 136 OFFCURVE",
"292 220 CURVE SMOOTH",
"249 303 OFFCURVE",
"229 397 OFFCURVE",
"229 498 CURVE SMOOTH",
"229 598 OFFCURVE",
"249 693 OFFCURVE",
"293 778 CURVE SMOOTH",
"336 862 OFFCURVE",
"416 918 OFFCURVE",
"520 918 CURVE SMOOTH",
"645 918 OFFCURVE",
"751 836 OFFCURVE",
"780 709 CURVE",
"899 762 LINE",
"827 922 OFFCURVE",
"692 1020 OFFCURVE",
"520 1020 CURVE SMOOTH",
"385 1020 OFFCURVE",
"273 957 OFFCURVE",
"205 860 CURVE SMOOTH",
"137 763 OFFCURVE",
"100 635 OFFCURVE",
"100 498 CURVE SMOOTH",
"100 405 OFFCURVE",
"116 320 OFFCURVE",
"147 243 CURVE SMOOTH",
"209 89 OFFCURVE",
"343 -20 OFFCURVE",
"522 -20 CURVE SMOOTH"
);
}
);
width = 967;
}
);
leftKerningGroup = a;
note = cdotaccent;
unicode = 010B;
},
{
glyphname = Ccaron;
lastChange = "2017-12-10 12:53:03 +0000";
layers = (
{
layerId = "BF2BE0AA-9B99-4172-A7AC-368BFC5C7956";
paths = (
{
closed = 1;
nodes = (
"897 1827 LINE",
"719 1635 LINE",
"543 1827 LINE",
"387 1827 LINE",
"719 1495 LINE",
"1051 1827 LINE"
);
},
{
closed = 1;
nodes = (
"1019 -20 OFFCURVE",
"1216 113 OFFCURVE",
"1321 350 CURVE",
"1198 406 LINE",
"1172 333 OFFCURVE",
"1136 273 OFFCURVE",
"1089 227 CURVE SMOOTH",
"996 134 OFFCURVE",
"892 102 OFFCURVE",
"764 102 CURVE SMOOTH",
"695 102 OFFCURVE",
"632 113 OFFCURVE",
"576 135 CURVE SMOOTH",
"464 179 OFFCURVE",
"392 254 OFFCURVE",
"341 359 CURVE SMOOTH",
"289 463 OFFCURVE",
"268 579 OFFCURVE",
"268 711 CURVE SMOOTH",
"268 776 OFFCURVE",
"274 837 OFFCURVE",
"285 895 CURVE SMOOTH",
"307 1010 OFFCURVE",
"357 1117 OFFCURVE",
"432 1192 CURVE SMOOTH",
"507 1267 OFFCURVE",
"621 1313 OFFCURVE",
"760 1313 CURVE SMOOTH",
"855 1313 OFFCURVE",
"940 1293 OFFCURVE",
"1021 1249 CURVE SMOOTH",
"1102 1205 OFFCURVE",
"1167 1121 OFFCURVE",
"1196 1012 CURVE",
"1319 1067 LINE",
"1228 1313 OFFCURVE",
"1045 1436 OFFCURVE",
"768 1436 CURVE SMOOTH",
"681 1436 OFFCURVE",
"603 1423 OFFCURVE",
"532 1398 CURVE SMOOTH",
"390 1347 OFFCURVE",
"296 1258 OFFCURVE",
"230 1135 CURVE SMOOTH",
"164 1012 OFFCURVE",
"135 871 OFFCURVE",
"135 711 CURVE SMOOTH",
"135 630 OFFCURVE",
"143 553 OFFCURVE",
"159 481 CURVE SMOOTH",
"190 336 OFFCURVE",
"257 210 OFFCURVE",
"353 122 CURVE SMOOTH",
"449 33 OFFCURVE",
"588 -20 OFFCURVE",
"752 -20 CURVE SMOOTH"
);
}
);
width = 1417;
}
);
note = Ccaron;
unicode = 010C;
},
{
glyphname = ccaron;
lastChange = "2017-12-10 12:53:03 +0000";
layers = (
{
layerId = "BF2BE0AA-9B99-4172-A7AC-368BFC5C7956";
paths = (
{
closed = 1;
nodes = (
"700 1413 LINE",
"522 1221 LINE",
"346 1413 LINE",
"190 1413 LINE",
"522 1081 LINE",
"854 1413 LINE"
);
},
{
closed = 1;
nodes = (
"697 -20 OFFCURVE",
"828 75 OFFCURVE",
"887 238 CURVE",
"780 287 LINE",
"751 163 OFFCURVE",
"648 82 OFFCURVE",
"520 82 CURVE SMOOTH",
"416 82 OFFCURVE",
"335 136 OFFCURVE",
"292 220 CURVE SMOOTH",
"249 303 OFFCURVE",
"229 397 OFFCURVE",
"229 498 CURVE SMOOTH",
"229 598 OFFCURVE",
"249 693 OFFCURVE",
"293 778 CURVE SMOOTH",
"336 862 OFFCURVE",
"416 918 OFFCURVE",
"520 918 CURVE SMOOTH",
"645 918 OFFCURVE",
"751 836 OFFCURVE",
"780 709 CURVE",
"899 762 LINE",
"827 922 OFFCURVE",
"692 1020 OFFCURVE",
"520 1020 CURVE SMOOTH",
"385 1020 OFFCURVE",
"273 957 OFFCURVE",
"205 860 CURVE SMOOTH",
"137 763 OFFCURVE",
"100 635 OFFCURVE",
"100 498 CURVE SMOOTH",
"100 405 OFFCURVE",
"116 320 OFFCURVE",
"147 243 CURVE SMOOTH",
"209 89 OFFCURVE",
"343 -20 OFFCURVE",
"522 -20 CURVE SMOOTH"
);
}
);
width = 967;
}
);
leftKerningGroup = a;
note = ccaron;
unicode = 010D;
},
{
glyphname = Dcaron;
lastChange = "2017-12-10 12:53:03 +0000";
layers = (
{
layerId = "BF2BE0AA-9B99-4172-A7AC-368BFC5C7956";
paths = (
{
closed = 1;
nodes = (
"899 1827 LINE",
"721 1635 LINE",
"545 1827 LINE",
"389 1827 LINE",
"721 1495 LINE",
"1053 1827 LINE"
);
},
{
closed = 1;
nodes = (
"1017 0 OFFCURVE",
"1274 251 OFFCURVE",
"1274 696 CURVE SMOOTH",
"1274 1160 OFFCURVE",
"1022 1413 OFFCURVE",
"567 1413 CURVE SMOOTH",
"219 1413 LINE",
"219 0 LINE",
"565 0 LINE SMOOTH"
);
},
{
closed = 1;
nodes = (
"563 1294 LINE SMOOTH",
"939 1294 OFFCURVE",
"1139 1083 OFFCURVE",
"1139 707 CURVE SMOOTH",
"1139 514 OFFCURVE",
"1073 358 OFFCURVE",
"965 265 CURVE SMOOTH",
"856 172 OFFCURVE",
"710 123 OFFCURVE",
"541 123 CURVE SMOOTH",
"354 123 LINE",
"354 1294 LINE"
);
}
);
width = 1405;
}
);
note = Dcaron;
unicode = 010E;
},
{
glyphname = dcaron;
lastChange = "2017-12-10 12:53:03 +0000";
layers = (
{
layerId = "BF2BE0AA-9B99-4172-A7AC-368BFC5C7956";
paths = (
{
closed = 1;
nodes = (
"639 -20 OFFCURVE",
"742 35 OFFCURVE",
"817 145 CURVE",
"817 0 LINE",
"942 0 LINE",
"942 1413 LINE",
"817 1413 LINE",
"817 854 LINE",
"750 958 OFFCURVE",
"641 1020 OFFCURVE",
"506 1020 CURVE SMOOTH",
"421 1020 OFFCURVE",
"348 997 OFFCURVE",
"287 950 CURVE SMOOTH",
"163 856 OFFCURVE",
"104 695 OFFCURVE",
"104 500 CURVE SMOOTH",
"104 402 OFFCURVE",
"119 314 OFFCURVE",
"149 237 CURVE SMOOTH",
"209 82 OFFCURVE",
"337 -20 OFFCURVE",
"506 -20 CURVE SMOOTH"
);
},
{
closed = 1;
nodes = (
"1354 1413 LINE",
"1153 1413 LINE",
"1053 1032 LINE",
"1151 1032 LINE"
);
},
{
closed = 1;
nodes = (
"491 94 OFFCURVE",
"454 101 OFFCURVE",
"421 116 CURVE SMOOTH",
"353 145 OFFCURVE",
"309 196 OFFCURVE",
"278 265 CURVE SMOOTH",
"246 334 OFFCURVE",
"233 413 OFFCURVE",
"233 500 CURVE SMOOTH",
"233 574 OFFCURVE",
"243 641 OFFCURVE",
"263 700 CURVE SMOOTH",
"303 818 OFFCURVE",
"397 903 OFFCURVE",
"532 903 CURVE SMOOTH",
"633 903 OFFCURVE",
"714 856 OFFCURVE",
"759 780 CURVE SMOOTH",
"804 704 OFFCURVE",
"827 609 OFFCURVE",
"827 500 CURVE SMOOTH",
"827 391 OFFCURVE",
"804 295 OFFCURVE",
"759 219 CURVE SMOOTH",
"714 142 OFFCURVE",
"633 94 OFFCURVE",
"532 94 CURVE SMOOTH"
);
}
);
width = 1171;
}
);
leftKerningGroup = a;
note = dcaron;
unicode = 010F;
},
{
glyphname = Dcroat;
lastChange = "2017-12-10 12:53:03 +0000";
layers = (
{
layerId = "BF2BE0AA-9B99-4172-A7AC-368BFC5C7956";
paths = (
{
closed = 1;
nodes = (
"1037 0 OFFCURVE",
"1290 251 OFFCURVE",
"1290 696 CURVE SMOOTH",
"1290 1160 OFFCURVE",
"1043 1413 OFFCURVE",
"592 1413 CURVE SMOOTH",
"236 1413 LINE",
"236 762 LINE",
"123 762 LINE",
"123 664 LINE",
"236 664 LINE",
"236 0 LINE",
"590 0 LINE SMOOTH"
);
},
{
closed = 1;
nodes = (
"760 664 LINE",
"760 762 LINE",
"379 762 LINE",
"379 1286 LINE",
"588 1286 LINE SMOOTH",
"956 1286 OFFCURVE",
"1145 1083 OFFCURVE",
"1145 707 CURVE SMOOTH",
"1145 511 OFFCURVE",
"1083 358 OFFCURVE",
"978 267 CURVE SMOOTH",
"873 175 OFFCURVE",
"733 129 OFFCURVE",
"565 129 CURVE SMOOTH",
"379 129 LINE",
"379 664 LINE"
);
}
);
width = 1421;
}
);
note = Dcroat;
unicode = 0110;
},
{
glyphname = dcroat;
lastChange = "2017-12-10 12:53:03 +0000";
layers = (
{
layerId = "BF2BE0AA-9B99-4172-A7AC-368BFC5C7956";
paths = (
{
closed = 1;
nodes = (
"942 1413 LINE",
"817 1413 LINE",
"817 1268 LINE",
"510 1268 LINE",
"510 1163 LINE",
"817 1163 LINE",
"817 854 LINE",
"744 965 OFFCURVE",
"637 1020 OFFCURVE",
"498 1020 CURVE SMOOTH",
"417 1020 OFFCURVE",
"347 997 OFFCURVE",
"286 950 CURVE SMOOTH",
"165 856 OFFCURVE",
"104 693 OFFCURVE",
"104 500 CURVE SMOOTH",
"104 403 OFFCURVE",
"119 316 OFFCURVE",
"150 238 CURVE SMOOTH",
"210 82 OFFCURVE",
"337 -20 OFFCURVE",
"498 -20 CURVE SMOOTH",
"649 -20 OFFCURVE",
"744 42 OFFCURVE",
"817 146 CURVE",
"817 0 LINE",
"942 0 LINE",
"942 1163 LINE",
"1145 1163 LINE",
"1145 1268 LINE",
"942 1268 LINE"
);
},
{
closed = 1;
nodes = (
"430 82 OFFCURVE",
"350 132 OFFCURVE",
"303 212 CURVE SMOOTH",
"256 291 OFFCURVE",
"233 391 OFFCURVE",
"233 500 CURVE SMOOTH",
"233 609 OFFCURVE",
"256 708 OFFCURVE",
"303 788 CURVE SMOOTH",
"350 868 OFFCURVE",
"430 918 OFFCURVE",
"530 918 CURVE SMOOTH",
"633 918 OFFCURVE",
"714 868 OFFCURVE",
"759 788 CURVE SMOOTH",
"804 707 OFFCURVE",
"827 609 OFFCURVE",
"827 500 CURVE SMOOTH",
"827 389 OFFCURVE",
"804 292 OFFCURVE",
"759 212 CURVE SMOOTH",
"714 132 OFFCURVE",
"633 82 OFFCURVE",
"530 82 CURVE SMOOTH"
);
}
);
width = 1118;
}
);
leftKerningGroup = a;
note = dcroat;
unicode = 0111;
},
{
glyphname = Emacron;
lastChange = "2017-12-10 12:53:03 +0000";
layers = (
{
layerId = "BF2BE0AA-9B99-4172-A7AC-368BFC5C7956";
paths = (
{
closed = 1;
nodes = (
"948 1727 LINE",
"412 1727 LINE",
"412 1606 LINE",
"948 1606 LINE"
);
},
{
closed = 1;
nodes = (
"1128 121 LINE",
"354 121 LINE",
"354 653 LINE",
"1016 653 LINE",
"1016 762 LINE",
"354 762 LINE",
"354 1300 LINE",
"1128 1300 LINE",
"1128 1413 LINE",
"219 1413 LINE",
"219 0 LINE",
"1128 0 LINE"
);
}
);
width = 1237;
}
);
note = Emacron;
unicode = 0112;
},
{
glyphname = emacron;
lastChange = "2017-12-10 12:53:03 +0000";
layers = (
{
layerId = "BF2BE0AA-9B99-4172-A7AC-368BFC5C7956";
paths = (
{
closed = 1;
nodes = (
"778 1313 LINE",
"242 1313 LINE",
"242 1192 LINE",
"778 1192 LINE"
);
},
{
closed = 1;
nodes = (
"694 -12 OFFCURVE",
"803 32 OFFCURVE",
"911 137 CURVE",
"825 203 LINE",
"749 123 OFFCURVE",
"663 96 OFFCURVE",
"535 96 CURVE SMOOTH",
"339 96 OFFCURVE",
"224 256 OFFCURVE",
"231 457 CURVE",
"930 457 LINE",
"933 481 OFFCURVE",
"934 505 OFFCURVE",
"934 528 CURVE SMOOTH",
"934 577 OFFCURVE",
"930 623 OFFCURVE",
"922 668 CURVE SMOOTH",
"906 756 OFFCURVE",
"864 847 OFFCURVE",
"804 909 CURVE SMOOTH",
"743 971 OFFCURVE",
"643 1012 OFFCURVE",
"520 1012 CURVE SMOOTH",
"466 1012 OFFCURVE",
"416 1003 OFFCURVE",
"370 984 CURVE SMOOTH",
"278 947 OFFCURVE",
"215 881 OFFCURVE",
"168 793 CURVE SMOOTH",
"121 705 OFFCURVE",
"100 603 OFFCURVE",
"100 494 CURVE SMOOTH",
"100 355 OFFCURVE",
"138 232 OFFCURVE",
"208 139 CURVE SMOOTH",
"278 46 OFFCURVE",
"394 -12 OFFCURVE",
"537 -12 CURVE SMOOTH"
);
},
{
closed = 1;
nodes = (
"234 657 OFFCURVE",
"258 740 OFFCURVE",
"305 805 CURVE SMOOTH",
"352 869 OFFCURVE",
"427 909 OFFCURVE",
"520 909 CURVE SMOOTH",
"628 909 OFFCURVE",
"709 866 OFFCURVE",
"753 798 CURVE SMOOTH",
"796 730 OFFCURVE",
"815 653 OFFCURVE",
"815 565 CURVE",
"231 565 LINE"
);
}
);
width = 1030;
}
);
leftKerningGroup = a;
note = emacron;
unicode = 0113;
},
{
glyphname = Edotaccent;
lastChange = "2017-12-10 12:53:03 +0000";
layers = (
{
layerId = "BF2BE0AA-9B99-4172-A7AC-368BFC5C7956";
paths = (
{
closed = 1;
nodes = (
"752 1827 LINE",
"600 1827 LINE",
"600 1643 LINE",
"752 1643 LINE"
);
},
{
closed = 1;
nodes = (
"1128 121 LINE",
"354 121 LINE",
"354 653 LINE",
"1016 653 LINE",
"1016 762 LINE",
"354 762 LINE",
"354 1300 LINE",
"1128 1300 LINE",
"1128 1413 LINE",
"219 1413 LINE",
"219 0 LINE",
"1128 0 LINE"
);
}
);
width = 1237;
}
);
note = Edotaccent;
unicode = 0116;
},
{
glyphname = edotaccent;
lastChange = "2017-12-10 12:53:03 +0000";
layers = (
{
layerId = "BF2BE0AA-9B99-4172-A7AC-368BFC5C7956";
paths = (
{
closed = 1;
nodes = (
"582 1413 LINE",
"430 1413 LINE",
"430 1229 LINE",
"582 1229 LINE"
);
},
{
closed = 1;
nodes = (
"694 -12 OFFCURVE",
"803 32 OFFCURVE",
"911 137 CURVE",
"825 203 LINE",
"749 123 OFFCURVE",
"663 96 OFFCURVE",
"535 96 CURVE SMOOTH",
"339 96 OFFCURVE",
"224 256 OFFCURVE",
"231 457 CURVE",
"930 457 LINE",
"933 481 OFFCURVE",
"934 505 OFFCURVE",
"934 528 CURVE SMOOTH",
"934 577 OFFCURVE",
"930 623 OFFCURVE",
"922 668 CURVE SMOOTH",
"906 756 OFFCURVE",
"864 847 OFFCURVE",
"804 909 CURVE SMOOTH",
"743 971 OFFCURVE",
"643 1012 OFFCURVE",
"520 1012 CURVE SMOOTH",
"466 1012 OFFCURVE",
"416 1003 OFFCURVE",
"370 984 CURVE SMOOTH",
"278 947 OFFCURVE",
"215 881 OFFCURVE",
"168 793 CURVE SMOOTH",
"121 705 OFFCURVE",
"100 603 OFFCURVE",
"100 494 CURVE SMOOTH",
"100 355 OFFCURVE",
"138 232 OFFCURVE",
"208 139 CURVE SMOOTH",
"278 46 OFFCURVE",
"394 -12 OFFCURVE",
"537 -12 CURVE SMOOTH"
);
},
{
closed = 1;
nodes = (
"234 657 OFFCURVE",
"258 740 OFFCURVE",
"305 805 CURVE SMOOTH",
"352 869 OFFCURVE",
"427 909 OFFCURVE",
"520 909 CURVE SMOOTH",
"628 909 OFFCURVE",
"709 866 OFFCURVE",
"753 798 CURVE SMOOTH",
"796 730 OFFCURVE",
"815 653 OFFCURVE",
"815 565 CURVE",
"231 565 LINE"
);
}
);
width = 1030;
}
);
leftKerningGroup = a;
note = edotaccent;
unicode = 0117;
},
{
glyphname = Eogonek;
lastChange = "2017-12-10 12:53:03 +0000";
layers = (
{
layerId = "BF2BE0AA-9B99-4172-A7AC-368BFC5C7956";
paths = (
{
closed = 1;
nodes = (
"1083 -324 OFFCURVE",
"1040 -346 OFFCURVE",
"987 -346 CURVE SMOOTH",
"936 -346 OFFCURVE",
"897 -301 OFFCURVE",
"897 -233 CURVE SMOOTH",
"897 -190 OFFCURVE",
"916 -148 OFFCURVE",
"943 -118 CURVE SMOOTH",
"970 -88 OFFCURVE",
"1006 -60 OFFCURVE",
"1038 -42 CURVE SMOOTH",
"1070 -24 OFFCURVE",
"1100 -11 OFFCURVE",
"1116 -4 CURVE",
"1128 0 LINE",
"1128 121 LINE",
"354 121 LINE",
"354 653 LINE",
"1016 653 LINE",
"1016 762 LINE",
"354 762 LINE",
"354 1300 LINE",
"1128 1300 LINE",
"1128 1413 LINE",
"219 1413 LINE",
"219 0 LINE",
"1022 0 LINE",
"974 -15 OFFCURVE",
"931 -36 OFFCURVE",
"881 -75 CURVE SMOOTH",
"831 -114 OFFCURVE",
"797 -175 OFFCURVE",
"797 -246 CURVE SMOOTH",
"797 -369 OFFCURVE",
"881 -451 OFFCURVE",
"997 -451 CURVE SMOOTH",
"1092 -451 OFFCURVE",
"1151 -412 OFFCURVE",
"1200 -340 CURVE",
"1114 -281 LINE"
);
}
);
width = 1237;
}
);
note = Eogonek;
unicode = 0118;
},
{
glyphname = eogonek;
lastChange = "2017-12-10 12:53:03 +0000";
layers = (
{
layerId = "BF2BE0AA-9B99-4172-A7AC-368BFC5C7956";
paths = (
{
closed = 1;
nodes = (
"933 481 OFFCURVE",
"934 505 OFFCURVE",
"934 528 CURVE SMOOTH",
"934 577 OFFCURVE",
"930 623 OFFCURVE",
"922 668 CURVE SMOOTH",
"906 756 OFFCURVE",
"864 847 OFFCURVE",
"804 909 CURVE SMOOTH",
"743 971 OFFCURVE",
"643 1012 OFFCURVE",
"520 1012 CURVE SMOOTH",
"466 1012 OFFCURVE",
"416 1003 OFFCURVE",
"370 984 CURVE SMOOTH",
"278 947 OFFCURVE",
"215 881 OFFCURVE",
"168 793 CURVE SMOOTH",
"121 705 OFFCURVE",
"100 603 OFFCURVE",
"100 494 CURVE SMOOTH",
"100 355 OFFCURVE",
"138 232 OFFCURVE",
"208 139 CURVE SMOOTH",
"278 46 OFFCURVE",
"394 -12 OFFCURVE",
"537 -12 CURVE SMOOTH",
"554 -12 LINE",
"483 -62 OFFCURVE",
"447 -125 OFFCURVE",
"447 -201 CURVE SMOOTH",
"447 -324 OFFCURVE",
"531 -406 OFFCURVE",
"647 -406 CURVE SMOOTH",
"742 -406 OFFCURVE",
"801 -367 OFFCURVE",
"850 -295 CURVE",
"764 -236 LINE",
"733 -279 OFFCURVE",
"690 -301 OFFCURVE",
"637 -301 CURVE SMOOTH",
"586 -301 OFFCURVE",
"547 -256 OFFCURVE",
"547 -188 CURVE SMOOTH",
"547 -115 OFFCURVE",
"597 -49 OFFCURVE",
"698 8 CURVE",
"774 29 OFFCURVE",
"845 72 OFFCURVE",
"911 137 CURVE",
"825 203 LINE",
"749 123 OFFCURVE",
"663 96 OFFCURVE",
"535 96 CURVE SMOOTH",
"339 96 OFFCURVE",
"224 256 OFFCURVE",
"231 457 CURVE",
"930 457 LINE"
);
},
{
closed = 1;
nodes = (
"628 909 OFFCURVE",
"709 866 OFFCURVE",
"753 798 CURVE SMOOTH",
"796 730 OFFCURVE",
"815 653 OFFCURVE",
"815 565 CURVE",
"231 565 LINE",
"234 657 OFFCURVE",
"258 740 OFFCURVE",
"305 805 CURVE SMOOTH",
"352 869 OFFCURVE",
"427 909 OFFCURVE",
"520 909 CURVE SMOOTH"
);
}
);
width = 1030;
}
);
leftKerningGroup = a;
note = eogonek;
unicode = 0119;
},
{
glyphname = Ecaron;
lastChange = "2017-12-10 12:53:03 +0000";
layers = (
{
layerId = "BF2BE0AA-9B99-4172-A7AC-368BFC5C7956";
paths = (
{
closed = 1;
nodes = (
"856 1827 LINE",
"678 1635 LINE",
"502 1827 LINE",
"346 1827 LINE",
"678 1495 LINE",
"1010 1827 LINE"
);
},
{
closed = 1;
nodes = (
"1128 121 LINE",
"354 121 LINE",
"354 653 LINE",
"1016 653 LINE",
"1016 762 LINE",
"354 762 LINE",
"354 1300 LINE",
"1128 1300 LINE",
"1128 1413 LINE",
"219 1413 LINE",
"219 0 LINE",
"1128 0 LINE"
);
}
);
width = 1237;
}
);
note = Ecaron;
unicode = 011A;
},
{
glyphname = ecaron;
lastChange = "2017-12-10 12:53:03 +0000";
layers = (
{
layerId = "BF2BE0AA-9B99-4172-A7AC-368BFC5C7956";
paths = (
{
closed = 1;
nodes = (
"686 1413 LINE",
"508 1221 LINE",
"332 1413 LINE",
"176 1413 LINE",
"508 1081 LINE",
"840 1413 LINE"
);
},
{
closed = 1;
nodes = (
"694 -12 OFFCURVE",
"803 32 OFFCURVE",
"911 137 CURVE",
"825 203 LINE",
"749 123 OFFCURVE",
"663 96 OFFCURVE",
"535 96 CURVE SMOOTH",
"339 96 OFFCURVE",
"224 256 OFFCURVE",
"231 457 CURVE",
"930 457 LINE",
"933 481 OFFCURVE",
"934 505 OFFCURVE",
"934 528 CURVE SMOOTH",
"934 577 OFFCURVE",
"930 623 OFFCURVE",
"922 668 CURVE SMOOTH",
"906 756 OFFCURVE",
"864 847 OFFCURVE",
"804 909 CURVE SMOOTH",
"743 971 OFFCURVE",
"643 1012 OFFCURVE",
"520 1012 CURVE SMOOTH",
"466 1012 OFFCURVE",
"416 1003 OFFCURVE",
"370 984 CURVE SMOOTH",
"278 947 OFFCURVE",
"215 881 OFFCURVE",
"168 793 CURVE SMOOTH",
"121 705 OFFCURVE",
"100 603 OFFCURVE",
"100 494 CURVE SMOOTH",
"100 355 OFFCURVE",
"138 232 OFFCURVE",
"208 139 CURVE SMOOTH",
"278 46 OFFCURVE",
"394 -12 OFFCURVE",
"537 -12 CURVE SMOOTH"
);
},
{
closed = 1;
nodes = (
"234 657 OFFCURVE",
"258 740 OFFCURVE",
"305 805 CURVE SMOOTH",
"352 869 OFFCURVE",
"427 909 OFFCURVE",
"520 909 CURVE SMOOTH",
"628 909 OFFCURVE",
"709 866 OFFCURVE",
"753 798 CURVE SMOOTH",
"796 730 OFFCURVE",
"815 653 OFFCURVE",
"815 565 CURVE",
"231 565 LINE"
);
}
);
width = 1030;
}
);
leftKerningGroup = a;
note = ecaron;
unicode = 011B;
},
